<svg width="170" height="34" viewBox="0 0 170 34" fill="none" xmlns="http://www.w3.org/2000/svg">
<path d="M7.26744 17.3251V22.0146H5.49989V17.3121C5.49989 16.6381 5.35422 16.1685 5.06289 15.9032C4.77591 15.6336 4.29109 15.4989 3.60842 15.4989H0.895133V13.9205H3.71277C4.56937 13.9205 5.25639 14.0357 5.77383 14.2661C6.29561 14.4922 6.67391 14.8553 6.90871 15.3554C7.14786 15.8511 7.26744 16.5076 7.26744 17.3251ZM16.4183 20.4362V22.0146H8.87193V20.4362H13.7898V17.5534C13.7898 16.7924 13.6463 16.2598 13.3593 15.9554C13.0767 15.651 12.5918 15.4989 11.9048 15.4989H9.17848V13.9205H11.9309C13.2006 13.9205 14.1202 14.1857 14.6898 14.7162C15.2638 15.2467 15.5508 16.1163 15.5508 17.3251V20.4362H16.4183ZM19.5164 13.9205V18.2187H17.7553V13.9205H19.5164ZM23.8211 13.9205V18.2187H22.0601V13.9205H23.8211ZM25.8234 17.9252C25.8234 17.6382 25.8517 17.3403 25.9082 17.0316C25.9691 16.7185 26.0517 16.4272 26.1561 16.1576C26.2604 15.8837 26.3822 15.6641 26.5213 15.4989H25.2886V13.9205H29.8151C31.1239 13.9205 32.0718 14.1966 32.6588 14.7488C33.2502 15.301 33.5459 16.1902 33.5459 17.4164V17.9382C33.5459 19.3253 33.211 20.3732 32.5414 21.082C31.8718 21.7907 30.8848 22.1451 29.5803 22.1451C28.3019 22.1451 27.3562 21.8125 26.7431 21.1472C26.13 20.4776 25.8234 19.4709 25.8234 18.1273V17.9252ZM28.0541 15.4989C27.7888 15.9598 27.6562 16.7337 27.6562 17.8208V18.1143C27.6562 18.9318 27.8193 19.547 28.1454 19.9601C28.4715 20.3688 28.9628 20.5732 29.6194 20.5732C30.3499 20.5732 30.8782 20.3623 31.2043 19.9406C31.5348 19.5188 31.7 18.8339 31.7 17.886V17.4034C31.7 16.725 31.5413 16.238 31.2239 15.9424C30.9108 15.6467 30.3978 15.4989 29.6846 15.4989H28.0541ZM42.364 20.4362V22.0146H34.8177V20.4362H39.7355V17.5534C39.7355 16.7924 39.5921 16.2598 39.3051 15.9554C39.0224 15.651 38.5376 15.4989 37.8506 15.4989H35.1243V13.9205H37.8767C39.1464 13.9205 40.066 14.1857 40.6356 14.7162C41.2096 15.2467 41.4966 16.1163 41.4966 17.3251V20.4362H42.364ZM53.8955 17.3251V22.0146H52.1279V17.3121C52.1279 16.6468 51.9866 16.1793 51.704 15.9098C51.4214 15.6358 50.93 15.4989 50.23 15.4989H46.9231V13.9205H50.3408C51.1974 13.9205 51.8844 14.0357 52.4019 14.2661C52.9237 14.4966 53.302 14.8618 53.5368 15.3619C53.7759 15.8576 53.8955 16.512 53.8955 17.3251ZM48.8146 17.0968V22.0146H47.0536V17.0968H48.8146ZM59.6482 17.1099V22.0146H55.4282V20.4362H57.8872V17.449C57.8872 16.862 57.848 16.4424 57.7698 16.1902C57.6915 15.9424 57.561 15.7663 57.3784 15.6619C57.1958 15.5532 56.9284 15.4989 56.5762 15.4989H55.8V13.9205H56.9088C57.6567 13.9205 58.2154 14.0205 58.585 14.2205C58.9546 14.4205 59.2242 14.7488 59.3938 15.2053C59.5634 15.6619 59.6482 16.2967 59.6482 17.1099ZM62.8898 13.9205C63.2768 13.9205 63.5985 13.9509 63.8551 14.0118C64.116 14.0726 64.3334 14.1792 64.5073 14.3314C64.6856 14.4792 64.8399 14.6836 64.9704 14.9445C65.0704 15.1401 65.1748 15.4141 65.2835 15.7663C65.3922 16.1141 65.5074 16.5402 65.6291 17.0446L66.7771 22.0146H65.0226L64.3703 19.1057C64.0529 19.1883 63.829 19.2992 63.6985 19.4383C63.5681 19.5775 63.4572 19.7971 63.3659 20.0971C63.3485 20.158 63.3202 20.2645 63.2811 20.4167C63.2463 20.5645 63.2028 20.7558 63.1507 20.9906L62.9289 22.0146H61.1353L61.4027 20.8406C61.481 20.4797 61.5592 20.1688 61.6375 19.9079C61.7158 19.6427 61.7962 19.4253 61.8788 19.2557C62.0397 18.9165 62.2462 18.647 62.4984 18.4469C62.755 18.2426 63.1072 18.073 63.5551 17.9382L64.0768 17.7817C64.016 17.4903 63.9551 17.2294 63.8942 16.999C63.8333 16.7685 63.7768 16.5707 63.7246 16.4055C63.6159 16.0706 63.4898 15.8358 63.3463 15.701C63.2028 15.5662 62.9702 15.4989 62.6484 15.4989H61.7679V13.9205H62.8898ZM75.093 17.3251V22.0146H73.3255V17.3121C73.3255 16.6468 73.1842 16.1793 72.9015 15.9098C72.6189 15.6358 72.1276 15.4989 71.4275 15.4989H68.1207V13.9205H71.5384C72.395 13.9205 73.082 14.0357 73.5994 14.2661C74.1212 14.4966 74.4995 14.8618 74.7343 15.3619C74.9735 15.8576 75.093 16.512 75.093 17.3251ZM70.0121 17.0968V22.0146H68.2511V17.0968H70.0121ZM84.1199 17.3251V22.0146H82.3524V17.3121C82.3524 16.6468 82.2111 16.1793 81.9284 15.9098C81.6458 15.6358 81.1544 15.4989 80.4544 15.4989H77.1476V13.9205H80.5653C81.4219 13.9205 82.1089 14.0357 82.6263 14.2661C83.1481 14.4966 83.5264 14.8618 83.7612 15.3619C84.0003 15.8576 84.1199 16.512 84.1199 17.3251ZM79.039 17.0968V22.0146H77.278V17.0968H79.039ZM91.4901 20.7232C91.3162 21.1711 91.0488 21.4994 90.6879 21.7081C90.327 21.9125 89.803 22.0146 89.116 22.0146H88.6725V20.4362H88.7834C89.0834 20.4362 89.3226 20.3797 89.5008 20.2667C89.6748 20.1536 89.7987 19.9819 89.8726 19.7514C89.9465 19.5166 89.9835 19.1622 89.9835 18.6883V15.4989H88.7442V13.9205H93.2838C94.5361 13.9205 95.434 14.1857 95.9775 14.7162C96.5254 15.2423 96.7993 16.1163 96.7993 17.3381V22.0146H95.0318V17.3642C95.0318 16.6685 94.8904 16.1837 94.6078 15.9098C94.3252 15.6358 93.849 15.4989 93.1794 15.4989H91.7445V18.9165C91.7445 19.6688 91.6597 20.271 91.4901 20.7232ZM105.944 20.4362V22.0146H98.3973V20.4362H103.315V17.5534C103.315 16.7924 103.172 16.2598 102.885 15.9554C102.602 15.651 102.117 15.4989 101.43 15.4989H98.7038V13.9205H101.456C102.726 13.9205 103.646 14.1857 104.215 14.7162C104.789 15.2467 105.076 16.1163 105.076 17.3251V20.4362H105.944ZM109.042 13.9205V18.2187H107.281V13.9205H109.042ZM115.016 22.1451C113.816 22.1451 112.933 21.8668 112.368 21.3102C111.803 20.7493 111.52 19.8884 111.52 18.7274V13.9205H113.281V18.6883C113.281 19.3361 113.42 19.8101 113.699 20.1101C113.977 20.4102 114.42 20.5602 115.029 20.5602C115.473 20.5602 115.849 20.4754 116.158 20.3058C116.466 20.1319 116.701 19.8318 116.862 19.4057C117.023 18.9752 117.103 18.3795 117.103 17.6186C117.103 16.8664 117.018 16.3054 116.849 15.9358C116.679 15.5619 116.399 15.3749 116.008 15.3749C115.629 15.3749 115.234 15.4989 114.82 15.7467V14.1487C115.229 13.9052 115.723 13.7835 116.301 13.7835C117.232 13.7835 117.899 14.0879 118.303 14.6966C118.712 15.301 118.916 16.2707 118.916 17.6056C118.916 19.1796 118.603 20.3297 117.977 21.0559C117.355 21.782 116.368 22.1451 115.016 22.1451ZM126.163 17.5403C126.163 16.8098 126.024 16.2881 125.745 15.975C125.467 15.6576 124.98 15.4989 124.284 15.4989H122.543V22.0146H120.782V13.9205H124.284C125.571 13.9205 126.5 14.1879 127.069 14.7227C127.643 15.2532 127.93 16.1206 127.93 17.3251V22.0146H126.163V17.5403Z" fill="black"/>
<path d="M160.287 29.2742C161.308 28.1543 162.203 26.924 163.029 25.6529C163.936 24.2568 164.764 22.8074 165.471 21.3C166.637 18.8158 167.471 16.1832 168.058 13.5025C168.542 11.2931 168.86 9.04731 169.008 6.79035C168.802 6.55864 168.59 6.33192 168.373 6.11044C167.615 5.33753 166.79 4.62742 165.89 4.02681C164.916 3.37708 163.858 2.85871 162.767 2.43635C161.362 1.89291 159.898 1.50655 158.411 1.26508C157.383 1.09803 156.342 1 155.3 1C154.258 1 153.217 1.09803 152.189 1.26508C150.702 1.50655 149.238 1.89291 147.833 2.43635C146.741 2.85871 145.684 3.37708 144.71 4.02681C143.809 4.62742 142.985 5.33753 142.227 6.11044C142.01 6.33192 141.798 6.55864 141.592 6.79035C141.74 9.04731 142.057 11.2931 142.541 13.5025C143.129 16.1832 143.963 18.8158 145.129 21.3C145.836 22.8074 146.664 24.2568 147.571 25.6529C148.397 26.924 149.292 28.1543 150.313 29.2742C151.754 30.8539 153.443 32.206 155.3 33.2654C157.157 32.206 158.846 30.8539 160.287 29.2742Z" fill="#0D1D29"/>
<path d="M155.3 1.89648C156.286 1.89648 157.279 1.98936 158.268 2.14997C159.697 2.38212 161.101 2.75314 162.444 3.27255C163.487 3.67617 164.486 4.16711 165.393 4.77274C166.233 5.33258 167.011 6.00146 167.734 6.73821C167.854 6.86091 167.969 6.98889 168.085 7.11493C167.931 9.19783 167.63 11.2701 167.183 13.3103C166.608 15.9375 165.793 18.5061 164.66 20.9186C163.973 22.3827 163.166 23.7966 162.278 25.1639C161.469 26.4086 160.602 27.5986 159.625 28.6695C158.364 30.0522 156.9 31.2509 155.3 32.2212C153.7 31.2509 152.236 30.0522 150.975 28.6695C149.999 27.5986 149.131 26.4086 148.323 25.1639C147.434 23.7966 146.627 22.3827 145.94 20.9186C144.808 18.5061 143.993 15.9375 143.417 13.3103C142.97 11.2701 142.67 9.19779 142.515 7.11487C142.632 6.98885 142.747 6.8609 142.867 6.73821C143.589 6.00146 144.368 5.33258 145.207 4.77274C146.115 4.16711 147.113 3.67617 148.157 3.27255C149.499 2.75314 150.903 2.38212 152.333 2.14997C153.322 1.98936 154.315 1.89648 155.3 1.89648V1.89648Z" stroke="#28464C" stroke-width="2.67979"/>
<path d="M154.909 3.13758C154.858 3.1386 154.817 3.60791 154.791 4.49836C154.765 5.3888 154.754 6.669 154.759 8.21028C154.765 9.75155 154.786 11.4996 154.822 13.2787C154.858 15.0578 154.906 16.8054 154.962 18.3456C155.019 19.8859 155.081 21.1646 155.143 22.0533C155.204 22.942 155.264 23.4093 155.315 23.4083" stroke="white" stroke-width="0.699118"/>
<path d="M153.362 3.28737C152.942 3.36099 152.611 3.89467 152.401 4.83479C152.192 5.77491 152.111 7.08834 152.167 8.64306C152.223 10.1978 152.415 11.939 152.722 13.6917C153.029 15.4445 153.441 17.147 153.917 18.6281C154.393 20.1092 154.915 21.3167 155.432 22.1293C155.949 22.942 156.442 23.331 156.862 23.2574" stroke="white" stroke-width="0.699118"/>
<path d="M151.693 3.73015C150.967 3.99077 150.411 4.68775 150.081 5.75103C149.752 6.8143 149.661 8.20642 149.817 9.78744C149.973 11.3685 150.372 13.0827 150.972 14.7578C151.572 16.433 152.352 18.01 153.235 19.3304C154.118 20.6508 155.072 21.668 156.002 22.2799C156.931 22.8918 157.803 23.0767 158.53 22.8161" stroke="white" stroke-width="0.699118"/>
<path d="M149.804 4.63851C148.896 5.19704 148.25 6.14472 147.93 7.38628C147.61 8.62784 147.627 10.1195 147.981 11.7115C148.334 13.3034 149.01 14.9394 149.942 16.4551C150.873 17.9708 152.028 19.3128 153.288 20.3462C154.549 21.3796 155.872 22.0679 157.123 22.3421C158.375 22.6162 159.512 22.4665 160.419 21.908" stroke="white" stroke-width="0.699118"/>
<path d="M147.682 6.38138C146.807 7.32527 146.292 8.57096 146.187 9.99327C146.081 11.4156 146.39 12.9644 147.083 14.484C147.775 16.0036 148.826 17.4405 150.13 18.6503C151.434 19.86 152.946 20.8 154.512 21.3757C156.079 21.9515 157.646 22.1427 159.055 21.9301C160.465 21.7176 161.667 21.1087 162.541 20.1649" stroke="white" stroke-width="0.699118"/>
<path d="M145.713 9.48789C145.183 10.8055 145.097 12.2748 145.463 13.7481C145.829 15.2214 146.634 16.6467 147.798 17.881C148.961 19.1152 150.443 20.1148 152.092 20.7792C153.742 21.4437 155.502 21.7496 157.196 21.6662C158.89 21.5828 160.457 21.1131 161.741 20.3043C163.025 19.4954 163.98 18.376 164.51 17.0584" stroke="white" stroke-width="0.699118"/>
<path d="M144.999 13.8896C145.133 16.0866 146.327 18.1287 148.317 19.5667C150.308 21.0047 152.934 21.7207 155.616 21.5574C158.297 21.394 160.816 20.3645 162.618 18.6955C164.42 17.0265 165.357 14.8545 165.224 12.6576" stroke="white" stroke-width="0.699118"/>
<path d="M146.171 18.041C147.161 19.8996 149.053 21.1797 151.43 21.5997C153.806 22.0197 156.474 21.5452 158.845 20.2806C161.216 19.0159 163.096 17.0647 164.073 14.8562C165.05 12.6477 165.042 10.3629 164.052 8.50425" stroke="white" stroke-width="0.699118"/>
<path d="M148.261 20.7422C149.636 22.0052 151.676 22.4297 153.933 21.9222C156.191 21.4147 158.479 20.0169 160.296 18.0362C162.113 16.0555 163.31 13.6543 163.622 11.3606C163.934 9.06698 163.337 7.06887 161.962 5.80586" stroke="white" stroke-width="0.699118"/>
<path d="M150.333 22.2119C151.657 22.9203 153.43 22.658 155.262 21.4825C157.094 20.307 158.835 18.3148 160.103 15.944C161.37 13.5732 162.059 11.0181 162.019 8.84079C161.98 6.66347 161.214 5.04227 159.89 4.33384" stroke="white" stroke-width="0.699118"/>
<path d="M152.156 22.9697C153.145 23.2713 154.404 22.539 155.657 20.9339C156.91 19.3287 158.054 16.9822 158.838 14.4105C159.622 11.8389 159.981 9.25272 159.836 7.221C159.692 5.18929 159.055 3.87843 158.067 3.5768" stroke="white" stroke-width="0.699118"/>
<path d="M153.781 23.3223C154.272 23.3873 154.883 22.3909 155.48 20.5522C156.076 18.7135 156.609 16.1832 156.962 13.5179C157.315 10.8525 157.458 8.27052 157.361 6.33986C157.263 4.4092 156.932 3.28802 156.441 3.22298" stroke="white" stroke-width="0.699118"/>
<path d="M156.7 3.26172C155.661 3.09654 154.563 3.09654 153.523 3.26172" stroke="white" stroke-width="0.699118"/>
<path d="M160.226 4.52344C159.559 4.13315 158.763 3.82312 157.885 3.61147C157.007 3.39982 156.064 3.29081 155.112 3.29081C154.159 3.29081 153.216 3.39982 152.338 3.61147C151.46 3.82312 150.664 4.13315 149.997 4.52344" stroke="white" stroke-width="0.699118"/>
<path d="M162.168 6C161.443 5.29603 160.411 4.71264 159.174 4.30738C157.936 3.90212 156.536 3.68898 155.112 3.68898C153.687 3.68898 152.287 3.90212 151.05 4.30738C149.812 4.71264 148.78 5.29603 148.055 6" stroke="white" stroke-width="0.699118"/>
<path d="M163.544 7.65527C162.892 6.67502 161.737 5.83154 160.231 5.23647C158.725 4.64139 156.94 4.32277 155.112 4.32277C153.283 4.32277 151.498 4.64139 149.993 5.23647C148.487 5.83154 147.331 6.67502 146.679 7.65527" stroke="white" stroke-width="0.699118"/>
<path d="M164.494 9.44922C163.999 8.23401 162.803 7.15055 161.1 6.37497C159.396 5.59939 157.286 5.1773 155.112 5.1773C152.937 5.1773 150.827 5.59939 149.124 6.37497C147.42 7.15055 146.224 8.234 145.729 9.44922" stroke="white" stroke-width="0.699118"/>
<path d="M165.056 11.3379C164.783 9.93373 163.618 8.63661 161.783 7.69458C159.948 6.75255 157.573 6.23174 155.112 6.23174C152.65 6.23174 150.275 6.75255 148.44 7.69458C146.605 8.63661 145.44 9.93373 145.167 11.3379" stroke="white" stroke-width="0.699118"/>
<path d="M165.243 13.2744C165.243 12.2537 164.775 11.251 163.885 10.3671C162.996 9.48314 161.717 8.74911 160.177 8.23877C158.637 7.72843 156.89 7.45975 155.112 7.45975C153.333 7.45975 151.586 7.72843 150.046 8.23877C148.506 8.74911 147.227 9.48314 146.338 10.3671C145.449 11.251 144.981 12.2537 144.981 13.2744" stroke="white" stroke-width="0.699118"/>
<path d="M165.056 15.21C165.265 14.1363 164.942 13.0506 164.124 12.0775C163.306 11.1045 162.026 10.2836 160.432 9.70916C158.838 9.1347 156.994 8.82997 155.112 8.82997C153.229 8.82997 151.385 9.1347 149.791 9.70916C148.197 10.2836 146.917 11.1045 146.1 12.0775C145.282 13.0506 144.958 14.1363 145.167 15.21" stroke="white" stroke-width="0.699118"/>
<path d="M164.494 17.0986C164.936 16.0133 164.796 14.8766 164.093 13.8377C163.39 12.7988 162.156 11.9061 160.553 11.2766C158.951 10.6472 157.054 10.3104 155.112 10.3104C153.17 10.3104 151.273 10.6472 149.671 11.2766C148.068 11.9061 146.834 12.7988 146.131 13.8377C145.428 14.8766 145.288 16.0133 145.729 17.0986" stroke="white" stroke-width="0.699118"/>
<path d="M163.544 18.8926C164.243 17.8425 164.328 16.6906 163.786 15.6104C163.244 14.5303 162.105 13.5807 160.54 12.9047C158.975 12.2288 157.07 11.8633 155.112 11.8633C153.153 11.8633 151.248 12.2288 149.683 12.9047C148.119 13.5807 146.979 14.5303 146.437 15.6104C145.896 16.6906 145.98 17.8425 146.679 18.8926" stroke="white" stroke-width="0.699118"/>
<path d="M162.168 20.5479C163.153 19.591 163.516 18.4649 163.193 17.3691C162.869 16.2733 161.88 15.2786 160.401 14.5613C158.922 13.844 157.048 13.4505 155.112 13.4505C153.175 13.4505 151.301 13.844 149.822 14.5613C148.343 15.2786 147.354 16.2733 147.031 17.3691C146.707 18.4649 147.07 19.591 148.055 20.5479" stroke="white" stroke-width="0.699118"/>
<path d="M160.226 22.0244C161.551 21.2492 162.287 20.2046 162.275 19.1188C162.263 18.033 161.503 16.994 160.161 16.2287C158.819 15.4634 157.004 15.0338 155.112 15.0338C153.22 15.0338 151.405 15.4634 150.063 16.2287C148.721 16.994 147.96 18.033 147.948 19.1188C147.936 20.2046 148.673 21.2492 149.997 22.0244" stroke="white" stroke-width="0.699118"/>
<path d="M156.701 23.2861C158.089 23.0656 159.291 22.5636 160.084 21.8734C160.876 21.1831 161.206 20.3513 161.012 19.5321C160.819 18.7129 160.114 17.9617 159.029 17.4179C157.944 16.8741 156.552 16.5744 155.112 16.5744C153.671 16.5744 152.28 16.8741 151.195 17.4179C150.11 17.9617 149.405 18.7129 149.211 19.5321C149.017 20.3513 149.347 21.1831 150.14 21.8734C150.933 22.5636 152.135 23.0656 153.523 23.2861" stroke="white" stroke-width="0.699118"/>
<path d="M155.112 18.0328C157.652 18.0328 159.711 19.2147 159.711 20.6726C159.711 22.1306 157.652 23.3125 155.112 23.3125C152.572 23.3125 150.512 22.1306 150.512 20.6726C150.512 19.2147 152.572 18.0328 155.112 18.0328Z" stroke="white" stroke-width="0.699118"/>
<path d="M155.112 19.374C156.841 19.374 158.242 20.1785 158.242 21.1709C158.242 22.1633 156.841 22.9678 155.112 22.9678C153.383 22.9678 151.981 22.1633 151.981 21.1709C151.981 20.1785 153.383 19.374 155.112 19.374Z" stroke="white" stroke-width="0.699118"/>
<path d="M155.112 20.5663C155.987 20.5663 156.697 20.9736 156.697 21.476C156.697 21.9785 155.987 22.3857 155.112 22.3857C154.236 22.3857 153.527 21.9785 153.527 21.476C153.527 20.9736 154.236 20.5663 155.112 20.5663Z" stroke="white" stroke-width="0.699118"/>
<path d="M155.112 3.13639C160.707 3.13639 165.243 7.67505 165.243 13.2738C165.243 18.8725 160.707 23.4111 155.112 23.4111C149.517 23.4111 144.981 18.8725 144.981 13.2738C144.981 7.67505 149.517 3.13639 155.112 3.13639Z" stroke="white" stroke-width="0.699118"/>
<path d="M155.039 23.3047V26.3479L155.257 26.3142V27.2943C155.388 27.2918 155.519 27.2918 155.65 27.2943C155.765 27.2965 155.881 27.3007 155.995 27.3221C156.251 27.3702 156.485 27.5051 156.676 27.6827C156.846 27.8417 156.984 28.0359 157.076 28.2499C157.165 28.4555 157.212 28.6774 157.236 28.9002C157.264 29.154 157.262 29.4133 157.202 29.6615C157.14 29.9227 157.013 30.1669 156.845 30.3766C156.582 30.705 156.222 30.9471 155.832 31.104C155.658 31.1737 155.479 31.2274 155.296 31.2643C155.139 31.2541 154.984 31.2303 154.832 31.1934C154.525 31.1189 154.231 30.9902 153.968 30.8143C153.586 30.5589 153.272 30.2029 153.069 29.791C152.939 29.5276 152.853 29.2416 152.822 28.9495C152.786 28.6085 152.823 28.2609 152.921 27.9323C153.032 27.5611 153.222 27.2121 153.484 26.9275C153.696 26.6977 153.955 26.511 154.239 26.3817V23.3047H155.039Z" fill="black"/>
<path d="M154.405 11.6218C153.763 11.114 153.248 10.4459 152.92 9.69516C152.73 9.26089 152.602 8.7983 152.558 8.32643C152.531 8.03794 152.536 7.74653 152.571 7.45898C152.815 7.58627 153.051 7.72905 153.277 7.88617C153.679 8.16589 154.05 8.4912 154.379 8.85387" fill="#2A8763"/>
<path d="M155.334 3.44238L153.618 6.60265V21.3847H152.393L151.19 22.4712H155.334H159.478L158.275 21.3847H157.05H155.334V3.44238Z" fill="black"/>
<path d="M160.351 14.4219L158.727 15.8089C158.15 16.3017 157.604 16.8282 157.051 17.3472V18.7654C157.273 18.5743 157.494 18.3823 157.714 18.1884C158.099 17.8482 158.481 17.5037 158.86 17.1559C159.097 16.9376 159.334 16.7176 159.55 16.4778C159.803 16.1967 160.026 15.8878 160.197 15.55C160.294 15.3573 160.373 15.1534 160.403 14.9397C160.414 14.8611 160.418 14.7814 160.412 14.7023C160.405 14.6065 160.385 14.5117 160.351 14.4219Z" fill="white"/>
<path d="M158.073 16.7222C157.904 15.8859 157.658 15.0648 157.342 14.2724C157.163 13.8268 156.963 13.3901 156.74 12.9647L156.897 12.2324C157.153 12.6355 157.383 13.0551 157.586 13.4878C158.133 14.6592 158.474 15.9268 158.588 17.2148L158.073 16.7222Z" fill="#2A8763"/>
<path d="M155.334 3.44238L157.051 6.60267V21.3847L155.334 21.9743V3.44238Z" fill="white"/>
<path d="M151.19 22.4707L152.393 23.5572H153.618H155.334H157.05H158.275L159.478 22.4707H155.334H151.19Z" fill="white"/>
<path d="M155.334 3.44238L155.849 6.58261L155.843 26.3133H155.334L155.334 3.44238Z" fill="black"/>
<path d="M155.334 3.44238L154.819 6.58261L154.825 26.3133H155.334L155.334 3.44238Z" fill="white"/>
<path d="M161.502 8.93262H158.435V12.0081H161.502V8.93262Z" fill="white"/>
<path d="M150.711 15.7631C151.609 15.7631 152.336 15.0353 152.336 14.1374C152.336 13.2396 151.609 12.5117 150.711 12.5117C149.814 12.5117 149.087 13.2396 149.087 14.1374C149.087 15.0353 149.814 15.7631 150.711 15.7631Z" fill="white"/>
<path d="M154.886 22.4518C154.394 22.046 153.902 21.6401 153.469 21.2574C153.037 20.8747 152.663 20.5151 152.378 20.2325C152.094 19.95 151.899 19.7445 151.754 19.5817C151.609 19.4188 151.515 19.2986 151.435 19.1923C151.355 19.0859 151.29 18.9935 151.247 18.9025C151.204 18.8115 151.183 18.7236 151.172 18.6448C151.162 18.566 151.162 18.4992 151.162 18.079C151.162 17.6588 151.162 16.8849 151.162 16.455C151.162 16.0252 151.162 15.9388 151.162 15.8636C151.162 15.7883 151.162 15.724 151.162 15.6849C151.162 15.6459 151.162 15.6321 150.995 15.6181C150.828 15.6042 150.496 15.5901 150.329 15.592C150.162 15.5939 150.162 15.6118 150.162 15.6436C150.162 15.6754 150.162 15.7208 150.162 15.7877C150.162 15.8545 150.162 15.943 150.162 16.3892C150.162 16.8353 150.162 17.6399 150.162 18.1434C150.162 18.6469 150.162 18.8471 150.188 19.019C150.213 19.1909 150.262 19.326 150.339 19.4683C150.416 19.6105 150.521 19.7582 150.66 19.9152C150.799 20.0722 150.971 20.2366 151.439 20.6745C151.907 21.1123 152.67 21.8226 153.222 22.3374C153.773 22.8521 154.112 23.1713 154.31 23.3791C154.507 23.5868 154.562 23.6816 154.607 23.7689C154.652 23.8563 154.686 23.9354 154.72 24.0761C154.754 24.2169 154.789 24.4193 154.807 24.8015C154.824 25.1838 154.824 25.7457 154.824 26.3078" fill="white"/>
<path d="M157.05 17.3477C157.037 17.3599 157.024 17.3722 157.011 17.3844C156.724 17.6537 156.429 17.9148 156.146 18.1888C155.999 18.3313 155.855 18.4773 155.715 18.6265L155.782 19.8225C156.168 19.5054 156.672 19.0912 157.05 18.7658V17.3477Z" fill="black"/>
<path d="M155.843 23.3047V26.3479L155.334 26.3142V27.2943C155.203 27.2918 155.072 27.2918 154.941 27.2943C154.826 27.2965 154.71 27.3007 154.596 27.3221C154.34 27.3702 154.106 27.5051 153.915 27.6827C153.745 27.8417 153.608 28.0359 153.515 28.2499C153.426 28.4555 153.379 28.6774 153.355 28.9002C153.327 29.154 153.329 29.4133 153.389 29.6615C153.452 29.9227 153.578 30.1669 153.746 30.3766C154.009 30.705 154.369 30.9471 154.759 31.104C154.933 31.1737 155.112 31.2274 155.295 31.2643C155.452 31.2541 155.607 31.2303 155.759 31.1934C156.066 31.1189 156.36 30.9902 156.623 30.8143C157.005 30.5589 157.319 30.2029 157.523 29.791C157.653 29.5276 157.738 29.2416 157.769 28.9495C157.805 28.6085 157.769 28.2609 157.67 27.9323C157.56 27.5611 157.369 27.2121 157.107 26.9275C156.895 26.6977 156.636 26.511 156.352 26.3817V23.3047H155.843Z" fill="white"/>
<path d="M158.635 16.3633C158.633 16.3728 158.63 16.3822 158.626 16.3912C158.614 16.4192 158.594 16.4436 158.569 16.461" stroke="black" stroke-width="0.206137"/>
<path d="M154.954 27.081C155.335 26.8552 155.701 26.6048 156.05 26.332C156.567 25.9277 157.048 25.4714 157.438 24.943C157.736 24.5386 157.979 24.0938 158.158 23.6245C158.339 23.6303 158.52 23.6245 158.7 23.6072C159.43 23.537 160.135 23.2758 160.76 22.8921C161.371 22.5173 161.91 22.0247 162.334 21.4471C162.77 20.8541 163.084 20.1724 163.252 19.4559C163.033 19.4902 162.817 19.5335 162.602 19.5858C162.051 19.72 161.513 19.9137 161.01 20.1766C160.637 20.3713 160.285 20.6032 159.953 20.8609C159.434 21.2642 158.963 21.7312 158.556 22.2479C158.575 22.1567 158.591 22.0647 158.603 21.9723C158.615 21.8783 158.624 21.7837 158.629 21.689C158.683 21.5962 158.741 21.5054 158.801 21.4166C159.015 21.1026 159.267 20.8144 159.555 20.5665C159.756 20.3927 159.975 20.2389 160.173 20.0609C160.588 19.6882 160.903 19.2186 161.195 18.7434C161.53 18.197 161.843 17.6323 162.054 17.0265C162.296 16.3314 162.398 15.5881 162.353 14.8535C162.177 14.9105 162.005 14.9784 161.837 15.0567C161.494 15.2174 161.172 15.4221 160.881 15.6648C160.435 16.0373 160.066 16.4971 159.768 16.9965C159.214 17.926 158.906 19.0008 158.884 20.0827C158.872 20.0985 158.859 20.1131 158.845 20.1263C158.826 20.1435 158.804 20.1582 158.781 20.1699C158.803 19.6819 158.797 19.1927 158.766 18.7052C158.734 18.2055 158.674 17.7076 158.588 17.2145L158.095 17.1883C158.272 18.0895 158.329 19.014 158.265 19.9301C158.251 20.1404 158.229 20.3505 158.191 20.5578C158.163 20.7118 158.125 20.864 158.078 21.0133C158.058 21.012 158.038 21.0076 158.019 21.0003C158.006 20.9952 157.994 20.9888 157.982 20.9811C157.526 20.0422 156.884 19.1946 156.103 18.5029C155.637 18.0905 155.122 17.7329 154.569 17.4488C154.235 17.2776 153.888 17.1332 153.534 17.0111C153.203 16.8971 152.865 16.8024 152.523 16.7275C152.659 17.2582 152.858 17.7725 153.115 18.2564C153.311 18.6254 153.541 18.9781 153.823 19.2858C154.209 19.7056 154.683 20.0338 155.177 20.3181C155.708 20.624 156.266 20.8836 156.849 21.0722C157.247 21.2008 157.655 21.2962 158.068 21.3572C158.073 22.3632 157.753 23.3682 157.169 24.1867C156.752 24.7699 156.208 25.2557 155.604 25.6415C155.279 25.8491 154.936 26.0287 154.581 26.1779L154.954 27.081Z" fill="#2A8763"/>
<path d="M158.789 16.6723C159.155 16.3286 159.484 15.9456 159.768 15.5318C160.378 14.6445 160.78 13.6196 160.976 12.5605C161.133 11.7102 161.16 10.8359 161.056 9.97754C160.7 10.2289 160.372 10.5212 160.082 10.8467C159.394 11.619 158.923 12.5759 158.69 13.5838C158.48 14.4934 158.461 15.4468 158.635 16.364L158.789 16.6723Z" fill="#2A8763"/>
<path d="M158.013 16.5494C157.836 16.3109 157.651 16.0785 157.458 15.8528C156.803 15.086 156.051 14.392 155.179 13.8863C154.222 13.3316 153.129 13.0134 152.024 12.9678C152.187 13.292 152.363 13.6089 152.554 13.9171C152.958 14.5688 153.432 15.19 154.045 15.6494C154.36 15.8854 154.708 16.0755 155.068 16.235C155.935 16.6194 156.879 16.8282 157.828 16.8453L158.013 16.5494Z" fill="#2A8763"/>
<path d="M158.335 17.302C158.626 17.302 158.862 17.0658 158.862 16.7745C158.862 16.4832 158.626 16.2471 158.335 16.2471C158.044 16.2471 157.808 16.4832 157.808 16.7745C157.808 17.0658 158.044 17.302 158.335 17.302Z" fill="#2A8763"/>
</svg>
