<svg width="191" height="33" viewBox="0 0 191 33" fill="none" xmlns="http://www.w3.org/2000/svg">
<path fill-rule="evenodd" clip-rule="evenodd" d="M176.369 0C185.454 0 189.075 4.89512 189.61 5.67121C187.116 26.1482 176.012 32.0585 176.012 32.0585H175.894C175.894 32.0585 164.79 26.1482 162.296 5.67121C162.831 4.89512 166.453 0 175.537 0H176.369Z" fill="url(#paint0_radial_501_2166)"/>
<path fill-rule="evenodd" clip-rule="evenodd" d="M176.369 0H175.537C166.453 0 162.831 4.89512 162.296 5.67121C164.79 26.1482 175.894 32.0585 175.894 32.0585H176.012C176.012 32.0585 187.116 26.1482 189.61 5.67121C189.075 4.89512 185.454 0 176.369 0ZM185.423 17.8993C184.245 20.8313 182.779 23.4649 181.067 25.7305C178.884 28.6169 176.847 30.1605 175.953 30.758C175.061 30.1616 173.022 28.618 170.839 25.7305C169.127 23.4678 167.66 20.8342 166.483 17.9022C165.053 14.3469 164.042 10.3403 163.48 5.98736C164.521 4.67142 168.015 1.14417 175.537 1.14417H176.369C183.892 1.14417 187.386 4.67142 188.427 5.98736C187.862 10.3375 186.853 14.3441 185.423 17.8993Z" fill="url(#paint1_radial_501_2166)"/>
<path fill-rule="evenodd" clip-rule="evenodd" d="M176.369 0H175.537C166.453 0 162.831 4.89512 162.296 5.67121C164.79 26.1482 175.894 32.0585 175.894 32.0585H176.012C176.012 32.0585 187.116 26.1482 189.61 5.67121C189.075 4.89512 185.454 0 176.369 0ZM185.423 17.8993C184.245 20.8313 182.779 23.4649 181.067 25.7305C178.884 28.6169 176.847 30.1605 175.953 30.758C175.061 30.1616 173.022 28.618 170.839 25.7305C169.127 23.4678 167.66 20.8342 166.483 17.9022C165.053 14.3469 164.042 10.3403 163.48 5.98736C164.521 4.67142 168.015 1.14417 175.537 1.14417H176.369C183.892 1.14417 187.386 4.67142 188.427 5.98736C187.862 10.3375 186.853 14.3441 185.423 17.8993Z" fill="url(#paint2_radial_501_2166)"/>
<path fill-rule="evenodd" clip-rule="evenodd" d="M176.369 0H175.537C166.453 0 162.831 4.89512 162.296 5.67121C164.79 26.1482 175.894 32.0585 175.894 32.0585H176.012C176.012 32.0585 187.116 26.1482 189.61 5.67121C189.075 4.89512 185.454 0 176.369 0ZM185.423 17.8993C184.245 20.8313 182.779 23.4649 181.067 25.7305C178.884 28.6169 176.847 30.1605 175.953 30.758C175.061 30.1616 173.022 28.618 170.839 25.7305C169.127 23.4678 167.66 20.8342 166.483 17.9022C165.053 14.3469 164.042 10.3403 163.48 5.98736C164.521 4.67142 168.015 1.14417 175.537 1.14417H176.369C183.892 1.14417 187.386 4.67142 188.427 5.98736C187.862 10.3375 186.853 14.3441 185.423 17.8993Z" fill="url(#paint3_radial_501_2166)"/>
<path fill-rule="evenodd" clip-rule="evenodd" d="M176.369 0H175.537C166.453 0 162.831 4.89512 162.296 5.67121C164.79 26.1482 175.894 32.0585 175.894 32.0585H176.012C176.012 32.0585 187.116 26.1482 189.61 5.67121C189.075 4.89512 185.454 0 176.369 0ZM185.423 17.8993C184.245 20.8313 182.779 23.4649 181.067 25.7305C178.884 28.6169 176.847 30.1605 175.953 30.758C175.061 30.1616 173.022 28.618 170.839 25.7305C169.127 23.4678 167.66 20.8342 166.483 17.9022C165.053 14.3469 164.042 10.3403 163.48 5.98736C164.521 4.67142 168.015 1.14417 175.537 1.14417H176.369C183.892 1.14417 187.386 4.67142 188.427 5.98736C187.862 10.3375 186.853 14.3441 185.423 17.8993Z" fill="url(#paint4_radial_501_2166)"/>
<path d="M182.541 24.9738C182.569 24.9944 182.589 25.023 182.599 25.0557C182.61 25.0885 182.609 25.1236 182.599 25.1562C182.588 25.1889 182.567 25.2173 182.54 25.2375C182.512 25.2577 182.479 25.2687 182.445 25.2689L179.72 25.2808C179.72 25.2808 178.915 25.3037 178.03 23.4205L180.437 21.1647C180.614 21.8041 180.834 22.4304 181.098 23.0387C181.544 24.0819 182.133 24.6674 182.541 24.9738ZM189.501 6.52042L180.839 15.2298L185.047 14.3436L173.639 27.1566H171.106L181.252 16.1246C181.252 16.1246 180.23 16.3569 179.575 16.4995L179.538 16.5366C179.594 16.8088 179.648 17.0947 179.701 17.3983L176.917 20.0536L176.276 20.6648H175.432L175.172 20.9261C175.222 20.9753 175.287 21.0052 175.357 21.0106H175.914L175.04 21.8443C174.947 21.6982 174.851 21.5333 174.756 21.3461L169.84 26.2886C169.106 25.3053 168.43 24.2804 167.813 23.2191L171.645 19.3665C171.554 19.2182 171.46 19.051 171.366 18.8626L166.828 19.9155L170.447 16.3974C169.875 14.4571 169.82 13.2251 169.401 11.4435C168.89 9.27784 168.414 8.1953 168.055 7.6235C167.811 7.23603 167.513 6.77893 167.103 6.47819C167.074 6.45807 167.053 6.42946 167.042 6.39647C167.031 6.36348 167.031 6.32783 167.041 6.29464C167.052 6.26145 167.072 6.23244 167.1 6.21179C167.128 6.19114 167.162 6.17991 167.196 6.17974H169.742C169.971 6.17974 170.194 6.2605 170.37 6.408C170.859 6.82414 171.253 7.34177 171.525 7.92538C171.624 8.13424 171.719 8.34653 171.812 8.5668H173.096C173.324 8.5842 173.542 8.67053 173.721 8.81447C174.21 9.23055 174.604 9.74819 174.876 10.3319C174.969 10.5276 175.058 10.7273 175.146 10.9333H176.068L179.378 7.71481L177.06 7.79071L182.295 4.81301L182.025 9.49241L180.89 8.16905L171.463 17.4183L171.952 17.3829C171.936 17.3449 171.92 17.3068 171.904 17.2688L173.206 16.2153L173.86 15.635C173.886 15.6796 173.922 15.7175 173.965 15.7456C174.008 15.7736 174.057 15.7911 174.108 15.7965H175.2L175.544 15.4512H174.068L175.146 14.4925H175.6C175.619 14.4944 175.637 14.4906 175.653 14.4817C175.669 14.4729 175.682 14.4593 175.69 14.4429C175.67 14.3801 175.651 14.3185 175.633 14.2586C175.6 14.221 175.559 14.1907 175.514 14.1695L176.028 13.713L177.916 12.0341C178.056 12.2391 178.18 12.4549 178.286 12.6795L178.29 12.6881L181.366 9.5957L182.239 10.4682L183.182 7.76959L187.475 3.45312C188.736 4.46034 189.405 5.37282 189.61 5.67185C189.575 5.95775 189.501 6.52042 189.501 6.52042ZM174.16 11.6238C174.205 11.621 174.249 11.6286 174.29 11.6461C174.246 11.5953 174.207 11.5411 174.16 11.4931H172.772C172.753 11.4927 172.735 11.4968 172.718 11.5051C172.723 11.5308 172.729 11.5571 172.735 11.5827C172.745 11.5987 172.758 11.6238 172.772 11.6238H174.16ZM172.472 10.4962C172.451 10.3376 172.43 10.2868 172.409 10.2714C172.43 10.3455 172.451 10.4197 172.472 10.4962ZM173.224 13.0779C173.202 13.0442 173.182 13.0111 173.167 12.9843C173.157 12.9629 173.15 12.9399 173.148 12.9164C173.146 12.9469 173.153 12.9773 173.167 13.0043C173.182 13.0314 173.202 13.0562 173.224 13.0779ZM174.116 12.8331H174.038L173.903 13.0408L174.116 12.8331ZM174.453 11.8401C174.439 11.8218 174.423 11.8059 174.408 11.7876C174.416 11.8036 174.424 11.8213 174.431 11.8401H174.453ZM172.38 10.1715C172.389 10.2017 172.398 10.2343 172.407 10.2657H174.148C174.198 10.2638 174.249 10.2754 174.293 10.2993C174.338 10.3231 174.375 10.3584 174.402 10.4015C174.41 10.4168 174.416 10.4331 174.419 10.45C174.427 10.4137 174.421 10.3759 174.402 10.3438C174.377 10.2966 174.34 10.2564 174.296 10.2265C174.252 10.1967 174.201 10.1782 174.148 10.1726L172.38 10.1715ZM171.957 8.92404C172.001 9.03817 172.044 9.15344 172.086 9.26986H173.285C173.36 9.26986 173.393 9.21564 173.375 9.14374C173.362 9.16542 173.331 9.1757 173.285 9.1757H172.086C172.051 9.1757 172.014 8.9851 171.978 8.92404H171.957Z" fill="#1D0D45"/>
<path fill-rule="evenodd" clip-rule="evenodd" d="M187.308 2.63291L183.482 6.48029L182.538 9.18122L181.666 8.30812L166.886 23.1658C166.804 23.2483 166.753 23.3566 166.741 23.4726C166.728 23.5886 166.756 23.7053 166.819 23.8032L168.253 26.0259C168.294 26.0896 168.349 26.1433 168.413 26.183C168.477 26.2227 168.55 26.2474 168.625 26.2554C168.7 26.2633 168.776 26.2542 168.847 26.2289C168.918 26.2035 168.982 26.1624 169.036 26.1087L190.199 4.83109C190.252 4.778 190.292 4.71383 190.318 4.64318C190.343 4.57253 190.352 4.49714 190.345 4.42243C190.338 4.34771 190.314 4.27551 190.276 4.211C190.238 4.14649 190.186 4.09127 190.124 4.04928L187.95 2.57071C187.853 2.50444 187.735 2.47439 187.618 2.48575C187.501 2.4971 187.392 2.54913 187.308 2.63291Z" fill="white"/>
<path fill-rule="evenodd" clip-rule="evenodd" d="M171.149 16.3421C170.18 13.6338 170.201 12.2904 169.7 10.1567C169.189 7.99166 168.713 6.90855 168.354 6.33732C168.11 5.94927 167.812 5.49218 167.402 5.19144C167.374 5.17147 167.353 5.14295 167.341 5.11001C167.33 5.07708 167.33 5.04143 167.34 5.00824C167.351 4.97506 167.371 4.94605 167.399 4.92543C167.427 4.90481 167.461 4.89365 167.495 4.89355H170.041C170.27 4.89352 170.493 4.97428 170.669 5.12182C171.159 5.5379 171.553 6.05554 171.824 6.6392C172.405 7.87125 172.886 9.23798 173.275 11.5708C173.416 12.4114 173.533 13.1208 173.66 13.7679L171.149 16.3421ZM176.08 18.9335C175.671 18.627 175.084 18.0415 174.637 16.9995C174.304 16.2321 174.039 15.4366 173.846 14.6222L171.339 16.8477C172.309 19.2679 173.26 19.2405 173.26 19.2405L175.985 19.2279C176.019 19.2277 176.052 19.2167 176.079 19.1965C176.107 19.1763 176.127 19.1478 176.138 19.1153C176.148 19.0827 176.148 19.0476 176.138 19.015C176.128 18.9824 176.107 18.9538 176.08 18.9335Z" fill="#262625"/>
<path fill-rule="evenodd" clip-rule="evenodd" d="M176.322 12.4249L175.811 12.8815C175.88 12.9125 175.937 12.9651 175.974 13.0315C176.023 13.1268 175.99 13.2027 175.899 13.2027H175.445L174.366 14.1609H176.122C176.175 14.1663 176.226 14.1848 176.27 14.2147C176.315 14.2445 176.351 14.2848 176.376 14.3321C176.426 14.4274 176.393 14.5033 176.302 14.5033H174.407C174.356 14.4978 174.307 14.4802 174.264 14.4521C174.221 14.4239 174.185 14.3859 174.159 14.3412L173.505 14.9216C173.704 16.0452 173.938 17.2042 174.547 18.8768C174.815 19.6147 175.086 20.1562 175.339 20.5528L176.213 19.7191H175.656C175.603 19.7135 175.552 19.695 175.508 19.6652C175.463 19.6354 175.427 19.5951 175.402 19.5479C175.352 19.4526 175.386 19.3767 175.477 19.3767H176.575L177.597 18.4026C177.135 17.0735 176.938 15.8506 176.626 13.9771C176.531 13.4048 176.43 12.8912 176.322 12.4249ZM174.344 15.6577C174.294 15.5624 174.327 15.4865 174.418 15.4865H176.313C176.366 15.4921 176.417 15.5107 176.461 15.5405C176.506 15.5703 176.542 15.6106 176.568 15.6577C176.617 15.753 176.583 15.8289 176.493 15.8289H174.6C174.547 15.8234 174.496 15.8049 174.451 15.775C174.407 15.7452 174.371 15.7049 174.345 15.6577H174.344ZM177.158 18.2445C177.208 18.3398 177.174 18.4157 177.083 18.4157H175.191C175.138 18.4102 175.087 18.3916 175.042 18.3618C174.998 18.332 174.962 18.2917 174.936 18.2445C174.886 18.1492 174.92 18.0733 175.011 18.0733H176.906C176.959 18.0789 177.01 18.0975 177.054 18.1273C177.098 18.1571 177.135 18.1974 177.16 18.2445H177.158ZM176.784 16.9212C176.834 17.0165 176.8 17.0924 176.709 17.0924H174.816C174.763 17.0867 174.712 17.0682 174.668 17.0384C174.623 17.0086 174.587 16.9683 174.562 16.9212C174.512 16.8253 174.546 16.75 174.637 16.75H176.531C176.584 16.7554 176.635 16.7738 176.68 16.8037C176.724 16.8335 176.76 16.8739 176.786 16.9212H176.784ZM170.753 7.59887C171.162 7.8996 171.461 8.3567 171.704 8.74418C172.064 9.31484 172.542 10.3991 173.051 12.5642C173.179 13.1086 173.273 13.6016 173.357 14.0793L174.212 13.2033H174.003C173.95 13.1978 173.899 13.1792 173.855 13.1494C173.811 13.1196 173.774 13.0793 173.749 13.0321C173.7 12.9368 173.733 12.8609 173.824 12.8609H174.549L175.494 11.8908H173.722C173.669 11.8854 173.618 11.867 173.574 11.8371C173.529 11.8073 173.493 11.7669 173.468 11.7196C173.418 11.6243 173.452 11.5484 173.542 11.5484H175.437C175.487 11.5535 175.534 11.5701 175.576 11.5968C175.619 11.6235 175.654 11.6597 175.68 11.7025L176.041 11.3321C175.815 10.5486 175.525 9.78514 175.175 9.04948C174.904 8.4639 174.51 7.94442 174.02 7.52696C173.841 7.38277 173.624 7.29641 173.395 7.2793H170.849C170.813 7.28176 170.779 7.29517 170.751 7.31773C170.722 7.34029 170.702 7.37094 170.691 7.40561C170.681 7.44029 170.681 7.47734 170.692 7.51186C170.703 7.54637 170.724 7.57672 170.753 7.59887ZM175.22 10.3803C175.269 10.4756 175.236 10.5515 175.145 10.5515H173.251C173.198 10.546 173.147 10.5275 173.102 10.4977C173.058 10.4678 173.022 10.4275 172.996 10.3803C172.946 10.285 172.98 10.2091 173.071 10.2091H174.965C175.018 10.2146 175.069 10.2331 175.114 10.2629C175.158 10.2927 175.195 10.333 175.22 10.3803ZM174.449 8.88228C174.502 8.88784 174.553 8.90634 174.597 8.93618C174.641 8.96602 174.678 9.00628 174.703 9.05348C174.752 9.14878 174.719 9.22467 174.628 9.22467H172.732C172.679 9.21911 172.628 9.20061 172.584 9.17077C172.539 9.14094 172.503 9.10067 172.478 9.05348C172.428 8.95818 172.462 8.88228 172.552 8.88228H174.449ZM171.512 7.63653H173.407C173.46 7.64209 173.511 7.66059 173.555 7.69043C173.599 7.72027 173.636 7.76053 173.661 7.80773C173.71 7.90303 173.677 7.97893 173.586 7.97893H171.69C171.637 7.97336 171.586 7.95486 171.541 7.92502C171.497 7.89519 171.461 7.85492 171.435 7.80773C171.384 7.71414 171.42 7.63653 171.51 7.63653H171.512Z" fill="#CCCB32"/>
<path fill-rule="evenodd" clip-rule="evenodd" d="M182.744 23.981L180.02 23.9936C180.02 23.9936 179.217 24.0187 178.331 22.1355L180.736 19.8814C180.913 20.5208 181.134 21.1469 181.398 21.7549C181.846 22.7969 182.432 23.3824 182.841 23.6883C182.867 23.7091 182.886 23.7376 182.896 23.7699C182.906 23.8022 182.905 23.8368 182.895 23.8688C182.884 23.9009 182.864 23.9289 182.837 23.9489C182.81 23.969 182.778 23.9802 182.744 23.981ZM174.165 9.94453C174.575 10.2453 174.874 10.7024 175.117 11.0898C175.27 11.3382 175.404 11.5976 175.519 11.8659L177.448 9.88747L177.433 9.87377C177.256 9.72627 177.034 9.64552 176.804 9.64551H174.256C174.222 9.64599 174.188 9.65749 174.161 9.67835C174.133 9.6992 174.113 9.72834 174.102 9.76157C174.092 9.7948 174.093 9.83042 174.104 9.86329C174.115 9.89617 174.137 9.92461 174.165 9.94453ZM178.588 11.3906C178.481 11.1659 178.358 10.9501 178.218 10.7452L175.879 12.8184C176.065 13.3708 176.261 14.0561 176.461 14.9098C176.795 16.3325 176.897 17.4048 177.216 18.7658L180 16.1111C179.618 13.9083 179.151 12.5861 178.585 11.3906H178.588Z" fill="#DB0812"/>
<path d="M181.138 13.9411L185.346 13.0548L173.938 25.8678H171.405L181.551 14.8364C181.551 14.8364 180.529 15.0687 179.874 15.2114L181.138 13.9411ZM177.359 6.50309L179.677 6.42776L167.127 18.629L171.668 17.5762C171.576 17.393 171.483 17.1898 171.39 16.9644L170.9 16.9998L181.188 6.87858L182.323 8.20194L182.593 3.52539L177.359 6.50309Z" fill="#FFDE00"/>
<g opacity="0.7">
<path fill-rule="evenodd" clip-rule="evenodd" d="M167.127 18.629L179.677 6.42776L177.446 6.47855L182.594 3.52539L182.569 3.96822L178.757 6.05741C178.745 6.06353 178.736 6.07334 178.731 6.08525C178.726 6.09715 178.725 6.11043 178.729 6.1229C178.732 6.13538 178.74 6.14631 178.75 6.1539C178.761 6.1615 178.773 6.1653 178.786 6.16469L180.205 6.10762C180.232 6.10643 180.259 6.1135 180.281 6.12789C180.304 6.14227 180.322 6.16328 180.332 6.1881C180.343 6.21293 180.345 6.24038 180.34 6.2668C180.335 6.29321 180.321 6.31731 180.302 6.33589L167.757 18.4829L167.127 18.629ZM171.899 25.8678L181.972 14.7879C181.998 14.7595 182.014 14.7235 182.019 14.6851C182.023 14.6468 182.015 14.608 181.996 14.5744C181.978 14.5408 181.949 14.5141 181.914 14.4981C181.879 14.4821 181.839 14.4777 181.802 14.4855L180.317 14.764L179.872 15.2114L181.549 14.8364L171.405 25.8678H171.899ZM167.402 5.19172C167.812 5.49245 168.111 5.94955 168.354 6.3376C168.713 6.90826 169.192 7.99251 169.7 10.157C169.749 10.363 169.792 10.5616 169.833 10.7551L169.835 10.7522C169.905 10.6877 169.956 10.6059 169.984 10.515C170.012 10.4241 170.016 10.3274 169.995 10.2346C169.984 10.1884 169.974 10.1422 169.963 10.0948C169.539 8.2904 169.074 6.97674 168.582 6.19265C168.355 5.83257 168.109 5.46221 167.792 5.16547H169.272C169.529 5.16614 169.777 5.07006 169.968 4.89611H167.493C167.459 4.89731 167.427 4.90906 167.4 4.92973C167.373 4.95039 167.353 4.97896 167.343 5.01146C167.333 5.04396 167.333 5.07877 167.344 5.11107C167.355 5.14338 167.375 5.17156 167.402 5.19172ZM173.395 7.27976C173.624 7.29687 173.841 7.38323 174.02 7.52742C174.509 7.94324 174.903 8.46071 175.175 9.04424C175.253 9.20973 175.329 9.37883 175.402 9.55155C175.299 9.55455 175.197 9.54536 175.097 9.52416C175.057 9.43343 175.016 9.34326 174.975 9.25367C174.966 9.27913 174.955 9.30361 174.941 9.32671C174.909 9.37939 174.864 9.42269 174.81 9.45226C174.618 9.39519 174.409 9.31473 174.195 9.22742H174.626C174.717 9.22742 174.75 9.14981 174.701 9.05622C174.675 9.00903 174.639 8.96876 174.595 8.93892C174.55 8.90909 174.5 8.89059 174.447 8.88502H173.39L173.285 8.8388H173.281C173.257 8.82755 173.237 8.80831 173.226 8.78428C173.214 8.76025 173.21 8.73287 173.216 8.70668C173.222 8.68049 173.236 8.65707 173.257 8.64031C173.278 8.62355 173.304 8.61445 173.331 8.61453H174.449C174.521 8.61569 174.592 8.63243 174.657 8.66361C174.459 8.35272 174.22 8.07016 173.946 7.8236C173.964 7.9133 173.948 8.00637 173.902 8.08496C173.868 8.13851 173.822 8.18243 173.766 8.21244C173.711 8.24244 173.649 8.25751 173.586 8.25616H173.011C172.93 8.25646 172.852 8.23043 172.788 8.18203C172.724 8.13363 172.677 8.06549 172.655 7.98795H173.585C173.676 7.98795 173.71 7.91034 173.66 7.81675C173.635 7.76955 173.599 7.72929 173.554 7.69945C173.51 7.66962 173.459 7.65111 173.406 7.64555H172.583C172.566 7.52749 172.555 7.40865 172.55 7.28946L173.395 7.27976ZM178.585 11.3885C179.096 12.4728 179.53 13.6603 179.891 15.5144H179.854C179.781 15.504 179.713 15.4709 179.66 15.4197C179.607 15.3684 179.571 15.3018 179.558 15.229C179.185 13.4389 178.756 12.3786 178.342 11.5049C178.285 11.3811 178.222 11.2635 178.157 11.1545L177.902 11.3828C177.879 11.4038 177.85 11.4169 177.818 11.4203C177.787 11.4237 177.756 11.4172 177.729 11.4018C177.702 11.3864 177.68 11.3627 177.667 11.3342C177.654 11.3058 177.65 11.2738 177.656 11.243V11.2396L178.215 10.7437C178.355 10.9491 178.479 11.1655 178.585 11.3908V11.3885ZM182.48 23.3724C182.411 23.4362 182.331 23.4858 182.243 23.5184C181.778 23.0392 181.407 22.4752 181.15 21.8567C180.95 21.3948 180.775 20.9228 180.624 20.4426C180.68 20.3545 180.752 20.2772 180.835 20.2143C180.993 20.736 181.181 21.2481 181.398 21.7483C181.725 22.5147 182.127 23.0322 182.48 23.3752V23.3724Z" fill="url(#paint5_radial_501_2166)"/>
<path fill-rule="evenodd" clip-rule="evenodd" d="M167.127 18.629L179.677 6.42776L177.446 6.47855L182.594 3.52539L182.569 3.96822L178.757 6.05741C178.745 6.06353 178.736 6.07334 178.731 6.08525C178.726 6.09715 178.725 6.11043 178.729 6.1229C178.732 6.13538 178.74 6.14631 178.75 6.1539C178.761 6.1615 178.773 6.1653 178.786 6.16469L180.205 6.10762C180.232 6.10643 180.259 6.1135 180.281 6.12789C180.304 6.14227 180.322 6.16328 180.332 6.1881C180.343 6.21293 180.345 6.24038 180.34 6.2668C180.335 6.29321 180.321 6.31731 180.302 6.33589L167.757 18.4829L167.127 18.629ZM171.899 25.8678L181.972 14.7879C181.998 14.7595 182.014 14.7235 182.019 14.6851C182.023 14.6468 182.015 14.608 181.996 14.5744C181.978 14.5408 181.949 14.5141 181.914 14.4981C181.879 14.4821 181.839 14.4777 181.802 14.4855L180.317 14.764L179.872 15.2114L181.549 14.8364L171.405 25.8678H171.899ZM167.402 5.19172C167.812 5.49245 168.111 5.94955 168.354 6.3376C168.713 6.90826 169.192 7.99251 169.7 10.157C169.749 10.363 169.792 10.5616 169.833 10.7551L169.835 10.7522C169.905 10.6877 169.956 10.6059 169.984 10.515C170.012 10.4241 170.016 10.3274 169.995 10.2346C169.984 10.1884 169.974 10.1422 169.963 10.0948C169.539 8.2904 169.074 6.97674 168.582 6.19265C168.355 5.83257 168.109 5.46221 167.792 5.16547H169.272C169.529 5.16614 169.777 5.07006 169.968 4.89611H167.493C167.459 4.89731 167.427 4.90906 167.4 4.92973C167.373 4.95039 167.353 4.97896 167.343 5.01146C167.333 5.04396 167.333 5.07877 167.344 5.11107C167.355 5.14338 167.375 5.17156 167.402 5.19172ZM173.395 7.27976C173.624 7.29687 173.841 7.38323 174.02 7.52742C174.509 7.94324 174.903 8.46071 175.175 9.04424C175.253 9.20973 175.329 9.37883 175.402 9.55155C175.299 9.55455 175.197 9.54536 175.097 9.52416C175.057 9.43343 175.016 9.34326 174.975 9.25367C174.966 9.27913 174.955 9.30361 174.941 9.32671C174.909 9.37939 174.864 9.42269 174.81 9.45226C174.618 9.39519 174.409 9.31473 174.195 9.22742H174.626C174.717 9.22742 174.75 9.14981 174.701 9.05622C174.675 9.00903 174.639 8.96876 174.595 8.93892C174.55 8.90909 174.5 8.89059 174.447 8.88502H173.39L173.285 8.8388H173.281C173.257 8.82755 173.237 8.80831 173.226 8.78428C173.214 8.76025 173.21 8.73287 173.216 8.70668C173.222 8.68049 173.236 8.65707 173.257 8.64031C173.278 8.62355 173.304 8.61445 173.331 8.61453H174.449C174.521 8.61569 174.592 8.63243 174.657 8.66361C174.459 8.35272 174.22 8.07016 173.946 7.8236C173.964 7.9133 173.948 8.00637 173.902 8.08496C173.868 8.13851 173.822 8.18243 173.766 8.21244C173.711 8.24244 173.649 8.25751 173.586 8.25616H173.011C172.93 8.25646 172.852 8.23043 172.788 8.18203C172.724 8.13363 172.677 8.06549 172.655 7.98795H173.585C173.676 7.98795 173.71 7.91034 173.66 7.81675C173.635 7.76955 173.599 7.72929 173.554 7.69945C173.51 7.66962 173.459 7.65111 173.406 7.64555H172.583C172.566 7.52749 172.555 7.40865 172.55 7.28946L173.395 7.27976ZM178.585 11.3885C179.096 12.4728 179.53 13.6603 179.891 15.5144H179.854C179.781 15.504 179.713 15.4709 179.66 15.4197C179.607 15.3684 179.571 15.3018 179.558 15.229C179.185 13.4389 178.756 12.3786 178.342 11.5049C178.285 11.3811 178.222 11.2635 178.157 11.1545L177.902 11.3828C177.879 11.4038 177.85 11.4169 177.818 11.4203C177.787 11.4237 177.756 11.4172 177.729 11.4018C177.702 11.3864 177.68 11.3627 177.667 11.3342C177.654 11.3058 177.65 11.2738 177.656 11.243V11.2396L178.215 10.7437C178.355 10.9491 178.479 11.1655 178.585 11.3908V11.3885ZM182.48 23.3724C182.411 23.4362 182.331 23.4858 182.243 23.5184C181.778 23.0392 181.407 22.4752 181.15 21.8567C180.95 21.3948 180.775 20.9228 180.624 20.4426C180.68 20.3545 180.752 20.2772 180.835 20.2143C180.993 20.736 181.181 21.2481 181.398 21.7483C181.725 22.5147 182.127 23.0322 182.48 23.3752V23.3724Z" fill="url(#paint6_radial_501_2166)"/>
<path fill-rule="evenodd" clip-rule="evenodd" d="M167.127 18.629L179.677 6.42776L177.446 6.47855L182.594 3.52539L182.569 3.96822L178.757 6.05741C178.745 6.06353 178.736 6.07334 178.731 6.08525C178.726 6.09715 178.725 6.11043 178.729 6.1229C178.732 6.13538 178.74 6.14631 178.75 6.1539C178.761 6.1615 178.773 6.1653 178.786 6.16469L180.205 6.10762C180.232 6.10643 180.259 6.1135 180.281 6.12789C180.304 6.14227 180.322 6.16328 180.332 6.1881C180.343 6.21293 180.345 6.24038 180.34 6.2668C180.335 6.29321 180.321 6.31731 180.302 6.33589L167.757 18.4829L167.127 18.629ZM171.899 25.8678L181.972 14.7879C181.998 14.7595 182.014 14.7235 182.019 14.6851C182.023 14.6468 182.015 14.608 181.996 14.5744C181.978 14.5408 181.949 14.5141 181.914 14.4981C181.879 14.4821 181.839 14.4777 181.802 14.4855L180.317 14.764L179.872 15.2114L181.549 14.8364L171.405 25.8678H171.899ZM167.402 5.19172C167.812 5.49245 168.111 5.94955 168.354 6.3376C168.713 6.90826 169.192 7.99251 169.7 10.157C169.749 10.363 169.792 10.5616 169.833 10.7551L169.835 10.7522C169.905 10.6877 169.956 10.6059 169.984 10.515C170.012 10.4241 170.016 10.3274 169.995 10.2346C169.984 10.1884 169.974 10.1422 169.963 10.0948C169.539 8.2904 169.074 6.97674 168.582 6.19265C168.355 5.83257 168.109 5.46221 167.792 5.16547H169.272C169.529 5.16614 169.777 5.07006 169.968 4.89611H167.493C167.459 4.89731 167.427 4.90906 167.4 4.92973C167.373 4.95039 167.353 4.97896 167.343 5.01146C167.333 5.04396 167.333 5.07877 167.344 5.11107C167.355 5.14338 167.375 5.17156 167.402 5.19172ZM173.395 7.27976C173.624 7.29687 173.841 7.38323 174.02 7.52742C174.509 7.94324 174.903 8.46071 175.175 9.04424C175.253 9.20973 175.329 9.37883 175.402 9.55155C175.299 9.55455 175.197 9.54536 175.097 9.52416C175.057 9.43343 175.016 9.34326 174.975 9.25367C174.966 9.27913 174.955 9.30361 174.941 9.32671C174.909 9.37939 174.864 9.42269 174.81 9.45226C174.618 9.39519 174.409 9.31473 174.195 9.22742H174.626C174.717 9.22742 174.75 9.14981 174.701 9.05622C174.675 9.00903 174.639 8.96876 174.595 8.93892C174.55 8.90909 174.5 8.89059 174.447 8.88502H173.39L173.285 8.8388H173.281C173.257 8.82755 173.237 8.80831 173.226 8.78428C173.214 8.76025 173.21 8.73287 173.216 8.70668C173.222 8.68049 173.236 8.65707 173.257 8.64031C173.278 8.62355 173.304 8.61445 173.331 8.61453H174.449C174.521 8.61569 174.592 8.63243 174.657 8.66361C174.459 8.35272 174.22 8.07016 173.946 7.8236C173.964 7.9133 173.948 8.00637 173.902 8.08496C173.868 8.13851 173.822 8.18243 173.766 8.21244C173.711 8.24244 173.649 8.25751 173.586 8.25616H173.011C172.93 8.25646 172.852 8.23043 172.788 8.18203C172.724 8.13363 172.677 8.06549 172.655 7.98795H173.585C173.676 7.98795 173.71 7.91034 173.66 7.81675C173.635 7.76955 173.599 7.72929 173.554 7.69945C173.51 7.66962 173.459 7.65111 173.406 7.64555H172.583C172.566 7.52749 172.555 7.40865 172.55 7.28946L173.395 7.27976ZM178.585 11.3885C179.096 12.4728 179.53 13.6603 179.891 15.5144H179.854C179.781 15.504 179.713 15.4709 179.66 15.4197C179.607 15.3684 179.571 15.3018 179.558 15.229C179.185 13.4389 178.756 12.3786 178.342 11.5049C178.285 11.3811 178.222 11.2635 178.157 11.1545L177.902 11.3828C177.879 11.4038 177.85 11.4169 177.818 11.4203C177.787 11.4237 177.756 11.4172 177.729 11.4018C177.702 11.3864 177.68 11.3627 177.667 11.3342C177.654 11.3058 177.65 11.2738 177.656 11.243V11.2396L178.215 10.7437C178.355 10.9491 178.479 11.1655 178.585 11.3908V11.3885ZM182.48 23.3724C182.411 23.4362 182.331 23.4858 182.243 23.5184C181.778 23.0392 181.407 22.4752 181.15 21.8567C180.95 21.3948 180.775 20.9228 180.624 20.4426C180.68 20.3545 180.752 20.2772 180.835 20.2143C180.993 20.736 181.181 21.2481 181.398 21.7483C181.725 22.5147 182.127 23.0322 182.48 23.3752V23.3724Z" fill="url(#paint7_radial_501_2166)"/>
<path fill-rule="evenodd" clip-rule="evenodd" d="M167.127 18.629L179.677 6.42776L177.446 6.47855L182.594 3.52539L182.569 3.96822L178.757 6.05741C178.745 6.06353 178.736 6.07334 178.731 6.08525C178.726 6.09715 178.725 6.11043 178.729 6.1229C178.732 6.13538 178.74 6.14631 178.75 6.1539C178.761 6.1615 178.773 6.1653 178.786 6.16469L180.205 6.10762C180.232 6.10643 180.259 6.1135 180.281 6.12789C180.304 6.14227 180.322 6.16328 180.332 6.1881C180.343 6.21293 180.345 6.24038 180.34 6.2668C180.335 6.29321 180.321 6.31731 180.302 6.33589L167.757 18.4829L167.127 18.629ZM171.899 25.8678L181.972 14.7879C181.998 14.7595 182.014 14.7235 182.019 14.6851C182.023 14.6468 182.015 14.608 181.996 14.5744C181.978 14.5408 181.949 14.5141 181.914 14.4981C181.879 14.4821 181.839 14.4777 181.802 14.4855L180.317 14.764L179.872 15.2114L181.549 14.8364L171.405 25.8678H171.899ZM167.402 5.19172C167.812 5.49245 168.111 5.94955 168.354 6.3376C168.713 6.90826 169.192 7.99251 169.7 10.157C169.749 10.363 169.792 10.5616 169.833 10.7551L169.835 10.7522C169.905 10.6877 169.956 10.6059 169.984 10.515C170.012 10.4241 170.016 10.3274 169.995 10.2346C169.984 10.1884 169.974 10.1422 169.963 10.0948C169.539 8.2904 169.074 6.97674 168.582 6.19265C168.355 5.83257 168.109 5.46221 167.792 5.16547H169.272C169.529 5.16614 169.777 5.07006 169.968 4.89611H167.493C167.459 4.89731 167.427 4.90906 167.4 4.92973C167.373 4.95039 167.353 4.97896 167.343 5.01146C167.333 5.04396 167.333 5.07877 167.344 5.11107C167.355 5.14338 167.375 5.17156 167.402 5.19172ZM173.395 7.27976C173.624 7.29687 173.841 7.38323 174.02 7.52742C174.509 7.94324 174.903 8.46071 175.175 9.04424C175.253 9.20973 175.329 9.37883 175.402 9.55155C175.299 9.55455 175.197 9.54536 175.097 9.52416C175.057 9.43343 175.016 9.34326 174.975 9.25367C174.966 9.27913 174.955 9.30361 174.941 9.32671C174.909 9.37939 174.864 9.42269 174.81 9.45226C174.618 9.39519 174.409 9.31473 174.195 9.22742H174.626C174.717 9.22742 174.75 9.14981 174.701 9.05622C174.675 9.00903 174.639 8.96876 174.595 8.93892C174.55 8.90909 174.5 8.89059 174.447 8.88502H173.39L173.285 8.8388H173.281C173.257 8.82755 173.237 8.80831 173.226 8.78428C173.214 8.76025 173.21 8.73287 173.216 8.70668C173.222 8.68049 173.236 8.65707 173.257 8.64031C173.278 8.62355 173.304 8.61445 173.331 8.61453H174.449C174.521 8.61569 174.592 8.63243 174.657 8.66361C174.459 8.35272 174.22 8.07016 173.946 7.8236C173.964 7.9133 173.948 8.00637 173.902 8.08496C173.868 8.13851 173.822 8.18243 173.766 8.21244C173.711 8.24244 173.649 8.25751 173.586 8.25616H173.011C172.93 8.25646 172.852 8.23043 172.788 8.18203C172.724 8.13363 172.677 8.06549 172.655 7.98795H173.585C173.676 7.98795 173.71 7.91034 173.66 7.81675C173.635 7.76955 173.599 7.72929 173.554 7.69945C173.51 7.66962 173.459 7.65111 173.406 7.64555H172.583C172.566 7.52749 172.555 7.40865 172.55 7.28946L173.395 7.27976ZM178.585 11.3885C179.096 12.4728 179.53 13.6603 179.891 15.5144H179.854C179.781 15.504 179.713 15.4709 179.66 15.4197C179.607 15.3684 179.571 15.3018 179.558 15.229C179.185 13.4389 178.756 12.3786 178.342 11.5049C178.285 11.3811 178.222 11.2635 178.157 11.1545L177.902 11.3828C177.879 11.4038 177.85 11.4169 177.818 11.4203C177.787 11.4237 177.756 11.4172 177.729 11.4018C177.702 11.3864 177.68 11.3627 177.667 11.3342C177.654 11.3058 177.65 11.2738 177.656 11.243V11.2396L178.215 10.7437C178.355 10.9491 178.479 11.1655 178.585 11.3908V11.3885ZM182.48 23.3724C182.411 23.4362 182.331 23.4858 182.243 23.5184C181.778 23.0392 181.407 22.4752 181.15 21.8567C180.95 21.3948 180.775 20.9228 180.624 20.4426C180.68 20.3545 180.752 20.2772 180.835 20.2143C180.993 20.736 181.181 21.2481 181.398 21.7483C181.725 22.5147 182.127 23.0322 182.48 23.3752V23.3724Z" fill="url(#paint8_radial_501_2166)"/>
<path fill-rule="evenodd" clip-rule="evenodd" d="M167.127 18.629L179.677 6.42776L177.446 6.47855L182.594 3.52539L182.569 3.96822L178.757 6.05741C178.745 6.06353 178.736 6.07334 178.731 6.08525C178.726 6.09715 178.725 6.11043 178.729 6.1229C178.732 6.13538 178.74 6.14631 178.75 6.1539C178.761 6.1615 178.773 6.1653 178.786 6.16469L180.205 6.10762C180.232 6.10643 180.259 6.1135 180.281 6.12789C180.304 6.14227 180.322 6.16328 180.332 6.1881C180.343 6.21293 180.345 6.24038 180.34 6.2668C180.335 6.29321 180.321 6.31731 180.302 6.33589L167.757 18.4829L167.127 18.629ZM171.899 25.8678L181.972 14.7879C181.998 14.7595 182.014 14.7235 182.019 14.6851C182.023 14.6468 182.015 14.608 181.996 14.5744C181.978 14.5408 181.949 14.5141 181.914 14.4981C181.879 14.4821 181.839 14.4777 181.802 14.4855L180.317 14.764L179.872 15.2114L181.549 14.8364L171.405 25.8678H171.899ZM167.402 5.19172C167.812 5.49245 168.111 5.94955 168.354 6.3376C168.713 6.90826 169.192 7.99251 169.7 10.157C169.749 10.363 169.792 10.5616 169.833 10.7551L169.835 10.7522C169.905 10.6877 169.956 10.6059 169.984 10.515C170.012 10.4241 170.016 10.3274 169.995 10.2346C169.984 10.1884 169.974 10.1422 169.963 10.0948C169.539 8.2904 169.074 6.97674 168.582 6.19265C168.355 5.83257 168.109 5.46221 167.792 5.16547H169.272C169.529 5.16614 169.777 5.07006 169.968 4.89611H167.493C167.459 4.89731 167.427 4.90906 167.4 4.92973C167.373 4.95039 167.353 4.97896 167.343 5.01146C167.333 5.04396 167.333 5.07877 167.344 5.11107C167.355 5.14338 167.375 5.17156 167.402 5.19172ZM173.395 7.27976C173.624 7.29687 173.841 7.38323 174.02 7.52742C174.509 7.94324 174.903 8.46071 175.175 9.04424C175.253 9.20973 175.329 9.37883 175.402 9.55155C175.299 9.55455 175.197 9.54536 175.097 9.52416C175.057 9.43343 175.016 9.34326 174.975 9.25367C174.966 9.27913 174.955 9.30361 174.941 9.32671C174.909 9.37939 174.864 9.42269 174.81 9.45226C174.618 9.39519 174.409 9.31473 174.195 9.22742H174.626C174.717 9.22742 174.75 9.14981 174.701 9.05622C174.675 9.00903 174.639 8.96876 174.595 8.93892C174.55 8.90909 174.5 8.89059 174.447 8.88502H173.39L173.285 8.8388H173.281C173.257 8.82755 173.237 8.80831 173.226 8.78428C173.214 8.76025 173.21 8.73287 173.216 8.70668C173.222 8.68049 173.236 8.65707 173.257 8.64031C173.278 8.62355 173.304 8.61445 173.331 8.61453H174.449C174.521 8.61569 174.592 8.63243 174.657 8.66361C174.459 8.35272 174.22 8.07016 173.946 7.8236C173.964 7.9133 173.948 8.00637 173.902 8.08496C173.868 8.13851 173.822 8.18243 173.766 8.21244C173.711 8.24244 173.649 8.25751 173.586 8.25616H173.011C172.93 8.25646 172.852 8.23043 172.788 8.18203C172.724 8.13363 172.677 8.06549 172.655 7.98795H173.585C173.676 7.98795 173.71 7.91034 173.66 7.81675C173.635 7.76955 173.599 7.72929 173.554 7.69945C173.51 7.66962 173.459 7.65111 173.406 7.64555H172.583C172.566 7.52749 172.555 7.40865 172.55 7.28946L173.395 7.27976ZM178.585 11.3885C179.096 12.4728 179.53 13.6603 179.891 15.5144H179.854C179.781 15.504 179.713 15.4709 179.66 15.4197C179.607 15.3684 179.571 15.3018 179.558 15.229C179.185 13.4389 178.756 12.3786 178.342 11.5049C178.285 11.3811 178.222 11.2635 178.157 11.1545L177.902 11.3828C177.879 11.4038 177.85 11.4169 177.818 11.4203C177.787 11.4237 177.756 11.4172 177.729 11.4018C177.702 11.3864 177.68 11.3627 177.667 11.3342C177.654 11.3058 177.65 11.2738 177.656 11.243V11.2396L178.215 10.7437C178.355 10.9491 178.479 11.1655 178.585 11.3908V11.3885ZM182.48 23.3724C182.411 23.4362 182.331 23.4858 182.243 23.5184C181.778 23.0392 181.407 22.4752 181.15 21.8567C180.95 21.3948 180.775 20.9228 180.624 20.4426C180.68 20.3545 180.752 20.2772 180.835 20.2143C180.993 20.736 181.181 21.2481 181.398 21.7483C181.725 22.5147 182.127 23.0322 182.48 23.3752V23.3724Z" fill="url(#paint9_radial_501_2166)"/>
<path fill-rule="evenodd" clip-rule="evenodd" d="M167.127 18.629L179.677 6.42776L177.446 6.47855L182.594 3.52539L182.569 3.96822L178.757 6.05741C178.745 6.06353 178.736 6.07334 178.731 6.08525C178.726 6.09715 178.725 6.11043 178.729 6.1229C178.732 6.13538 178.74 6.14631 178.75 6.1539C178.761 6.1615 178.773 6.1653 178.786 6.16469L180.205 6.10762C180.232 6.10643 180.259 6.1135 180.281 6.12789C180.304 6.14227 180.322 6.16328 180.332 6.1881C180.343 6.21293 180.345 6.24038 180.34 6.2668C180.335 6.29321 180.321 6.31731 180.302 6.33589L167.757 18.4829L167.127 18.629ZM171.899 25.8678L181.972 14.7879C181.998 14.7595 182.014 14.7235 182.019 14.6851C182.023 14.6468 182.015 14.608 181.996 14.5744C181.978 14.5408 181.949 14.5141 181.914 14.4981C181.879 14.4821 181.839 14.4777 181.802 14.4855L180.317 14.764L179.872 15.2114L181.549 14.8364L171.405 25.8678H171.899ZM167.402 5.19172C167.812 5.49245 168.111 5.94955 168.354 6.3376C168.713 6.90826 169.192 7.99251 169.7 10.157C169.749 10.363 169.792 10.5616 169.833 10.7551L169.835 10.7522C169.905 10.6877 169.956 10.6059 169.984 10.515C170.012 10.4241 170.016 10.3274 169.995 10.2346C169.984 10.1884 169.974 10.1422 169.963 10.0948C169.539 8.2904 169.074 6.97674 168.582 6.19265C168.355 5.83257 168.109 5.46221 167.792 5.16547H169.272C169.529 5.16614 169.777 5.07006 169.968 4.89611H167.493C167.459 4.89731 167.427 4.90906 167.4 4.92973C167.373 4.95039 167.353 4.97896 167.343 5.01146C167.333 5.04396 167.333 5.07877 167.344 5.11107C167.355 5.14338 167.375 5.17156 167.402 5.19172ZM173.395 7.27976C173.624 7.29687 173.841 7.38323 174.02 7.52742C174.509 7.94324 174.903 8.46071 175.175 9.04424C175.253 9.20973 175.329 9.37883 175.402 9.55155C175.299 9.55455 175.197 9.54536 175.097 9.52416C175.057 9.43343 175.016 9.34326 174.975 9.25367C174.966 9.27913 174.955 9.30361 174.941 9.32671C174.909 9.37939 174.864 9.42269 174.81 9.45226C174.618 9.39519 174.409 9.31473 174.195 9.22742H174.626C174.717 9.22742 174.75 9.14981 174.701 9.05622C174.675 9.00903 174.639 8.96876 174.595 8.93892C174.55 8.90909 174.5 8.89059 174.447 8.88502H173.39L173.285 8.8388H173.281C173.257 8.82755 173.237 8.80831 173.226 8.78428C173.214 8.76025 173.21 8.73287 173.216 8.70668C173.222 8.68049 173.236 8.65707 173.257 8.64031C173.278 8.62355 173.304 8.61445 173.331 8.61453H174.449C174.521 8.61569 174.592 8.63243 174.657 8.66361C174.459 8.35272 174.22 8.07016 173.946 7.8236C173.964 7.9133 173.948 8.00637 173.902 8.08496C173.868 8.13851 173.822 8.18243 173.766 8.21244C173.711 8.24244 173.649 8.25751 173.586 8.25616H173.011C172.93 8.25646 172.852 8.23043 172.788 8.18203C172.724 8.13363 172.677 8.06549 172.655 7.98795H173.585C173.676 7.98795 173.71 7.91034 173.66 7.81675C173.635 7.76955 173.599 7.72929 173.554 7.69945C173.51 7.66962 173.459 7.65111 173.406 7.64555H172.583C172.566 7.52749 172.555 7.40865 172.55 7.28946L173.395 7.27976ZM178.585 11.3885C179.096 12.4728 179.53 13.6603 179.891 15.5144H179.854C179.781 15.504 179.713 15.4709 179.66 15.4197C179.607 15.3684 179.571 15.3018 179.558 15.229C179.185 13.4389 178.756 12.3786 178.342 11.5049C178.285 11.3811 178.222 11.2635 178.157 11.1545L177.902 11.3828C177.879 11.4038 177.85 11.4169 177.818 11.4203C177.787 11.4237 177.756 11.4172 177.729 11.4018C177.702 11.3864 177.68 11.3627 177.667 11.3342C177.654 11.3058 177.65 11.2738 177.656 11.243V11.2396L178.215 10.7437C178.355 10.9491 178.479 11.1655 178.585 11.3908V11.3885ZM182.48 23.3724C182.411 23.4362 182.331 23.4858 182.243 23.5184C181.778 23.0392 181.407 22.4752 181.15 21.8567C180.95 21.3948 180.775 20.9228 180.624 20.4426C180.68 20.3545 180.752 20.2772 180.835 20.2143C180.993 20.736 181.181 21.2481 181.398 21.7483C181.725 22.5147 182.127 23.0322 182.48 23.3752V23.3724Z" fill="url(#paint10_radial_501_2166)"/>
<path fill-rule="evenodd" clip-rule="evenodd" d="M167.127 18.629L179.677 6.42776L177.446 6.47855L182.594 3.52539L182.569 3.96822L178.757 6.05741C178.745 6.06353 178.736 6.07334 178.731 6.08525C178.726 6.09715 178.725 6.11043 178.729 6.1229C178.732 6.13538 178.74 6.14631 178.75 6.1539C178.761 6.1615 178.773 6.1653 178.786 6.16469L180.205 6.10762C180.232 6.10643 180.259 6.1135 180.281 6.12789C180.304 6.14227 180.322 6.16328 180.332 6.1881C180.343 6.21293 180.345 6.24038 180.34 6.2668C180.335 6.29321 180.321 6.31731 180.302 6.33589L167.757 18.4829L167.127 18.629ZM171.899 25.8678L181.972 14.7879C181.998 14.7595 182.014 14.7235 182.019 14.6851C182.023 14.6468 182.015 14.608 181.996 14.5744C181.978 14.5408 181.949 14.5141 181.914 14.4981C181.879 14.4821 181.839 14.4777 181.802 14.4855L180.317 14.764L179.872 15.2114L181.549 14.8364L171.405 25.8678H171.899ZM167.402 5.19172C167.812 5.49245 168.111 5.94955 168.354 6.3376C168.713 6.90826 169.192 7.99251 169.7 10.157C169.749 10.363 169.792 10.5616 169.833 10.7551L169.835 10.7522C169.905 10.6877 169.956 10.6059 169.984 10.515C170.012 10.4241 170.016 10.3274 169.995 10.2346C169.984 10.1884 169.974 10.1422 169.963 10.0948C169.539 8.2904 169.074 6.97674 168.582 6.19265C168.355 5.83257 168.109 5.46221 167.792 5.16547H169.272C169.529 5.16614 169.777 5.07006 169.968 4.89611H167.493C167.459 4.89731 167.427 4.90906 167.4 4.92973C167.373 4.95039 167.353 4.97896 167.343 5.01146C167.333 5.04396 167.333 5.07877 167.344 5.11107C167.355 5.14338 167.375 5.17156 167.402 5.19172ZM173.395 7.27976C173.624 7.29687 173.841 7.38323 174.02 7.52742C174.509 7.94324 174.903 8.46071 175.175 9.04424C175.253 9.20973 175.329 9.37883 175.402 9.55155C175.299 9.55455 175.197 9.54536 175.097 9.52416C175.057 9.43343 175.016 9.34326 174.975 9.25367C174.966 9.27913 174.955 9.30361 174.941 9.32671C174.909 9.37939 174.864 9.42269 174.81 9.45226C174.618 9.39519 174.409 9.31473 174.195 9.22742H174.626C174.717 9.22742 174.75 9.14981 174.701 9.05622C174.675 9.00903 174.639 8.96876 174.595 8.93892C174.55 8.90909 174.5 8.89059 174.447 8.88502H173.39L173.285 8.8388H173.281C173.257 8.82755 173.237 8.80831 173.226 8.78428C173.214 8.76025 173.21 8.73287 173.216 8.70668C173.222 8.68049 173.236 8.65707 173.257 8.64031C173.278 8.62355 173.304 8.61445 173.331 8.61453H174.449C174.521 8.61569 174.592 8.63243 174.657 8.66361C174.459 8.35272 174.22 8.07016 173.946 7.8236C173.964 7.9133 173.948 8.00637 173.902 8.08496C173.868 8.13851 173.822 8.18243 173.766 8.21244C173.711 8.24244 173.649 8.25751 173.586 8.25616H173.011C172.93 8.25646 172.852 8.23043 172.788 8.18203C172.724 8.13363 172.677 8.06549 172.655 7.98795H173.585C173.676 7.98795 173.71 7.91034 173.66 7.81675C173.635 7.76955 173.599 7.72929 173.554 7.69945C173.51 7.66962 173.459 7.65111 173.406 7.64555H172.583C172.566 7.52749 172.555 7.40865 172.55 7.28946L173.395 7.27976ZM178.585 11.3885C179.096 12.4728 179.53 13.6603 179.891 15.5144H179.854C179.781 15.504 179.713 15.4709 179.66 15.4197C179.607 15.3684 179.571 15.3018 179.558 15.229C179.185 13.4389 178.756 12.3786 178.342 11.5049C178.285 11.3811 178.222 11.2635 178.157 11.1545L177.902 11.3828C177.879 11.4038 177.85 11.4169 177.818 11.4203C177.787 11.4237 177.756 11.4172 177.729 11.4018C177.702 11.3864 177.68 11.3627 177.667 11.3342C177.654 11.3058 177.65 11.2738 177.656 11.243V11.2396L178.215 10.7437C178.355 10.9491 178.479 11.1655 178.585 11.3908V11.3885ZM182.48 23.3724C182.411 23.4362 182.331 23.4858 182.243 23.5184C181.778 23.0392 181.407 22.4752 181.15 21.8567C180.95 21.3948 180.775 20.9228 180.624 20.4426C180.68 20.3545 180.752 20.2772 180.835 20.2143C180.993 20.736 181.181 21.2481 181.398 21.7483C181.725 22.5147 182.127 23.0322 182.48 23.3752V23.3724Z" fill="url(#paint11_radial_501_2166)"/>
</g>
<path d="M2.19983 17.1202C2.19983 15.9438 2.35636 14.8607 2.66943 13.8709C2.98567 12.8811 3.46792 11.964 4.1162 11.1197H6.04681C5.80015 11.4328 5.57088 11.8154 5.359 12.2676C5.14712 12.7167 4.96213 13.21 4.80401 13.7476C4.64589 14.2852 4.52256 14.8418 4.43402 15.4173C4.34547 15.9897 4.3012 16.5573 4.3012 17.1202C4.3012 17.8697 4.37709 18.6271 4.52889 19.3924C4.68384 20.1545 4.89256 20.8629 5.15503 21.5175C5.42067 22.1721 5.71792 22.7081 6.04681 23.1255H4.1162C3.46792 22.2812 2.98567 21.3641 2.66943 20.3743C2.35636 19.3845 2.19983 18.2998 2.19983 17.1202ZM14.4944 19.4362V21.0146H6.94807V19.4362H11.8659V16.5534C11.8659 15.7924 11.7224 15.2598 11.4354 14.9554C11.1528 14.651 10.668 14.4989 9.98095 14.4989H7.25462V12.9205H10.007C11.2767 12.9205 12.1964 13.1857 12.766 13.7162C13.3399 14.2467 13.6269 15.1163 13.6269 16.3251V19.4362H14.4944ZM17.4704 11.3V12.3245C17.4704 12.6155 17.4134 12.9127 17.2996 13.2163C17.1889 13.5167 17.0403 13.8014 16.8537 14.0702C16.6671 14.3358 16.4631 14.5619 16.2418 14.7485L15.35 14.2219C15.5081 13.9721 15.6473 13.6954 15.7674 13.3918C15.8908 13.0883 15.9524 12.7357 15.9524 12.334V11.3H17.4704ZM19.8563 11.3V12.3245C19.8563 12.6155 19.7994 12.9127 19.6856 13.2163C19.5749 13.5167 19.4263 13.8014 19.2397 14.0702C19.0531 14.3358 18.8476 14.5619 18.623 14.7485L17.7312 14.2219C17.8925 13.9721 18.0332 13.6954 18.1534 13.3918C18.2767 13.0883 18.3384 12.7357 18.3384 12.334V11.3H19.8563ZM23.4887 12.9205V21.0146H21.7276V12.9205H23.4887ZM32.0525 19.8798V21.0146H25.2106V19.4362H29.5936L24.6888 12.9205H26.802L29.274 16.2729C29.561 16.1338 29.7675 15.9251 29.8936 15.6468C30.024 15.3685 30.1154 14.9619 30.1675 14.4271L30.311 12.9205H32.1177L31.9807 14.4402C31.9242 15.0402 31.8285 15.5098 31.6938 15.849C31.559 16.1794 31.3655 16.4599 31.1133 16.6904C30.8611 16.9208 30.5154 17.1252 30.0762 17.3034L32.0525 19.8798ZM38.2161 12.8813C39.3249 12.8813 40.1315 13.2074 40.6359 13.8597C41.1402 14.5075 41.3924 15.5207 41.3924 16.8991V21.0146H37.1855V19.4362H39.6184V17.036C39.6184 16.1186 39.5075 15.462 39.2857 15.0663C39.0683 14.6663 38.6835 14.4662 38.1313 14.4662C37.6225 14.4662 37.1942 14.7206 36.8464 15.2294C36.4985 15.7511 36.1746 16.6208 35.8746 17.8383L35.0854 21.0146H33.2069L34.0874 17.6361C34.1961 17.2274 34.3005 16.8621 34.4005 16.5403C34.5049 16.2186 34.6049 15.9425 34.7005 15.712L33.083 13.0118H35.0332L35.6463 14.1597C35.9072 13.7597 36.2637 13.4466 36.7159 13.2205C37.1725 12.9944 37.6725 12.8813 38.2161 12.8813ZM46.6809 17.1202C46.6809 18.2998 46.5227 19.3845 46.2065 20.3743C45.8934 21.3641 45.4128 22.2812 44.7645 23.1255H42.8339C43.0805 22.8124 43.3098 22.4298 43.5217 21.9776C43.7336 21.5254 43.9186 21.032 44.0767 20.4976C44.2348 19.96 44.3581 19.4034 44.4467 18.8279C44.5352 18.2523 44.5795 17.6831 44.5795 17.1202C44.5795 16.3708 44.502 15.615 44.347 14.8528C44.1953 14.0876 43.9865 13.3792 43.7209 12.7277C43.4584 12.0731 43.1628 11.5371 42.8339 11.1197H44.7645C45.4128 11.964 45.8934 12.8811 46.2065 13.8709C46.5227 14.8607 46.6809 15.9438 46.6809 17.1202ZM53.9218 12.9205V23.5257H52.1608V12.9205H53.9218ZM57.9526 12.9205V21.0146H56.1916V12.9205H57.9526ZM65.6033 16.5403C65.6033 15.8098 65.4641 15.2881 65.1859 14.975C64.9076 14.6576 64.4206 14.4989 63.7249 14.4989H61.9834V21.0146H60.2224V12.9205H63.7249C65.0119 12.9205 65.9403 13.1879 66.5099 13.7227C67.0839 14.2532 67.3708 15.1206 67.3708 16.3251V21.0146H65.6033V16.5403ZM73.0061 21.1451C71.806 21.1451 70.9233 20.8668 70.3581 20.3102C69.7928 19.7493 69.5102 18.8884 69.5102 17.7274V12.9205H71.2712V17.6883C71.2712 18.3361 71.4103 18.8101 71.6886 19.1101C71.9669 19.4102 72.4104 19.5602 73.0192 19.5602C73.4627 19.5602 73.8388 19.4754 74.1475 19.3058C74.4563 19.1319 74.6911 18.8318 74.8519 18.4057C75.0128 17.9752 75.0933 17.3795 75.0933 16.6186C75.0933 15.8664 75.0085 15.3054 74.8389 14.9358C74.6693 14.5619 74.3889 14.3749 73.9975 14.3749C73.6192 14.3749 73.2235 14.4989 72.8105 14.7467V13.1487C73.2192 12.9052 73.7127 12.7835 74.291 12.7835C75.2215 12.7835 75.889 13.0879 76.2934 13.6966C76.7021 14.301 76.9065 15.2707 76.9065 16.6056C76.9065 18.1796 76.5934 19.3297 75.9673 20.0559C75.3455 20.782 74.3584 21.1451 73.0061 21.1451ZM85.7181 19.4362V21.0146H78.1718V19.4362H83.0896V16.5534C83.0896 15.7924 82.9461 15.2598 82.6591 14.9554C82.3765 14.651 81.8917 14.4989 81.2047 14.4989H78.4783V12.9205H81.2308C82.5004 12.9205 83.4201 13.1857 83.9897 13.7162C84.5637 14.2467 84.8506 15.1163 84.8506 16.3251V19.4362H85.7181ZM89.0902 12.9205V21.0146H87.3291V12.9205H89.0902ZM96.2125 12.9205V23.5257H94.4515V12.9205H96.2125ZM103.544 16.5664C103.544 15.8707 103.385 15.3533 103.067 15.0141C102.75 14.6706 102.25 14.4989 101.567 14.4989H100.061V16.2468H101.646V17.8252H98.2801V12.9205H101.58C102.859 12.9205 103.802 13.2183 104.411 13.814C105.02 14.4097 105.324 15.3359 105.324 16.5925V17.1273C105.324 19.7189 103.991 21.0146 101.326 21.0146H98.3518V19.4362H101.287C102.039 19.4362 102.602 19.2428 102.976 18.8558C103.354 18.4688 103.544 17.8883 103.544 17.1143V16.5664ZM108.957 12.9205V21.0146H107.196V12.9205H108.957ZM117.521 19.8798V21.0146H110.679V19.4362H115.062L110.157 12.9205H112.27L114.742 16.2729C115.029 16.1338 115.236 15.9251 115.362 15.6468C115.493 15.3685 115.584 14.9619 115.636 14.4271L115.779 12.9205H117.586L117.449 14.4402C117.393 15.0402 117.297 15.5098 117.162 15.849C117.027 16.1794 116.834 16.4599 116.582 16.6904C116.33 16.9208 115.984 17.1252 115.545 17.3034L117.521 19.8798ZM124.487 17.1143V21.0146H122.726V17.1013C122.726 16.6317 122.815 16.2381 122.993 15.9207C123.176 15.5989 123.478 15.3468 123.9 15.1641L121.656 14.4141V12.7052L126.013 14.1727V15.8751L125.302 15.6468C125.002 15.799 124.796 15.9729 124.682 16.1686C124.552 16.3773 124.487 16.6925 124.487 17.1143ZM132.855 17.1273C132.855 19.7189 131.533 21.0146 128.889 21.0146H126.724V19.4362H128.792C129.57 19.4362 130.146 19.2406 130.52 18.8492C130.894 18.4579 131.081 17.8622 131.081 17.0621V16.886C131.081 16.0729 130.894 15.4729 130.52 15.0859C130.146 14.6945 129.579 14.4989 128.818 14.4989H126.724V12.9205H128.981C131.563 12.9205 132.855 14.2119 132.855 16.7947V17.1273ZM139.821 16.3251V21.0146H138.053V16.3121C138.053 15.6381 137.908 15.1685 137.616 14.9032C137.329 14.6336 136.844 14.4989 136.162 14.4989H133.448V12.9205H136.266C137.123 12.9205 137.81 13.0357 138.327 13.2661C138.849 13.4922 139.227 13.8553 139.462 14.3554C139.701 14.8511 139.821 15.5076 139.821 16.3251ZM146.747 12.8813C147.856 12.8813 148.663 13.2074 149.167 13.8597C149.672 14.5075 149.924 15.5207 149.924 16.8991V21.0146H145.717V19.4362H148.15V17.036C148.15 16.1186 148.039 15.462 147.817 15.0663C147.6 14.6663 147.215 14.4662 146.663 14.4662C146.154 14.4662 145.726 14.7206 145.378 15.2294C145.03 15.7511 144.706 16.6208 144.406 17.8383L143.617 21.0146H141.738L142.619 17.6361C142.728 17.2274 142.832 16.8621 142.932 16.5403C143.036 16.2186 143.136 15.9425 143.232 15.712L141.614 13.0118H143.565L144.178 14.1597C144.439 13.7597 144.795 13.4466 145.247 13.2205C145.704 12.9944 146.204 12.8813 146.747 12.8813Z" fill="black"/>
<defs>
<radialGradient id="paint0_radial_501_2166" cx="0" cy="0" r="1" gradientUnits="userSpaceOnUse" gradientTransform="translate(175.953 16.015) scale(17.3022 15.8303)">
<stop offset="0.49" stop-color="#52C2F0"/>
<stop offset="1" stop-color="#0055A2"/>
</radialGradient>
<radialGradient id="paint1_radial_501_2166" cx="0" cy="0" r="1" gradientUnits="userSpaceOnUse" gradientTransform="translate(161.303 2.6821) rotate(-6.49131) scale(13.8813 11.9537)">
<stop stop-color="white"/>
<stop offset="1" stop-color="white" stop-opacity="0"/>
</radialGradient>
<radialGradient id="paint2_radial_501_2166" cx="0" cy="0" r="1" gradientUnits="userSpaceOnUse" gradientTransform="translate(166.241 24.0818) rotate(-59.2594) scale(6.44032 5.50273)">
<stop offset="0.0104167" stop-color="white"/>
<stop offset="1" stop-color="white" stop-opacity="0"/>
</radialGradient>
<radialGradient id="paint3_radial_501_2166" cx="0" cy="0" r="1" gradientUnits="userSpaceOnUse" gradientTransform="translate(185.028 7.5327) rotate(-42.238) scale(7.51301 6.43921)">
<stop stop-color="white"/>
<stop offset="1" stop-color="white" stop-opacity="0"/>
</radialGradient>
<radialGradient id="paint4_radial_501_2166" cx="0" cy="0" r="1" gradientUnits="userSpaceOnUse" gradientTransform="translate(179.749 23.3114) rotate(74.0055) scale(8.54842 7.28926)">
<stop stop-color="white"/>
<stop offset="1" stop-color="white" stop-opacity="0"/>
</radialGradient>
<radialGradient id="paint5_radial_501_2166" cx="0" cy="0" r="1" gradientUnits="userSpaceOnUse" gradientTransform="translate(167.49 5.10726) rotate(68.8539) scale(6.60809 4.58112)">
<stop stop-color="white"/>
<stop offset="1" stop-color="white" stop-opacity="0"/>
</radialGradient>
<radialGradient id="paint6_radial_501_2166" cx="0" cy="0" r="1" gradientUnits="userSpaceOnUse" gradientTransform="translate(174.045 7.19017) rotate(106.614) scale(3.27537 2.26949)">
<stop stop-color="white"/>
<stop offset="1" stop-color="white" stop-opacity="0"/>
</radialGradient>
<radialGradient id="paint7_radial_501_2166" cx="0" cy="0" r="1" gradientUnits="userSpaceOnUse" gradientTransform="translate(181.481 3.53794) rotate(129.743) scale(9.27701 6.45081)">
<stop stop-color="white"/>
<stop offset="1" stop-color="white" stop-opacity="0"/>
</radialGradient>
<radialGradient id="paint8_radial_501_2166" cx="0" cy="0" r="1" gradientUnits="userSpaceOnUse" gradientTransform="translate(168.057 16.1495) rotate(43.1795) scale(6.4214 3.60572)">
<stop stop-color="white"/>
<stop offset="1" stop-color="white" stop-opacity="0"/>
</radialGradient>
<radialGradient id="paint9_radial_501_2166" cx="0" cy="0" r="1" gradientUnits="userSpaceOnUse" gradientTransform="translate(179.891 11.6128) rotate(120.039) scale(7.08641 4.91914)">
<stop stop-color="white"/>
<stop offset="1" stop-color="white" stop-opacity="0"/>
</radialGradient>
<radialGradient id="paint10_radial_501_2166" cx="0" cy="0" r="1" gradientUnits="userSpaceOnUse" gradientTransform="translate(178.302 18.2895) rotate(129.928) scale(12.9112 8.97816)">
<stop stop-color="white"/>
<stop offset="1" stop-color="white" stop-opacity="0"/>
</radialGradient>
<radialGradient id="paint11_radial_501_2166" cx="0" cy="0" r="1" gradientUnits="userSpaceOnUse" gradientTransform="translate(181.481 19.6305) rotate(98.9916) scale(3.81321 2.64051)">
<stop stop-color="white"/>
<stop offset="1" stop-color="white" stop-opacity="0"/>
</radialGradient>
</defs>
</svg>
