<svg width="180" height="34" viewBox="0 0 180 34" fill="none" xmlns="http://www.w3.org/2000/svg">
<path d="M3.78554 18.3873C3.61161 18.8352 3.3442 19.1634 2.9833 19.3722C2.62239 19.5765 2.09843 19.6787 1.41142 19.6787H0.967899V18.1003H1.07878C1.37881 18.1003 1.61796 18.0438 1.79623 17.9307C1.97016 17.8177 2.09409 17.6459 2.16801 17.4155C2.24193 17.1807 2.27889 16.8263 2.27889 16.3523V13.1629H1.03964V11.5845H5.57918C6.83146 11.5845 7.72937 11.8498 8.2729 12.3802C8.82077 12.9064 9.09471 13.7804 9.09471 15.0022V19.6787H7.32716V15.0283C7.32716 14.3326 7.18584 13.8478 6.90321 13.5738C6.62058 13.2999 6.14445 13.1629 5.47482 13.1629H4.03991V16.5806C4.03991 17.3329 3.95512 17.9351 3.78554 18.3873ZM12.7798 11.5845V15.8827H11.0188V11.5845H12.7798ZM18.8782 14.7739V19.6787H14.6582V18.1003H17.1172V15.1131C17.1172 14.5261 17.078 14.1065 16.9998 13.8543C16.9215 13.6064 16.791 13.4303 16.6084 13.326C16.4258 13.2173 16.1584 13.1629 15.8062 13.1629H15.03V11.5845H16.1388C16.8867 11.5845 17.4455 11.6845 17.815 11.8845C18.1846 12.0846 18.4542 12.4128 18.6238 12.8694C18.7934 13.326 18.8782 13.9608 18.8782 14.7739ZM22.8503 11.5845V19.6787H21.0893V11.5845H22.8503ZM30.6118 14.9892V19.6787H28.8443V14.9761C28.8443 14.3021 28.6986 13.8325 28.4073 13.5673C28.1203 13.2977 27.6355 13.1629 26.9528 13.1629H24.2395V11.5845H27.0572C27.9138 11.5845 28.6008 11.6997 29.1182 11.9302C29.64 12.1563 30.0183 12.5194 30.2531 13.0194C30.4923 13.5151 30.6118 14.1717 30.6118 14.9892ZM36.2471 19.8092C35.047 19.8092 34.1643 19.5309 33.5991 18.9743C33.0338 18.4134 32.7512 17.5524 32.7512 16.3915V11.5845H34.5122V16.3523C34.5122 17.0002 34.6513 17.4742 34.9296 17.7742C35.2079 18.0742 35.6514 18.2242 36.2602 18.2242C36.7037 18.2242 37.0798 18.1394 37.3885 17.9699C37.6973 17.7959 37.9321 17.4959 38.0929 17.0698C38.2538 16.6393 38.3343 16.0436 38.3343 15.2827C38.3343 14.5304 38.2495 13.9695 38.0799 13.5999C37.9103 13.226 37.6299 13.039 37.2385 13.039C36.8602 13.039 36.4645 13.1629 36.0515 13.4108V11.8128C36.4602 11.5693 36.9537 11.4475 37.532 11.4475C38.4625 11.4475 39.13 11.7519 39.5344 12.3607C39.9431 12.9651 40.1475 13.9347 40.1475 15.2696C40.1475 16.8437 39.8344 17.9938 39.2083 18.7199C38.5865 19.4461 37.5994 19.8092 36.2471 19.8092ZM48.8809 14.2717C48.8809 15.0979 48.7134 15.8697 48.3786 16.5871C48.0438 17.3046 47.5525 17.9481 46.9046 18.5177C46.2611 19.0874 45.4719 19.5635 44.537 19.9461V18.0742C45.3545 17.6916 45.9849 17.1828 46.4285 16.548C46.8763 15.9088 47.1003 15.2196 47.1003 14.4804C47.1003 13.9934 46.9785 13.6521 46.735 13.4564C46.4915 13.2607 46.0654 13.1629 45.4566 13.1629H41.6802V11.5845H45.711C46.8155 11.5845 47.6199 11.7954 48.1243 12.2172C48.6287 12.6346 48.8809 13.3195 48.8809 14.2717ZM43.7739 14.7087V22.1898H42.0129V14.7087H43.7739ZM50.7462 18.1721C51.8072 17.8242 52.6638 17.385 53.316 16.8545C53.7682 16.4936 54.1139 16.1001 54.3531 15.674C54.5922 15.2435 54.7118 14.7935 54.7118 14.3239C54.7118 13.5499 54.227 13.1629 53.2573 13.1629H49.944V8.81905H51.7442V11.5845H53.5508C55.5075 11.5845 56.4859 12.4389 56.4859 14.1478C56.4859 14.9652 56.2924 15.7305 55.9054 16.4436C55.5227 17.1524 54.9749 17.7851 54.2618 18.3416C53.3226 19.0721 52.1507 19.6461 50.7462 20.0635V18.1721ZM59.6492 17.3176L59.2448 19.6787H57.4186L57.9664 16.9785C58.123 16.2306 58.2665 15.6979 58.3969 15.3805C58.5274 15.0587 58.6882 14.8044 58.8796 14.6174C59.0752 14.4261 59.3448 14.2565 59.6883 14.1087L57.8034 11.5845H59.9427L62.5842 15.2435C62.8582 14.9957 63.0669 14.7044 63.2104 14.3695C63.3539 14.0347 63.4561 13.5825 63.5169 13.0129L63.6539 11.5845H65.4541L65.2975 13.1303C65.2497 13.5695 65.1627 13.9586 65.0366 14.2978C64.9497 14.5283 64.8431 14.7457 64.717 14.95C64.5909 15.15 64.4257 15.3631 64.2213 15.5892C64.0213 15.811 63.7561 16.0697 63.4256 16.3654L65.8584 19.6787H63.7322L60.4775 15.1653C60.2471 15.3001 60.0818 15.4957 59.9818 15.7523C59.934 15.8827 59.8818 16.0784 59.8253 16.3393C59.7688 16.6002 59.7101 16.9263 59.6492 17.3176ZM77.4356 14.9892V19.6787H75.668V14.9761C75.668 14.3108 75.5267 13.8434 75.2441 13.5738C74.9614 13.2999 74.4701 13.1629 73.77 13.1629H70.4632V11.5845H73.8809C74.7375 11.5845 75.4245 11.6997 75.942 11.9302C76.4637 12.1607 76.842 12.5259 77.0768 13.0259C77.316 13.5216 77.4356 14.176 77.4356 14.9892ZM72.3547 14.7609V19.6787H70.5937V14.7609H72.3547ZM83.9514 11.5454C85.0602 11.5454 85.8667 11.8715 86.3711 12.5237C86.8755 13.1716 87.1277 14.1847 87.1277 15.5631V19.6787H82.9208V18.1003H85.3537V15.7001C85.3537 14.7826 85.2428 14.126 85.021 13.7304C84.8036 13.3303 84.4188 13.1303 83.8666 13.1303C83.3578 13.1303 82.9295 13.3847 82.5817 13.8934C82.2338 14.4152 81.9099 15.2848 81.6098 16.5023L80.8206 19.6787H78.9422L79.8227 16.3001C79.9314 15.8914 80.0358 15.5262 80.1358 15.2044C80.2402 14.8826 80.3402 14.6065 80.4358 14.3761L78.8183 11.6758H80.7685L81.3816 12.8238C81.6425 12.4237 81.999 12.1106 82.4512 11.8845C82.9078 11.6584 83.4078 11.5454 83.9514 11.5454ZM94.7197 15.2044C94.7197 14.4739 94.5806 13.9521 94.3023 13.639C94.024 13.3216 93.537 13.1629 92.8413 13.1629H91.0998V19.6787H89.3388V11.5845H92.8413C94.1284 11.5845 95.0567 11.8519 95.6263 12.3868C96.2003 12.9172 96.4873 13.7847 96.4873 14.9892V19.6787H94.7197V15.2044ZM100.453 11.5845V19.6787H98.6918V11.5845H100.453ZM102.847 18.1721C103.907 17.8242 104.764 17.385 105.416 16.8545C105.869 16.4936 106.214 16.1001 106.453 15.674C106.693 15.2435 106.812 14.7935 106.812 14.3239C106.812 13.5499 106.327 13.1629 105.358 13.1629H102.044V8.81905H103.844V11.5845H105.651C107.608 11.5845 108.586 12.4389 108.586 14.1478C108.586 14.9652 108.393 15.7305 108.006 16.4436C107.623 17.1524 107.075 17.7851 106.362 18.3416C105.423 19.0721 104.251 19.6461 102.847 20.0635V18.1721ZM115.487 15.7784V19.6787H113.726V15.7653C113.726 15.2957 113.815 14.9022 113.993 14.5848C114.176 14.263 114.478 14.0108 114.9 13.8282L112.656 13.0781V11.3693L117.013 12.8368V14.5391L116.302 14.3108C116.002 14.463 115.795 14.637 115.682 14.8326C115.552 15.0413 115.487 15.3566 115.487 15.7784ZM123.855 15.7914C123.855 18.3829 122.533 19.6787 119.889 19.6787H117.724V18.1003H119.792C120.57 18.1003 121.146 17.9046 121.52 17.5133C121.894 17.122 122.081 16.5263 122.081 15.7262V15.5501C122.081 14.737 121.894 14.1369 121.52 13.7499C121.146 13.3586 120.579 13.1629 119.818 13.1629H117.724V11.5845H119.981C122.563 11.5845 123.855 12.8759 123.855 15.4588V15.7914ZM130.821 14.9892V19.6787H129.053V14.9761C129.053 14.3021 128.908 13.8325 128.616 13.5673C128.329 13.2977 127.844 13.1629 127.162 13.1629H124.448V11.5845H127.266C128.123 11.5845 128.81 11.6997 129.327 11.9302C129.849 12.1563 130.227 12.5194 130.462 13.0194C130.701 13.5151 130.821 14.1717 130.821 14.9892ZM137.747 11.5454C138.856 11.5454 139.663 11.8715 140.167 12.5237C140.672 13.1716 140.924 14.1847 140.924 15.5631V19.6787H136.717V18.1003H139.15V15.7001C139.15 14.7826 139.039 14.126 138.817 13.7304C138.6 13.3303 138.215 13.1303 137.663 13.1303C137.154 13.1303 136.726 13.3847 136.378 13.8934C136.03 14.4152 135.706 15.2848 135.406 16.5023L134.617 19.6787H132.738L133.619 16.3001C133.728 15.8914 133.832 15.5262 133.932 15.2044C134.036 14.8826 134.136 14.6065 134.232 14.3761L132.614 11.6758H134.565L135.178 12.8238C135.439 12.4237 135.795 12.1106 136.247 11.8845C136.704 11.6584 137.204 11.5454 137.747 11.5454Z" fill="black"/>
<g clip-path="url(#clip0_501_2066)">
<path d="M167.301 33.3949C167.25 33.3503 167.203 33.295 167.145 33.2626C165.977 32.6204 164.882 31.8716 163.872 31.0048C163.174 30.4063 162.477 29.802 161.831 29.1495C160.247 27.5477 158.919 25.7493 157.843 23.7662C156.798 21.8399 156.13 19.7896 155.786 17.6297C155.75 17.4031 155.732 17.1738 155.697 16.9468C155.69 16.8998 155.645 16.8588 155.617 16.815C155.617 11.2113 155.617 5.60735 155.617 0.000976562H179.261V16.2623C179.235 16.3061 179.188 16.3488 179.186 16.3938C179.126 17.5626 178.867 18.6947 178.555 19.8169C177.986 21.862 177.076 23.75 175.905 25.5137C175.22 26.5443 174.465 27.5201 173.629 28.4339C172.243 29.9492 170.702 31.2842 168.99 32.4195C168.542 32.7171 168.069 32.9788 167.61 33.2599C167.553 33.2946 167.509 33.3495 167.459 33.3949H167.301H167.301ZM173.853 0.438734C173.13 0.439128 172.407 0.439523 171.684 0.439918C171.611 0.437944 171.539 0.433997 171.467 0.433997C166.459 0.433207 161.452 0.432418 156.444 0.432418C156.366 0.432418 156.287 0.437944 156.208 0.440707C156.196 0.437155 156.183 0.437549 156.171 0.442286L156.051 0.439918C156.041 0.450181 156.03 0.460444 156.02 0.470707C156.018 0.523206 156.014 0.575705 156.014 0.628205C156.021 3.90369 156.029 7.17917 156.036 10.4546C156.039 11.7044 156.036 12.9541 156.045 14.2038C156.051 14.998 156.053 15.7934 156.097 16.586C156.127 17.1268 156.198 17.6692 156.299 18.2016C156.56 19.5765 156.97 20.9063 157.54 22.1884C157.987 23.1938 158.514 24.1522 159.106 25.0771C160.348 27.0172 161.853 28.7268 163.597 30.2315C164.594 31.0916 165.641 31.8807 166.765 32.5651C166.937 32.6697 167.123 32.7503 167.302 32.8422L167.301 32.8395C167.313 32.8549 167.325 32.8703 167.337 32.886C167.419 32.8446 167.501 32.8035 167.583 32.7621C167.608 32.7483 167.632 32.7345 167.656 32.7207L167.653 32.723C167.701 32.7064 167.755 32.6982 167.797 32.6721C168.122 32.4728 168.45 32.2786 168.765 32.0666C169.869 31.3265 170.902 30.4991 171.879 29.5975C172.975 28.5866 173.985 27.4991 174.842 26.281C175.441 25.4284 176.001 24.5454 176.531 23.6481C177.05 22.7699 177.453 21.8273 177.774 20.8602C178.059 20.0064 178.306 19.1344 178.487 18.2534C178.657 17.4327 178.801 16.5911 178.813 15.7571C178.857 12.4694 178.846 9.18124 178.854 5.89313C178.858 4.1571 178.858 2.42068 178.86 0.684651C178.86 0.608073 178.86 0.531496 178.86 0.445444C178.781 0.445444 178.729 0.445444 178.677 0.445444C178.661 0.44426 178.644 0.442681 178.628 0.441497C177.958 0.440707 177.288 0.439918 176.619 0.439128C176.604 0.439523 176.59 0.440313 176.576 0.440707C175.682 0.440313 174.787 0.439523 173.893 0.438734C173.88 0.438734 173.867 0.438734 173.853 0.438734H173.853Z" fill="#4C4123"/>
<path d="M156.209 0.43993C156.287 0.437167 156.366 0.431641 156.445 0.431641C161.452 0.431641 166.46 0.43243 171.468 0.43322C171.54 0.43322 171.612 0.437167 171.684 0.439141C170.534 2.60464 169.386 4.77092 168.233 6.93523C165.798 11.5062 163.362 16.076 160.926 20.6466C160.882 20.5819 160.832 20.5207 160.796 20.4524C160.417 19.7403 160.041 19.027 159.664 18.3146C159.474 17.9573 159.283 17.6009 159.094 17.2432C158.796 16.6776 158.5 16.1112 158.202 15.5451C157.999 15.1587 157.795 14.7726 157.591 14.3862C157.3 13.8316 157.009 13.2766 156.718 12.7224C156.531 12.3683 156.344 12.0146 156.134 11.6171C158.458 12.2519 160.737 12.8744 163.065 13.5107C163.02 13.4009 163 13.3346 162.969 13.2746C162.642 12.6505 162.314 12.0269 161.985 11.4036C160.476 8.54298 158.968 5.68196 157.458 2.82213C157.043 2.03701 156.623 1.25545 156.206 0.472298C156.208 0.46164 156.209 0.450588 156.209 0.43993Z" fill="#C5261F"/>
<path d="M173.894 0.438871C174.788 0.439266 175.682 0.440055 176.576 0.44045C176.581 0.455845 176.585 0.471239 176.589 0.487028C176.515 0.624 176.438 0.759788 176.366 0.898339C176.034 1.54136 175.709 2.18714 175.372 2.82779C175.01 3.5162 174.636 4.19829 174.273 4.88631C174.079 5.25301 173.902 5.62919 173.708 5.9955C173.383 6.60694 173.046 7.21167 172.723 7.8235C172.423 8.39073 172.138 8.96586 171.841 9.53466C171.471 10.2428 171.097 10.9482 170.724 11.6548C170.351 12.3609 169.979 13.0679 169.604 13.7729C169.391 14.1743 169.169 14.5714 168.957 14.9733C168.68 15.4971 168.41 16.024 168.135 16.5486C167.876 17.0409 167.615 17.5311 167.329 18.0719C169.661 17.4399 171.942 16.8214 174.223 16.2029C174.099 16.5309 173.958 16.8088 173.811 17.0835C173.341 17.9634 172.866 18.8397 172.4 19.7215C171.965 20.5453 171.542 21.3754 171.11 22.2004C170.919 22.564 170.715 22.92 170.523 23.2828C170.215 23.8646 169.914 24.4496 169.608 25.0318C169.408 25.4123 169.2 25.7893 169.001 26.1702C168.593 26.949 168.189 27.7298 167.782 28.509C167.544 28.9645 167.305 29.42 167.063 29.8736C166.848 30.277 166.628 30.6777 166.41 31.0799C165.956 30.2135 165.502 29.347 165.048 28.481C165.263 28.0839 165.481 27.6888 165.692 27.2897C166.758 25.2714 167.822 23.2528 168.887 21.2337C168.924 21.1623 168.954 21.0869 169.007 20.9716C168.667 21.0652 168.368 21.1485 168.069 21.2298C166.404 21.6809 164.738 22.1333 163.072 22.5813C162.746 22.6686 162.416 22.7376 162.089 22.815L162.09 22.8174C162.41 22.2158 162.73 21.6146 163.048 21.0119C164.205 18.8184 165.362 16.6252 166.516 14.4305C167.652 12.2705 168.783 10.1074 169.921 7.94824C170.866 6.15498 171.819 4.36566 172.765 2.57318C173.133 1.87688 173.494 1.17702 173.858 0.478739C173.87 0.465318 173.882 0.451897 173.894 0.438477L173.894 0.438871Z" fill="#FEFFFF"/>
<path d="M165.048 28.4812C165.502 29.3476 165.956 30.214 166.41 31.0801C166.684 31.6019 166.958 32.123 167.23 32.6456C167.262 32.7072 167.279 32.7762 167.303 32.8418C167.123 32.7502 166.937 32.6693 166.766 32.5647C165.641 31.8802 164.594 31.0911 163.597 30.231C161.854 28.7263 160.349 27.0167 159.107 25.0766C158.515 24.1518 157.988 23.1933 157.54 22.188C156.97 20.9059 156.56 19.576 156.299 18.2012C156.198 17.6687 156.127 17.1263 156.097 16.5855C156.053 15.7929 156.051 14.9975 156.045 14.2033C156.036 12.9536 156.039 11.7039 156.037 10.4542C156.029 7.1787 156.022 3.90322 156.014 0.62774C156.014 0.575241 156.018 0.522741 156.02 0.470242C156.031 0.459979 156.041 0.449716 156.052 0.439453C156.091 0.440243 156.131 0.441032 156.171 0.441821C156.183 0.452085 156.194 0.462348 156.206 0.472611C156.623 1.25536 157.043 2.03693 157.458 2.82166C158.968 5.68148 160.476 8.5425 161.985 11.4031C162.314 12.0264 162.642 12.6497 162.969 13.2741C163 13.3341 163.02 13.4005 163.065 13.5102C160.737 12.8743 158.458 12.2518 156.134 11.6167C156.344 12.0142 156.532 12.3674 156.718 12.7219C157.01 13.2765 157.3 13.8315 157.591 14.3857C157.795 14.7721 157.999 15.1582 158.202 15.5446C158.5 16.1107 158.796 16.6771 159.094 17.2428C159.283 17.6004 159.475 17.9568 159.664 18.3141C160.041 19.0266 160.417 19.7402 160.796 20.4519C160.832 20.5206 160.882 20.5818 160.926 20.6461C160.935 20.6773 160.938 20.7109 160.953 20.7389C161.305 21.4103 161.658 22.0814 162.013 22.7512C162.027 22.7789 162.064 22.7951 162.091 22.8168L162.089 22.8144C162.099 22.861 162.098 22.9127 162.12 22.953C162.358 23.4077 162.599 23.8608 162.839 24.314C163.343 25.2724 163.846 26.2316 164.352 27.1888C164.474 27.4197 164.608 27.6447 164.736 27.8725L165.049 28.4808L165.048 28.4812Z" fill="#DCC027"/>
<path d="M178.678 0.445312H178.86C178.86 0.531364 178.86 0.607942 178.86 0.68452C178.858 2.42055 178.858 4.15697 178.854 5.893C178.847 9.18111 178.858 12.4696 178.813 15.7569C178.802 16.591 178.657 17.4326 178.488 18.2532C178.306 19.1339 178.059 20.0058 177.775 20.86C177.453 21.8267 177.051 22.7693 176.531 23.648C176.001 24.5452 175.441 25.4283 174.842 26.2809C173.986 27.499 172.975 28.5865 171.88 29.5974C170.903 30.499 169.87 31.3267 168.766 32.0665C168.45 32.2784 168.122 32.4726 167.798 32.672C167.755 32.698 167.702 32.7063 167.654 32.7229C167.687 32.6297 167.71 32.5307 167.755 32.4438C171.369 25.5905 174.985 18.7383 178.599 11.8858C178.638 11.8132 178.674 11.7394 178.742 11.6059C176.401 12.2407 174.12 12.8592 171.794 13.4896C171.852 13.3822 171.881 13.3309 171.908 13.2792C173.773 9.74558 175.637 6.21194 177.5 2.67752C177.88 1.95713 178.254 1.23399 178.631 0.512417C178.646 0.489917 178.662 0.467812 178.677 0.445312H178.678Z" fill="#DCC027"/>
<path d="M178.632 0.512478C178.255 1.23444 177.881 1.9572 177.501 2.67758C175.638 6.212 173.773 9.74564 171.909 13.2793C171.882 13.3314 171.853 13.3823 171.795 13.4897C174.12 12.8593 176.401 12.2403 178.743 11.606C178.675 11.739 178.638 11.8128 178.6 11.8859C174.985 18.7384 171.369 25.5905 167.756 32.4439C167.71 32.5307 167.688 32.6298 167.654 32.7229L167.657 32.7206L167.584 32.762C167.502 32.8035 167.42 32.8445 167.338 32.8856C167.326 32.8702 167.314 32.8548 167.301 32.8394L167.303 32.8422C167.279 32.7766 167.262 32.7076 167.23 32.646C166.959 32.1234 166.684 31.6019 166.41 31.0805C166.628 30.6786 166.848 30.2776 167.063 29.8742C167.305 29.4206 167.544 28.9651 167.782 28.5096C168.189 27.7304 168.593 26.9496 169.001 26.1708C169.201 25.7899 169.408 25.4129 169.608 25.0324C169.914 24.4502 170.216 23.8648 170.523 23.2833C170.715 22.9206 170.919 22.5645 171.11 22.201C171.542 21.376 171.965 20.5459 172.4 19.7221C172.866 18.8402 173.341 17.9639 173.811 17.0841C173.958 16.809 174.099 16.5311 174.223 16.2034C171.942 16.822 169.661 17.4405 167.329 18.0725C167.616 17.5317 167.876 17.0415 168.135 16.5492C168.41 16.0246 168.68 15.4973 168.957 14.9739C169.169 14.572 169.391 14.1749 169.604 13.7735C169.979 13.0681 170.351 12.3615 170.724 11.6553C171.097 10.9488 171.471 10.2434 171.841 9.53525C172.138 8.96644 172.423 8.39132 172.723 7.82409C173.046 7.21186 173.383 6.60752 173.708 5.99609C173.902 5.62977 174.079 5.2536 174.273 4.88689C174.636 4.19927 175.01 3.51717 175.372 2.82837C175.709 2.18811 176.034 1.54194 176.366 0.89892C176.438 0.76037 176.515 0.624582 176.589 0.48761C176.599 0.471426 176.609 0.455637 176.619 0.439453C177.289 0.440243 177.959 0.441032 178.629 0.441821C178.63 0.465505 178.631 0.489189 178.632 0.513268V0.512478Z" fill="#4385B2"/>
<path d="M162.09 22.8178C162.063 22.7961 162.027 22.7799 162.012 22.7522C161.657 22.0824 161.304 21.4113 160.952 20.7399C160.938 20.7119 160.934 20.6783 160.925 20.6471C163.361 16.0769 165.798 11.5067 168.233 6.93575C169.385 4.77144 170.533 2.60516 171.684 0.439661C172.407 0.439661 173.13 0.438871 173.853 0.438477C173.854 0.451897 173.856 0.465318 173.857 0.479134C173.493 1.17741 173.132 1.87767 172.764 2.57358C171.817 4.36605 170.864 6.15498 169.92 7.94864C168.782 10.1078 167.651 12.2709 166.515 14.4309C165.36 16.6256 164.204 18.8187 163.047 21.0123C162.729 21.6146 162.409 22.2158 162.089 22.8178H162.09Z" fill="#4385B2"/>
<path d="M178.632 0.513313C178.631 0.489476 178.629 0.46564 178.629 0.441406C178.645 0.442598 178.662 0.444187 178.678 0.445379C178.662 0.468024 178.647 0.490668 178.632 0.512916L178.632 0.513313Z" fill="#447D9E"/>
<path d="M167.584 32.7634L167.657 32.7217C167.633 32.7356 167.608 32.7495 167.584 32.7634Z" fill="#DCC027"/>
<path d="M156.051 0.439453C156.041 0.449782 156.03 0.460111 156.02 0.47044C156.03 0.460111 156.041 0.449782 156.051 0.439453Z" fill="#CAB127"/>
<path d="M156.206 0.47262C156.194 0.462291 156.183 0.451962 156.171 0.441633C156.183 0.436865 156.196 0.436071 156.209 0.440044C156.209 0.451167 156.208 0.461894 156.206 0.47262H156.206Z" fill="#CAB127"/>
<path d="M173.857 0.479396C173.856 0.465888 173.854 0.452381 173.853 0.438477C173.867 0.438477 173.88 0.438477 173.894 0.438477C173.882 0.451984 173.87 0.465491 173.857 0.478998L173.857 0.479396Z" fill="#447C9F"/>
<path d="M176.619 0.438477C176.61 0.454765 176.6 0.470656 176.589 0.486944C176.585 0.47145 176.581 0.455957 176.576 0.440066C176.59 0.439668 176.605 0.438874 176.619 0.438477H176.619Z" fill="#E6E5E2"/>
<path d="M167.301 32.8398C167.313 32.8553 167.326 32.8708 167.338 32.8863C167.326 32.8708 167.313 32.8553 167.301 32.8398Z" fill="#DCC027"/>
<path d="M162.838 24.3147C162.598 23.8611 162.357 23.4084 162.119 22.9536C162.097 22.913 162.098 22.8617 162.088 22.8151C162.416 22.7377 162.746 22.669 163.071 22.5814C164.737 22.1338 166.402 21.681 168.068 21.2298C168.367 21.1489 168.666 21.0656 169.006 20.9717C168.953 21.0865 168.923 21.1623 168.886 21.2338C167.821 23.2528 166.757 25.2719 165.691 27.2897C165.48 27.6888 165.262 28.084 165.047 28.4811C164.943 28.2782 164.839 28.0757 164.735 27.8728C164.789 27.8025 164.855 27.7386 164.896 27.6612C165.265 26.9629 165.627 26.2611 165.996 25.5628C166.397 24.8037 166.803 24.0474 167.206 23.2899C167.238 23.2307 167.266 23.1699 167.309 23.0819C167.227 23.0981 167.182 23.1036 167.14 23.1155C166.205 23.3772 165.27 23.6409 164.334 23.9018C163.836 24.0411 163.337 24.1765 162.838 24.3139L162.838 24.3147Z" fill="#4385B2"/>
<path d="M162.838 24.314C163.337 24.1766 163.837 24.0412 164.335 23.9019C165.27 23.6406 166.205 23.3773 167.14 23.1156C167.183 23.1037 167.227 23.0982 167.31 23.082C167.266 23.1701 167.238 23.2308 167.207 23.2901C166.803 24.0475 166.397 24.8038 165.996 25.5629C165.627 26.2612 165.265 26.963 164.896 27.6613C164.855 27.7387 164.79 27.8026 164.735 27.8729C164.607 27.6451 164.473 27.4201 164.351 27.1892C163.845 26.232 163.342 25.2728 162.838 24.3144V24.314Z" fill="#C42720"/>
</g>
<defs>
<clipPath id="clip0_501_2066">
<rect width="23.6444" height="33.3943" fill="white" transform="translate(155.617)"/>
</clipPath>
</defs>
</svg>
