<svg width="47" height="40" viewBox="0 0 47 40" fill="none" xmlns="http://www.w3.org/2000/svg">
<path d="M30.6747 30.4126C28.8415 29.4471 26.4227 28.9163 23.8648 28.9163C21.7123 28.9163 19.6264 29.3002 17.9303 30.0033C20.5626 33.2565 22.8307 35.9476 23.8648 37.1658C24.5855 36.3177 25.9056 34.7528 27.5332 32.7786C27.5939 32.7061 27.6801 32.6591 27.7741 32.6493C27.7858 32.6493 27.7976 32.6493 27.8074 32.6493C27.8896 32.6493 27.9699 32.6787 28.0346 32.7316L28.6966 33.278C28.8474 33.4034 28.8709 33.6286 28.7436 33.7814C26.2503 36.8035 24.4739 38.8717 24.4563 38.8932L24.1331 39.2693C24.0646 39.3476 23.9666 39.3946 23.8628 39.3946C23.759 39.3946 23.6591 39.3476 23.5926 39.2693L23.2674 38.8913C23.2459 38.8678 20.0182 35.1093 16.1226 30.2716C16.1226 30.2716 16.1206 30.2677 16.1186 30.2658C16.1049 30.2481 16.0912 30.2305 16.0756 30.2129L15.7504 29.8075C15.6838 29.7232 15.6564 29.6155 15.6799 29.5117C15.7015 29.4079 15.7681 29.3178 15.8621 29.2688L16.3223 29.026C18.3769 27.9449 21.0542 27.3475 23.8628 27.3475C26.4109 27.3475 28.8513 27.841 30.8196 28.74C31.5051 27.8861 32.173 27.0459 32.8174 26.2272C30.3281 24.9208 27.1904 24.2059 23.8648 24.2059C20.1866 24.2059 16.7317 25.0775 14.1385 26.662L13.8134 26.8598C13.7566 26.8951 13.692 26.9127 13.6274 26.9127C13.5216 26.9127 13.4158 26.8657 13.3453 26.7756L13.1103 26.474C12.0899 25.1696 11.1204 23.9063 10.2273 22.7213L9.95112 22.3551C9.8904 22.2768 9.86691 22.1769 9.88453 22.0789C9.9002 21.981 9.95895 21.8948 10.0412 21.842L10.427 21.5913C14.1268 19.192 18.7725 17.9229 23.8628 17.9229C28.6731 17.9229 33.0838 19.0549 36.6758 21.2035C37.3378 20.3182 37.9645 19.4643 38.5501 18.6514C34.4273 16.119 29.3703 14.7833 23.8648 14.7833C18.0498 14.7833 12.7342 16.2718 8.49197 19.0882L8.14532 19.3174C8.08461 19.3585 8.01606 19.3781 7.94751 19.3781C7.83587 19.3781 7.72619 19.3252 7.65568 19.2273L7.41672 18.8884C6.39239 17.4469 5.49146 16.1229 4.73937 14.9478L4.51217 14.5933C4.40641 14.4288 4.45342 14.2114 4.61402 14.1037L4.96461 13.8706C10.2449 10.3589 16.7807 8.50019 23.8628 8.50019C30.945 8.50019 36.9245 10.2081 42.0834 13.4377C43.5641 11.062 44.418 9.31691 44.6178 8.24949C45.3522 4.31081 45.4482 2.40316 45.4306 1.57469H39.1162V6.287C39.1162 6.48482 38.9555 6.64346 38.7597 6.64346H27.6566C27.4588 6.64346 27.3001 6.48286 27.3001 6.287V1.57077H20.4295V6.28309C20.4295 6.4809 20.2688 6.63955 20.073 6.63955H8.96987C8.77206 6.63955 8.6134 6.47894 8.6134 6.28309V1.57077H2.29898C2.28723 2.22102 2.34209 3.47058 2.68484 5.73273C2.80235 6.50245 2.94531 7.34855 3.11375 8.24361C3.13138 8.33763 3.10983 8.43359 3.05694 8.51194C3.0021 8.59028 2.92182 8.64316 2.82781 8.66079C2.82781 8.66079 1.94057 8.82335 1.91903 8.82335C1.75059 8.82335 1.59978 8.70388 1.56844 8.53152C1.39804 7.61883 1.25115 6.7551 1.13168 5.96776C0.508856 1.85085 0.783064 0.720753 0.845738 0.536648L0.943666 0.244821C0.99263 0.0979284 1.12973 0 1.28249 0H9.82773C10.0255 0 10.1842 0.160603 10.1842 0.356459V5.06877H18.8587V0.356459C18.8587 0.158644 19.0193 0 19.2151 0H28.5144C28.7122 0 28.8709 0.160603 28.8709 0.356459V5.06877H37.5454V0.356459C37.5454 0.158644 37.706 0 37.9018 0H46.449C46.6018 0 46.7389 0.0979284 46.7879 0.244821L46.8858 0.538606C46.968 0.787344 47.3186 2.33657 46.1631 8.53544C45.9183 9.84376 44.9801 11.7847 43.2977 14.4621C43.1038 14.7715 42.7924 14.9889 42.434 15.0633C42.0873 15.1358 41.7269 15.0653 41.4273 14.8753C36.4878 11.7299 30.428 10.071 23.8628 10.071C17.2977 10.071 11.3907 11.6887 6.48836 14.7559C7.01913 15.5647 7.61455 16.4383 8.26479 17.3666C12.65 14.6481 18.0361 13.2105 23.8648 13.2105C29.6935 13.2105 35.2245 14.6834 39.645 17.4783C39.9427 17.6663 40.1444 17.9757 40.209 18.3224L40.2149 18.3518C40.2795 18.6945 40.2012 19.049 39.9975 19.333C39.3218 20.2751 38.5893 21.2759 37.8078 22.3179C37.612 22.5784 37.326 22.7546 37.0048 22.8114L36.9363 22.8232C36.6209 22.88 36.2997 22.8114 36.0275 22.645C32.6509 20.5806 28.4576 19.4936 23.8648 19.4936C19.272 19.4936 15.3235 20.5199 12.0017 22.4648C12.6148 23.2717 13.2591 24.11 13.927 24.9698C16.6788 23.4636 20.1925 22.6352 23.8628 22.6352C27.5332 22.6352 31.1115 23.4754 33.877 25.0129C34.2158 25.2009 34.4489 25.5319 34.5174 25.9119C34.5821 26.2722 34.49 26.6424 34.2648 26.9284C33.4304 27.9879 32.5549 29.0906 31.652 30.2129L30.6747 30.4146V30.4126Z" fill="#4E2FFF"/>
</svg>
