<svg width="43" height="51" viewBox="0 0 43 51" fill="none" xmlns="http://www.w3.org/2000/svg">
<path d="M28.9914 43.3339C30.5207 41.6571 31.8602 39.815 33.0969 37.9119C34.4554 35.8216 35.6946 33.6514 36.7538 31.3944C38.4992 27.675 39.7484 23.7333 40.6276 19.7195C41.3522 16.4115 41.8279 13.0489 42.0494 9.66968C41.7406 9.32275 41.4235 8.98328 41.0984 8.65167C39.9638 7.49443 38.7291 6.4312 37.381 5.53193C35.9228 4.55912 34.3391 3.78298 32.7044 3.15059C30.6011 2.33692 28.4088 1.75843 26.1829 1.39689C24.643 1.14677 23.0847 1 21.5247 1C19.9647 1 18.4064 1.14677 16.8665 1.39689C14.6406 1.75843 12.4483 2.33692 10.345 3.15059C8.71028 3.78298 7.12661 4.55912 5.66834 5.53193C4.32032 6.4312 3.0856 7.49443 1.951 8.65167C1.62587 8.98328 1.30875 9.32275 1 9.66968C1.22148 13.0489 1.69719 16.4115 2.42178 19.7195C3.30096 23.7333 4.55017 27.675 6.29558 31.3944C7.35473 33.6514 8.59396 35.8216 9.95245 37.9119C11.1892 39.815 12.5287 41.6571 14.058 43.3339C16.2152 45.6991 18.7448 47.7236 21.5247 49.3098C24.3046 47.7236 26.8342 45.6991 28.9914 43.3339Z" fill="#0D1D29"/>
<path d="M21.5247 2.34277C23.0006 2.34277 24.4874 2.48183 25.9679 2.72231C28.1079 3.0699 30.2102 3.62541 32.2205 4.40311C33.7827 5.00744 35.2775 5.7425 36.6368 6.64928C37.8933 7.4875 39.059 8.48899 40.1406 9.5921C40.3207 9.77582 40.4925 9.96745 40.6674 10.1562C40.4357 13.2748 39.986 16.3776 39.3169 19.4323C38.4553 23.3658 37.2343 27.2117 35.5392 30.8239C34.5106 33.016 33.3024 35.1331 31.972 37.1802C30.7609 39.0438 29.4627 40.8256 28.0003 42.429C26.112 44.4993 23.9206 46.2941 21.5247 47.7469C19.1287 46.2941 16.9374 44.4993 15.0491 42.429C13.5867 40.8256 12.2884 39.0438 11.0772 37.1802C9.74683 35.1331 8.53878 33.016 7.51012 30.8239C5.81504 27.2117 4.594 23.3658 3.73239 19.4323C3.06328 16.3775 2.61363 13.2747 2.38197 10.1561C2.55686 9.96739 2.7287 9.7758 2.90881 9.5921C3.99033 8.48899 5.15608 7.4875 6.4126 6.64928C7.77188 5.7425 9.26664 5.00744 10.8288 4.40311C12.8391 3.62541 14.9415 3.0699 17.0815 2.72231C18.562 2.48183 20.0487 2.34277 21.5247 2.34277V2.34277Z" stroke="#28464C" stroke-width="4.01234"/>
<path d="M20.9398 4.19937C20.8636 4.2009 20.8029 4.90359 20.7636 6.23682C20.7243 7.57005 20.7079 9.48684 20.716 11.7945C20.7242 14.1022 20.7565 16.7195 20.8098 19.3833C20.8631 22.0471 20.9356 24.6636 21.0198 26.9698C21.1041 29.276 21.1972 31.1906 21.2897 32.5211C21.3823 33.8517 21.4712 34.5514 21.5473 34.5499" stroke="white" stroke-width="1.04676"/>
<path d="M18.6235 4.42388C17.9954 4.5341 17.4994 5.33317 17.1853 6.74078C16.8713 8.14838 16.7503 10.1149 16.8345 12.4428C16.9188 14.7706 17.2052 17.3777 17.6651 20.002C18.125 22.6263 18.7422 25.1753 19.4546 27.3929C20.1669 29.6105 20.9494 31.4186 21.7233 32.6353C22.4973 33.8519 23.2354 34.4345 23.8636 34.3242" stroke="white" stroke-width="1.04676"/>
<path d="M16.1257 5.0861C15.0376 5.47633 14.2052 6.51988 13.7121 8.11189C13.219 9.70389 13.0825 11.7882 13.3165 14.1555C13.5505 16.5227 14.1466 19.0893 15.045 21.5974C15.9434 24.1056 17.1123 26.4668 18.4344 28.4438C19.7564 30.4207 21.185 31.9438 22.5764 32.86C23.9679 33.7761 25.2733 34.0529 26.3614 33.6627" stroke="white" stroke-width="1.04676"/>
<path d="M13.2965 6.44636C11.9377 7.28263 10.9701 8.70155 10.4909 10.5605C10.0117 12.4194 10.0377 14.6529 10.5665 17.0364C11.0952 19.4199 12.108 21.8695 13.503 24.1389C14.898 26.4083 16.6261 28.4176 18.5136 29.9649C20.4011 31.5121 22.3814 32.5428 24.2556 32.9532C26.1299 33.3637 27.8319 33.1396 29.1906 32.3033" stroke="white" stroke-width="1.04676"/>
<path d="M10.1193 9.05567C8.81007 10.4689 8.03789 12.334 7.88039 14.4636C7.72289 16.5932 8.18563 18.9121 9.22209 21.1874C10.2586 23.4627 11.8322 25.6141 13.7849 27.4254C15.7376 29.2367 18.0006 30.6441 20.3463 31.5061C22.692 32.3682 25.0379 32.6544 27.1481 32.3362C29.2583 32.018 31.0585 31.1064 32.3678 29.6932" stroke="white" stroke-width="1.04676"/>
<path d="M7.17193 13.7067C6.37837 15.6795 6.24899 17.8794 6.79679 20.0853C7.34459 22.2912 8.55027 24.4254 10.2926 26.2733C12.035 28.1213 14.2527 29.6179 16.7228 30.6128C19.1929 31.6076 21.8283 32.0657 24.3643 31.9408C26.9002 31.816 29.2473 31.1127 31.1695 29.9017C33.0918 28.6906 34.5216 27.0145 35.3152 25.0417" stroke="white" stroke-width="1.04676"/>
<path d="M6.10284 20.2969C6.30299 23.5863 8.09011 26.6439 11.0711 28.7969C14.052 30.95 17.9826 32.0221 21.9982 31.7774C26.0137 31.5328 29.7853 29.9915 32.4832 27.4925C35.1811 24.9935 36.5844 21.7416 36.3842 18.4521" stroke="white" stroke-width="1.04676"/>
<path d="M7.85767 26.5137C9.34005 29.2965 12.172 31.2132 15.7306 31.842C19.2891 32.4709 23.2827 31.7604 26.8329 29.8669C30.383 27.9733 33.1989 25.0519 34.6611 21.7452C36.1232 18.4385 36.1118 15.0175 34.6294 12.2346" stroke="white" stroke-width="1.04676"/>
<path d="M10.9861 30.5566C13.045 32.4477 16.1002 33.0832 19.4797 32.3234C22.8592 31.5636 26.2861 29.4707 29.0065 26.5051C31.727 23.5395 33.5181 19.9441 33.9859 16.51C34.4537 13.0758 33.5599 10.0841 31.501 8.19304" stroke="white" stroke-width="1.04676"/>
<path d="M14.0893 32.7588C16.0712 33.8195 18.7256 33.4266 21.4687 31.6667C24.2117 29.9067 26.8187 26.9238 28.7161 23.3741C30.6135 19.8244 31.6459 15.9987 31.5862 12.7387C31.5265 9.47868 30.3796 7.05132 28.3978 5.99062" stroke="white" stroke-width="1.04676"/>
<path d="M16.8186 33.8926C18.2985 34.3442 20.184 33.2477 22.0602 30.8444C23.9365 28.441 25.6498 24.9277 26.8234 21.0772C27.9969 17.2268 28.5346 13.3546 28.318 10.3126C28.1014 7.27059 27.1483 5.30789 25.6684 4.85628" stroke="white" stroke-width="1.04676"/>
<path d="M19.2523 34.4209C19.9872 34.5183 20.9018 33.0264 21.7949 30.2734C22.6881 27.5204 23.4865 23.7318 24.0146 19.7411C24.5427 15.7504 24.7573 11.8845 24.611 8.99377C24.4648 6.10306 23.9697 4.42437 23.2348 4.32698" stroke="white" stroke-width="1.04676"/>
<path d="M23.6223 4.38379C22.0657 4.13647 20.4213 4.13647 18.8648 4.38379" stroke="white" stroke-width="1.04676"/>
<path d="M28.9012 6.27246C27.9026 5.6881 26.7111 5.2239 25.3962 4.907C24.0814 4.59011 22.6696 4.42689 21.2435 4.42689C19.8175 4.42689 18.4057 4.59011 17.0908 4.907C15.776 5.2239 14.5844 5.6881 13.5859 6.27246" stroke="white" stroke-width="1.04676"/>
<path d="M31.8086 8.4834C30.7234 7.42937 29.1783 6.55589 27.3256 5.94911C25.4729 5.34232 23.3766 5.0232 21.2435 5.0232C19.1104 5.0232 17.0141 5.34232 15.1615 5.94911C13.3088 6.55589 11.7636 7.42937 10.6785 8.4834" stroke="white" stroke-width="1.04676"/>
<path d="M33.8695 10.9619C32.8929 9.49421 31.1628 8.23131 28.9083 7.34033C26.6537 6.44934 23.9809 5.97229 21.2435 5.97229C18.5062 5.97229 15.8334 6.44934 13.5788 7.34033C11.3242 8.23131 9.59415 9.49421 8.61754 10.9619" stroke="white" stroke-width="1.04676"/>
<path d="M35.2915 13.6484C34.5509 11.8289 32.7597 10.2067 30.2093 9.04548C27.6588 7.88424 24.499 7.25225 21.2435 7.25225C17.988 7.25225 14.8282 7.88424 12.2778 9.04548C9.72734 10.2067 7.93621 11.8289 7.19554 13.6484" stroke="white" stroke-width="1.04676"/>
<path d="M36.1331 16.4756C35.7243 14.3732 33.9796 12.4311 31.2327 11.0206C28.4857 9.61013 24.9293 8.83033 21.2435 8.83033C17.5578 8.83033 14.0013 9.61013 11.2544 11.0206C8.50742 12.4311 6.76273 14.3732 6.35397 16.4756" stroke="white" stroke-width="1.04676"/>
<path d="M36.4122 19.375C36.4122 17.8468 35.7114 16.3455 34.38 15.022C33.0487 13.6985 31.1338 12.5994 28.8279 11.8353C26.5219 11.0712 23.9062 10.6689 21.2435 10.6689C18.5809 10.6689 15.9651 11.0712 13.6592 11.8353C11.3532 12.5994 9.43836 13.6985 8.10702 15.022C6.77569 16.3455 6.0748 17.8468 6.0748 19.375" stroke="white" stroke-width="1.04676"/>
<path d="M36.1331 22.2734C36.4456 20.6658 35.9618 19.0402 34.7372 17.5834C33.5125 16.1265 31.5968 14.8974 29.2099 14.0373C26.823 13.1772 24.0618 12.7209 21.2435 12.7209C18.4252 12.7209 15.664 13.1772 13.2771 14.0373C10.8903 14.8974 8.9745 16.1265 7.74986 17.5834C6.52523 19.0402 6.04141 20.6658 6.35396 22.2734" stroke="white" stroke-width="1.04676"/>
<path d="M35.2915 25.1006C35.953 23.4755 35.7436 21.7737 34.6905 20.2181C33.6375 18.6626 31.7901 17.326 29.3905 16.3835C26.9909 15.4411 24.1512 14.9368 21.2435 14.9368C18.3359 14.9368 15.4962 15.4411 13.0966 16.3835C10.697 17.326 8.84956 18.6626 7.79654 20.2181C6.74351 21.7737 6.53403 23.4755 7.19554 25.1006" stroke="white" stroke-width="1.04676"/>
<path d="M33.8695 27.7871C34.9156 26.2149 35.0426 24.4901 34.2311 22.8729C33.4197 21.2557 31.7139 19.8338 29.3712 18.8217C27.0284 17.8097 24.1757 17.2624 21.2435 17.2624C18.3113 17.2624 15.4586 17.8097 13.1159 18.8217C10.7731 19.8338 9.06734 21.2557 8.2559 22.8729C7.44447 24.4901 7.5714 26.2149 8.61753 27.7871" stroke="white" stroke-width="1.04676"/>
<path d="M31.8086 30.2656C33.2836 28.833 33.8271 27.1469 33.3429 25.5061C32.8587 23.8654 31.378 22.3761 29.1633 21.3022C26.9486 20.2282 24.1429 19.639 21.2435 19.639C18.3442 19.639 15.5385 20.2282 13.3238 21.3022C11.109 22.3761 9.62832 23.8654 9.14411 25.5061C8.65991 27.1469 9.20347 28.833 10.6785 30.2656" stroke="white" stroke-width="1.04676"/>
<path d="M28.9012 32.4766C30.8846 31.3158 31.9876 29.7519 31.9692 28.1261C31.9509 26.5003 30.8128 24.9447 28.8033 23.7988C26.7938 22.6529 24.0762 22.0098 21.2435 22.0098C18.4109 22.0098 15.6932 22.6529 13.6838 23.7988C11.6743 24.9447 10.5362 26.5003 10.5178 28.1261C10.4995 29.7519 11.6024 31.3158 13.5859 32.4766" stroke="white" stroke-width="1.04676"/>
<path d="M23.6223 34.3652C25.7008 34.035 27.5004 33.2835 28.6875 32.25C29.8745 31.2165 30.3687 29.971 30.0783 28.7444C29.788 27.5178 28.7328 26.3932 27.1084 25.579C25.4839 24.7647 23.4003 24.316 21.2435 24.316C19.0868 24.316 17.0032 24.7647 15.3787 25.579C13.7542 26.3932 12.6991 27.5178 12.4087 28.7444C12.1184 29.971 12.6125 31.2165 13.7996 32.25C14.9867 33.2835 16.7862 34.035 18.8648 34.3652" stroke="white" stroke-width="1.04676"/>
<path d="M21.2435 26.5002C25.0468 26.5002 28.13 28.2698 28.13 30.4527C28.13 32.6357 25.0468 34.4053 21.2435 34.4053C17.4402 34.4053 14.3571 32.6357 14.3571 30.4527C14.3571 28.2698 17.4402 26.5002 21.2435 26.5002Z" stroke="white" stroke-width="1.04676"/>
<path d="M21.2435 28.5088C23.8323 28.5088 25.9309 29.7133 25.9309 31.1992C25.9309 32.6851 23.8323 33.8896 21.2435 33.8896C18.6547 33.8896 16.5561 32.6851 16.5561 31.1992C16.5561 29.7133 18.6547 28.5088 21.2435 28.5088Z" stroke="white" stroke-width="1.04676"/>
<path d="M21.2435 30.2925C22.5541 30.2925 23.6164 30.9023 23.6164 31.6545C23.6164 32.4068 22.5541 33.0166 21.2435 33.0166C19.933 33.0166 18.8706 32.4068 18.8706 31.6545C18.8706 30.9023 19.933 30.2925 21.2435 30.2925Z" stroke="white" stroke-width="1.04676"/>
<path d="M21.2435 4.19612C29.621 4.19612 36.4123 10.9917 36.4123 19.3744C36.4123 27.7572 29.621 34.5527 21.2435 34.5527C12.8661 34.5527 6.07481 27.7572 6.07481 19.3744C6.07481 10.9917 12.8661 4.19612 21.2435 4.19612Z" stroke="white" stroke-width="1.04676"/>
<path d="M21.134 34.3936V38.9501L21.4612 38.8995V40.3671C21.6572 40.3633 21.8533 40.3633 22.0493 40.3671C22.2222 40.3703 22.3958 40.3767 22.5658 40.4087C22.9487 40.4807 23.3002 40.6826 23.5851 40.9486C23.8401 41.1867 24.0461 41.4775 24.1847 41.7978C24.3179 42.1057 24.3882 42.4379 24.4245 42.7715C24.4657 43.1515 24.4633 43.5398 24.3738 43.9114C24.2796 44.3025 24.09 44.6681 23.8387 44.9821C23.4454 45.4737 22.9053 45.8363 22.3214 46.0712C22.062 46.1756 21.793 46.256 21.5189 46.3112C21.285 46.2959 21.0525 46.2603 20.8247 46.2051C20.3648 46.0934 19.9244 45.9007 19.531 45.6374C18.9595 45.255 18.4889 44.722 18.1844 44.1052C17.9896 43.7108 17.8623 43.2827 17.8154 42.8453C17.7607 42.3348 17.816 41.8142 17.9629 41.3224C18.129 40.7665 18.4136 40.244 18.8069 39.8179C19.1244 39.4738 19.5113 39.1942 19.9374 39.0007V34.3936H21.134Z" fill="black"/>
<path d="M20.186 16.9018C19.2239 16.1415 18.4527 15.1412 17.9619 14.0171C17.6779 13.3669 17.4864 12.6742 17.4205 11.9677C17.3802 11.5358 17.3867 11.0995 17.4401 10.6689C17.8053 10.8595 18.1585 11.0733 18.4967 11.3086C19.0989 11.7274 19.6536 12.2144 20.1469 12.7575" fill="#2A8763"/>
<path d="M21.5765 4.65527L19.0067 9.38703V31.5196H17.1726L15.3724 33.1465H21.5765H27.7805L25.9803 31.5196H24.1462H21.5765V4.65527Z" fill="black"/>
<path d="M29.0873 21.0947L26.6567 23.1715C25.7931 23.9094 24.9747 24.6976 24.1462 25.4747V27.5981C24.4789 27.312 24.8104 27.0245 25.1394 26.7342C25.7166 26.2249 26.2881 25.7091 26.855 25.1882C27.2107 24.8614 27.5651 24.5321 27.8881 24.1729C28.2667 23.7521 28.602 23.2895 28.8566 22.7838C29.0019 22.4953 29.1215 22.19 29.1657 21.8701C29.1819 21.7524 29.1879 21.6331 29.1795 21.5146C29.1694 21.3712 29.1382 21.2292 29.0873 21.0947Z" fill="white"/>
<path d="M25.6779 24.5378C25.4237 23.2856 25.0564 22.0563 24.5822 20.8699C24.3154 20.2026 24.0149 19.5488 23.6821 18.9119L23.9169 17.8154C24.3003 18.419 24.6447 19.0472 24.9474 19.6951C25.7668 21.4489 26.277 23.3468 26.4476 25.2753L25.6779 24.5378Z" fill="#2A8763"/>
<path d="M21.5765 4.65527L24.1462 9.38705V31.5196L21.5765 32.4025V4.65527Z" fill="white"/>
<path d="M15.3724 33.1465L17.1726 34.7733H19.0067H21.5765H24.1462H25.9803L27.7805 33.1465H21.5765H15.3724Z" fill="white"/>
<path d="M21.5765 4.65527L22.3477 9.35701L22.3384 38.899H21.5765L21.5765 4.65527Z" fill="black"/>
<path d="M21.5765 4.65527L20.8054 9.35701L20.8146 38.899H21.5766L21.5765 4.65527Z" fill="white"/>
<path d="M30.812 12.875H26.2193V17.4798H30.812V12.875Z" fill="white"/>
<path d="M14.655 23.1025C15.9984 23.1025 17.0875 22.0128 17.0875 20.6685C17.0875 19.3242 15.9984 18.2344 14.655 18.2344C13.3115 18.2344 12.2224 19.3242 12.2224 20.6685C12.2224 22.0128 13.3115 23.1025 14.655 23.1025Z" fill="white"/>
<path d="M20.9055 33.1169C20.1691 32.5093 19.4327 31.9016 18.7847 31.3286C18.1367 30.7556 17.5771 30.2172 17.1512 29.7941C16.7254 29.3711 16.4333 29.0634 16.2165 28.8196C15.9997 28.5757 15.8583 28.3958 15.7388 28.2365C15.6193 28.0773 15.5218 27.9389 15.4572 27.8027C15.3926 27.6665 15.3615 27.5349 15.3455 27.4169C15.3295 27.2989 15.3295 27.1989 15.3295 26.5697C15.3295 25.9406 15.3295 24.7818 15.3295 24.1382C15.3295 23.4946 15.3295 23.3653 15.3295 23.2526C15.3295 23.1399 15.3295 23.0436 15.3295 22.9851C15.3295 22.9266 15.3295 22.9061 15.0797 22.8851C14.8299 22.8642 14.3325 22.8431 14.0828 22.846C13.8331 22.8488 13.8332 22.8757 13.8332 22.9233C13.8332 22.9708 13.8332 23.0389 13.8332 23.139C13.8332 23.2391 13.8331 23.3716 13.8331 24.0396C13.8331 24.7076 13.8331 25.9122 13.8331 26.6661C13.8331 27.4199 13.8331 27.7197 13.8709 27.9771C13.9086 28.2346 13.9822 28.4368 14.0978 28.6498C14.2135 28.8628 14.3702 29.0838 14.5785 29.319C14.7868 29.5541 15.0435 29.8003 15.7443 30.4558C16.445 31.1114 17.5883 32.1749 18.4138 32.9456C19.2394 33.7163 19.7473 34.1942 20.0431 34.5053C20.3388 34.8164 20.4212 34.9583 20.4881 35.089C20.5549 35.2198 20.6057 35.3382 20.6571 35.549C20.7085 35.7598 20.7607 36.0627 20.7867 36.6351C20.8128 37.2074 20.8128 38.0488 20.8128 38.8904" fill="white"/>
<path d="M24.1462 25.4746C24.1267 25.4929 24.1073 25.5113 24.0878 25.5296C23.6574 25.9328 23.2155 26.3238 22.7918 26.7341C22.5715 26.9475 22.3561 27.166 22.1461 27.3894L22.2476 29.1801C22.8244 28.7053 23.5798 28.0851 24.1462 27.598V25.4746Z" fill="black"/>
<path d="M22.3384 34.3936V38.9501L21.5765 38.8995V40.3671C21.3805 40.3633 21.1844 40.3633 20.9885 40.3671C20.8155 40.3703 20.6419 40.3767 20.4719 40.4087C20.089 40.4807 19.7375 40.6826 19.4527 40.9486C19.1976 41.1867 18.9916 41.4775 18.8531 41.7978C18.7199 42.1057 18.6495 42.4379 18.6133 42.7715C18.572 43.1515 18.5745 43.5398 18.6639 43.9114C18.7581 44.3025 18.9477 44.6681 19.199 44.9821C19.5924 45.4737 20.1324 45.8363 20.7163 46.0712C20.9757 46.1756 21.2448 46.256 21.5189 46.3112C21.7527 46.2959 21.9852 46.2603 22.213 46.2051C22.673 46.0934 23.1133 45.9007 23.5067 45.6374C24.0782 45.255 24.5488 44.722 24.8534 44.1052C25.0481 43.7108 25.1755 43.2827 25.2224 42.8453C25.2771 42.3348 25.2217 41.8142 25.0748 41.3224C24.9088 40.7665 24.6241 40.244 24.2308 39.8179C23.9133 39.4738 23.5265 39.1942 23.1003 39.0007V34.3936H22.3384Z" fill="white"/>
<path d="M26.5184 24.002C26.515 24.0162 26.5104 24.0301 26.5045 24.0435C26.4864 24.0851 26.4565 24.1215 26.4192 24.1473" stroke="black" stroke-width="0.308642"/>
<path d="M21.0069 40.0479C21.5775 39.7099 22.1263 39.3351 22.6488 38.9265C23.4229 38.3212 24.1425 37.638 24.7256 36.8468C25.1719 36.2414 25.536 35.5754 25.8046 34.8727C26.075 34.8814 26.3459 34.8727 26.6152 34.8468C27.7082 34.7417 28.7647 34.3506 29.7007 33.7762C30.6151 33.215 31.4216 32.4774 32.0569 31.6125C32.7091 30.7247 33.1796 29.7039 33.4311 28.6312C33.1043 28.6825 32.7795 28.7474 32.458 28.8257C31.6326 29.0266 30.8273 29.3167 30.0743 29.7103C29.5168 30.0017 28.9893 30.3491 28.4923 30.7349C27.7144 31.3388 27.0103 32.0379 26.4008 32.8116C26.4291 32.675 26.4523 32.5373 26.4704 32.399C26.4888 32.2581 26.5019 32.1166 26.5095 31.9747C26.5907 31.8359 26.6767 31.6998 26.7672 31.5668C27.0871 31.0968 27.4649 30.6653 27.8956 30.2941C28.1977 30.0338 28.5251 29.8036 28.8218 29.5371C29.4428 28.9791 29.914 28.2759 30.351 27.5644C30.8535 26.7463 31.3225 25.9008 31.6378 24.9938C31.9995 23.953 32.1526 22.8401 32.0851 21.7402C31.8219 21.8255 31.564 21.9272 31.3133 22.0445C30.7998 22.285 30.3171 22.5915 29.8817 22.955C29.2136 23.5127 28.6607 24.2011 28.2152 24.9489C27.386 26.3406 26.9249 27.9497 26.8911 29.5697C26.8738 29.5934 26.8541 29.6153 26.8324 29.635C26.804 29.6608 26.7721 29.6828 26.7378 29.7002C26.7695 28.9695 26.7619 28.2372 26.715 27.5073C26.6669 26.7591 26.5776 26.0136 26.4476 25.2752L25.7105 25.236C25.9751 26.5853 26.0608 27.9696 25.9649 29.3413C25.9429 29.6561 25.9113 29.9707 25.854 30.2811C25.8115 30.5116 25.7548 30.7395 25.6844 30.9631C25.6543 30.9611 25.6245 30.9545 25.5964 30.9435C25.5769 30.936 25.5581 30.9263 25.5406 30.9149C24.8588 29.509 23.8967 28.24 22.7272 27.2044C22.0299 26.5869 21.2589 26.0514 20.4304 25.6261C19.931 25.3697 19.4114 25.1536 18.8807 24.9707C18.3853 24.8 17.8799 24.6582 17.368 24.5462C17.5713 25.3406 17.8693 26.1108 18.2535 26.8352C18.5466 27.3877 18.8914 27.9159 19.3143 28.3766C19.891 29.005 20.6016 29.4965 21.3405 29.9221C22.1355 30.3801 22.9722 30.7688 23.8451 31.0512C24.4401 31.2437 25.0511 31.3866 25.6697 31.4779C25.6767 32.9842 25.1984 34.489 24.323 35.7145C23.6993 36.5876 22.884 37.3151 21.9801 37.8927C21.4938 38.2035 20.9809 38.4725 20.4489 38.6957L21.0069 40.0479Z" fill="#2A8763"/>
<path d="M26.7489 24.4632C27.2969 23.9487 27.7896 23.3751 28.2156 22.7557C29.1292 21.4272 29.7299 19.8925 30.0235 18.3068C30.2593 17.0338 30.2998 15.7247 30.1434 14.4395C29.6103 14.8159 29.1202 15.2535 28.686 15.7409C27.656 16.8972 26.9503 18.3299 26.6014 19.839C26.2865 21.2009 26.258 22.6284 26.5183 24.0017L26.7489 24.4632Z" fill="#2A8763"/>
<path d="M25.5867 24.2786C25.3221 23.9215 25.0452 23.5736 24.7565 23.2357C23.7759 22.0876 22.6495 21.0485 21.3436 20.2913C19.911 19.4607 18.2751 18.9843 16.6208 18.916C16.8636 19.4015 17.1284 19.8759 17.4141 20.3374C18.0181 21.3131 18.7281 22.2433 19.6463 22.9311C20.1181 23.2845 20.6387 23.5691 21.1776 23.8079C22.476 24.3835 23.8901 24.6962 25.31 24.7217L25.5867 24.2786Z" fill="#2A8763"/>
<path d="M26.0693 25.4056C26.5052 25.4056 26.8585 25.052 26.8585 24.6159C26.8585 24.1797 26.5052 23.8262 26.0693 23.8262C25.6334 23.8262 25.2801 24.1797 25.2801 24.6159C25.2801 25.052 25.6334 25.4056 26.0693 25.4056Z" fill="#2A8763"/>
</svg>
