<svg width="42" height="48" viewBox="0 0 42 48" fill="none" xmlns="http://www.w3.org/2000/svg">
<path fill-rule="evenodd" clip-rule="evenodd" d="M21.0705 0C34.6728 0 40.0955 7.32927 40.896 8.49129C37.1619 39.1507 20.5368 48 20.5368 48H20.3592C20.3592 48 3.73412 39.1507 0 8.49129C0.800533 7.32927 6.22325 0 19.8255 0H21.0705Z" fill="url(#paint0_radial_422_9272)"/>
<path fill-rule="evenodd" clip-rule="evenodd" d="M21.0705 0H19.8255C6.22325 0 0.800533 7.32927 0 8.49129C3.73412 39.1507 20.3592 48 20.3592 48H20.5368C20.5368 48 37.1619 39.1507 40.896 8.49129C40.0955 7.32927 34.6728 0 21.0705 0ZM34.6277 26.8C32.8626 31.19 30.6684 35.1332 28.1053 38.5253C24.8369 42.8469 21.786 45.1582 20.4476 46.0528C19.1125 45.1599 16.0599 42.8487 12.7907 38.5253C10.2276 35.1375 8.03167 31.1943 6.26829 26.8042C4.12759 21.4811 2.61405 15.4822 1.77188 8.96465C3.33045 6.99434 8.56281 1.71313 19.8255 1.71313H21.0705C32.334 1.71313 37.5656 6.99434 39.1241 8.96465C38.2794 15.4779 36.7684 21.4769 34.6277 26.8Z" fill="url(#paint1_radial_422_9272)"/>
<path fill-rule="evenodd" clip-rule="evenodd" d="M21.0705 0H19.8255C6.22325 0 0.800533 7.32927 0 8.49129C3.73412 39.1507 20.3592 48 20.3592 48H20.5368C20.5368 48 37.1619 39.1507 40.896 8.49129C40.0955 7.32927 34.6728 0 21.0705 0ZM34.6277 26.8C32.8626 31.19 30.6684 35.1332 28.1053 38.5253C24.8369 42.8469 21.786 45.1582 20.4476 46.0528C19.1125 45.1599 16.0599 42.8487 12.7907 38.5253C10.2276 35.1375 8.03167 31.1943 6.26829 26.8042C4.12759 21.4811 2.61405 15.4822 1.77188 8.96465C3.33045 6.99434 8.56281 1.71313 19.8255 1.71313H21.0705C32.334 1.71313 37.5656 6.99434 39.1241 8.96465C38.2794 15.4779 36.7684 21.4769 34.6277 26.8Z" fill="url(#paint2_radial_422_9272)"/>
<path fill-rule="evenodd" clip-rule="evenodd" d="M21.0705 0H19.8255C6.22325 0 0.800533 7.32927 0 8.49129C3.73412 39.1507 20.3592 48 20.3592 48H20.5368C20.5368 48 37.1619 39.1507 40.896 8.49129C40.0955 7.32927 34.6728 0 21.0705 0ZM34.6277 26.8C32.8626 31.19 30.6684 35.1332 28.1053 38.5253C24.8369 42.8469 21.786 45.1582 20.4476 46.0528C19.1125 45.1599 16.0599 42.8487 12.7907 38.5253C10.2276 35.1375 8.03167 31.1943 6.26829 26.8042C4.12759 21.4811 2.61405 15.4822 1.77188 8.96465C3.33045 6.99434 8.56281 1.71313 19.8255 1.71313H21.0705C32.334 1.71313 37.5656 6.99434 39.1241 8.96465C38.2794 15.4779 36.7684 21.4769 34.6277 26.8Z" fill="url(#paint3_radial_422_9272)"/>
<path fill-rule="evenodd" clip-rule="evenodd" d="M21.0705 0H19.8255C6.22325 0 0.800533 7.32927 0 8.49129C3.73412 39.1507 20.3592 48 20.3592 48H20.5368C20.5368 48 37.1619 39.1507 40.896 8.49129C40.0955 7.32927 34.6728 0 21.0705 0ZM34.6277 26.8C32.8626 31.19 30.6684 35.1332 28.1053 38.5253C24.8369 42.8469 21.786 45.1582 20.4476 46.0528C19.1125 45.1599 16.0599 42.8487 12.7907 38.5253C10.2276 35.1375 8.03167 31.1943 6.26829 26.8042C4.12759 21.4811 2.61405 15.4822 1.77188 8.96465C3.33045 6.99434 8.56281 1.71313 19.8255 1.71313H21.0705C32.334 1.71313 37.5656 6.99434 39.1241 8.96465C38.2794 15.4779 36.7684 21.4769 34.6277 26.8Z" fill="url(#paint4_radial_422_9272)"/>
<path d="M30.3123 37.3921C30.3533 37.4228 30.3836 37.4657 30.399 37.5147C30.4144 37.5637 30.4141 37.6164 30.3981 37.6652C30.3822 37.714 30.3513 37.7566 30.31 37.7868C30.2687 37.8171 30.219 37.8335 30.1678 37.8338L26.0887 37.8518C26.0887 37.8518 24.882 37.8859 23.5579 35.0663L27.162 31.6888C27.426 32.6462 27.7566 33.5838 28.1512 34.4947C28.8183 36.0566 29.7013 36.9332 30.3123 37.3921ZM40.732 9.76247L27.7637 22.8027L34.0643 21.4758L16.9837 40.6603H13.1909L28.3815 24.1425C28.3815 24.1425 26.8518 24.4902 25.8711 24.7038L25.8151 24.7594C25.9 25.1669 25.9808 25.595 26.0598 26.0496L21.8914 30.0252L20.9311 30.9403H19.6683L19.2791 31.3316C19.3534 31.4052 19.4513 31.45 19.5553 31.4581H20.3889L19.0802 32.7064C18.9408 32.4877 18.7981 32.2407 18.6553 31.9605L11.295 39.3607C10.1968 37.8883 9.18352 36.3538 8.26027 34.7647L13.9974 28.9965C13.8615 28.7743 13.7212 28.524 13.5793 28.242L6.78583 29.8184L12.2043 24.5509C11.3468 21.6458 11.2644 19.8011 10.6381 17.1336C9.87323 13.8911 9.16023 12.2702 8.6223 11.4141C8.25772 10.8339 7.81072 10.1495 7.19629 9.69924C7.154 9.66912 7.12231 9.62627 7.10579 9.57688C7.08927 9.52749 7.08877 9.4741 7.10437 9.42441C7.11996 9.37471 7.15084 9.33128 7.19256 9.30036C7.23428 9.26944 7.28469 9.25264 7.33651 9.25237H11.148C11.4916 9.25239 11.8244 9.3733 12.0887 9.59414C12.8214 10.2172 13.4113 10.9922 13.8181 11.8661C13.966 12.1788 14.1087 12.4966 14.2481 12.8264H16.1704C16.5121 12.8525 16.8379 12.9817 17.1052 13.1973C17.838 13.8202 18.4279 14.5953 18.8346 15.4692C18.974 15.7623 19.1083 16.0613 19.2391 16.3697H20.6201L25.5763 11.5508L22.1047 11.6644L29.9435 7.20602L29.5398 14.2123L27.8402 12.2309L13.7246 26.0795L14.4572 26.0265C14.4334 25.9695 14.4096 25.9126 14.3858 25.8556L16.3353 24.2783L17.3143 23.4094C17.3527 23.4762 17.4063 23.5329 17.4707 23.5749C17.5351 23.617 17.6085 23.6431 17.6848 23.6512H19.3199L19.8349 23.1342H17.6253L19.24 21.6988H19.9198C19.9471 21.7015 19.9745 21.6959 19.9985 21.6826C20.0224 21.6694 20.0418 21.6491 20.0541 21.6245C20.0244 21.5305 19.9955 21.4382 19.9691 21.3485C19.9193 21.2923 19.8586 21.247 19.7907 21.2152L20.5598 20.5317L23.3871 18.0179C23.597 18.3248 23.7823 18.6479 23.9412 18.9843L23.9471 18.9971L28.5532 14.367L29.8594 15.6734L31.2718 11.6328L37.6998 5.16992C39.5873 6.67799 40.5892 8.04421 40.896 8.49193C40.8433 8.92 40.732 9.76247 40.732 9.76247ZM17.7638 17.4036C17.8301 17.3993 17.8965 17.4107 17.9576 17.4369C17.8922 17.3609 17.8335 17.2797 17.7638 17.2079H15.6843C15.6566 17.2073 15.6292 17.2135 15.6044 17.2259C15.6121 17.2643 15.6206 17.3036 15.6291 17.3421C15.6452 17.366 15.6639 17.4036 15.6843 17.4036H17.7638ZM15.2356 15.7153C15.2042 15.4777 15.1727 15.4017 15.1413 15.3786C15.1727 15.4897 15.205 15.6008 15.2356 15.7153ZM16.3616 19.5807C16.3285 19.5303 16.2996 19.4807 16.2766 19.4406C16.2615 19.4085 16.2517 19.3742 16.2478 19.3389C16.2452 19.3846 16.2552 19.4301 16.2766 19.4705C16.2996 19.5111 16.3282 19.5482 16.3616 19.5807ZM17.6976 19.2141H17.5811L17.378 19.5251L17.6976 19.2141ZM18.2015 17.7274C18.1811 17.7001 18.1565 17.6762 18.1352 17.6488C18.1463 17.6727 18.1582 17.6992 18.1692 17.7274H18.2015ZM15.0979 15.2291C15.1115 15.2744 15.1243 15.3231 15.1379 15.3701H17.7451C17.8208 15.3674 17.8958 15.3847 17.9626 15.4204C18.0294 15.4561 18.0858 15.5089 18.1259 15.5734C18.1376 15.5964 18.1461 15.6208 18.1514 15.646C18.1628 15.5917 18.1537 15.5351 18.1259 15.4871C18.088 15.4165 18.0335 15.3562 17.9671 15.3115C17.9008 15.2668 17.8246 15.2391 17.7451 15.2308L15.0979 15.2291ZM14.4648 13.3613C14.53 13.5322 14.5946 13.7048 14.6586 13.8791H16.4534C16.5656 13.8791 16.6149 13.7979 16.5885 13.6903C16.5681 13.7227 16.5214 13.7381 16.4534 13.7381H14.6586C14.605 13.7381 14.5507 13.4527 14.4963 13.3613H14.4648Z" fill="#1D0D45"/>
<path fill-rule="evenodd" clip-rule="evenodd" d="M37.45 3.94163L31.7205 9.70218L30.3072 13.7462L29.001 12.4389L6.87251 34.6848C6.74967 34.8083 6.67269 34.9704 6.65444 35.1441C6.63619 35.3178 6.67777 35.4926 6.77223 35.6392L8.91888 38.9672C8.98027 39.0625 9.06212 39.1429 9.15841 39.2023C9.25471 39.2618 9.36301 39.2988 9.47539 39.3107C9.58776 39.3225 9.70136 39.309 9.80784 39.271C9.91433 39.233 10.011 39.1715 10.0908 39.091L41.7781 7.23288C41.8571 7.15339 41.9177 7.05731 41.9554 6.95153C41.9932 6.84575 42.0072 6.73288 41.9965 6.62101C41.9858 6.50914 41.9506 6.40104 41.8934 6.30445C41.8363 6.20786 41.7586 6.12518 41.6659 6.06232L38.4111 3.8485C38.2651 3.74927 38.0893 3.70429 37.9139 3.72129C37.7385 3.73829 37.5744 3.8162 37.45 3.94163Z" fill="white"/>
<path fill-rule="evenodd" clip-rule="evenodd" d="M13.2547 24.4687C11.8049 20.4136 11.8355 18.4022 11.0859 15.2075C10.3211 11.9658 9.60808 10.3441 9.07015 9.48885C8.70557 8.90784 8.25857 8.22344 7.645 7.77316C7.60258 7.74326 7.57073 7.70056 7.55407 7.65124C7.5374 7.60193 7.53679 7.54856 7.55232 7.49887C7.56785 7.44918 7.59871 7.40575 7.64043 7.37488C7.68215 7.344 7.73256 7.32729 7.78437 7.32715H11.5958C11.9395 7.32709 12.2723 7.44801 12.5366 7.66892C13.2693 8.2919 13.8593 9.06695 14.266 9.94084C15.1362 11.7855 15.856 13.8319 16.4381 17.3248C16.6489 18.5834 16.8239 19.6454 17.0151 20.6143L13.2547 24.4687ZM20.6379 28.3486C20.0261 27.8898 19.1473 27.0131 18.4768 25.453C17.9784 24.304 17.5822 23.1128 17.293 21.8934L13.5394 25.2257C14.9917 28.8493 16.416 28.8083 16.416 28.8083L20.4952 28.7895C20.5462 28.7891 20.5958 28.7727 20.637 28.7424C20.6781 28.7121 20.7088 28.6696 20.7246 28.6208C20.7404 28.572 20.7405 28.5195 20.725 28.4706C20.7094 28.4218 20.679 28.3791 20.6379 28.3486Z" fill="#262625"/>
<path fill-rule="evenodd" clip-rule="evenodd" d="M20.9999 18.6018L20.2351 19.2854C20.3384 19.3318 20.424 19.4106 20.479 19.5101C20.5529 19.6528 20.5028 19.7664 20.3668 19.7664H19.687L18.0723 21.201H20.7008C20.7803 21.2092 20.8565 21.2368 20.9229 21.2815C20.9893 21.3262 21.0437 21.3866 21.0815 21.4573C21.1563 21.6 21.1062 21.7137 20.9702 21.7137H18.1335C18.057 21.7054 17.9835 21.6791 17.9189 21.637C17.8544 21.5948 17.8007 21.5379 17.7621 21.471L16.7831 22.3399C17.0806 24.0223 17.4307 25.7577 18.3426 28.262C18.7445 29.3668 19.149 30.1776 19.5281 30.7714L20.8368 29.5231H20.0031C19.9237 29.5148 19.8475 29.4871 19.7811 29.4424C19.7148 29.3977 19.6603 29.3375 19.6224 29.2668C19.5484 29.1241 19.5986 29.0105 19.7346 29.0105H21.379L22.9086 27.552C22.2177 25.562 21.9229 23.731 21.4554 20.9259C21.3127 20.0689 21.1614 19.2999 20.9999 18.6018ZM18.0383 23.4422C17.9635 23.2995 18.0137 23.1858 18.1496 23.1858H20.9872C21.0666 23.1942 21.1428 23.222 21.2091 23.2666C21.2754 23.3113 21.33 23.3715 21.3679 23.4422C21.4419 23.5848 21.3917 23.6985 21.2557 23.6985H18.4216C18.3422 23.6902 18.266 23.6625 18.1996 23.6178C18.1333 23.5731 18.0788 23.5128 18.0409 23.4422H18.0383ZM22.2526 27.3153C22.3265 27.458 22.2764 27.5716 22.1404 27.5716H19.3062C19.2268 27.5633 19.1506 27.5356 19.0843 27.4909C19.0179 27.4462 18.9634 27.3859 18.9255 27.3153C18.8507 27.1726 18.9009 27.0589 19.0369 27.0589H21.8744C21.9538 27.0673 22.03 27.0951 22.0963 27.1397C22.1627 27.1844 22.2172 27.2447 22.2551 27.3153H22.2526ZM21.6917 25.3339C21.7665 25.4765 21.7163 25.5902 21.5804 25.5902H18.7454C18.666 25.5818 18.5898 25.5541 18.5235 25.5094C18.4571 25.4647 18.4026 25.4045 18.3646 25.3339C18.2907 25.1903 18.3409 25.0775 18.4768 25.0775H21.3135C21.393 25.0856 21.4693 25.1133 21.5357 25.158C21.6021 25.2027 21.6565 25.2631 21.6943 25.3339H21.6917ZM12.6615 11.3759C13.2751 11.8262 13.7221 12.5106 14.0866 13.0908C14.6246 13.9452 15.341 15.5686 16.1024 18.8103C16.2936 19.6254 16.4347 20.3637 16.5613 21.0788L17.8412 19.7673H17.5284C17.449 19.7589 17.3728 19.7312 17.3064 19.6866C17.2401 19.6419 17.1856 19.5816 17.1477 19.5109C17.0738 19.3683 17.1239 19.2546 17.2599 19.2546H18.3459L19.7601 17.8021H17.1078C17.0283 17.794 16.9519 17.7665 16.8855 17.7218C16.8191 17.6771 16.7647 17.6166 16.727 17.5458C16.6523 17.4031 16.7024 17.2894 16.8384 17.2894H19.6751C19.7493 17.2971 19.8207 17.3219 19.8838 17.3619C19.9469 17.4019 20 17.4561 20.0388 17.5201L20.5801 16.9656C20.2417 15.7925 19.8076 14.6494 19.2825 13.5479C18.8769 12.6711 18.2869 11.8933 17.5531 11.2683C17.286 11.0524 16.96 10.9231 16.6183 10.8975H12.806C12.7521 10.9012 12.7007 10.9212 12.6585 10.955C12.6162 10.9888 12.5852 11.0347 12.5695 11.0866C12.5539 11.1385 12.5543 11.194 12.5707 11.2457C12.5871 11.2973 12.6188 11.3428 12.6615 11.3759ZM19.3504 15.5404C19.4244 15.6831 19.3742 15.7967 19.2383 15.7967H16.4016C16.3221 15.7886 16.2458 15.7609 16.1795 15.7162C16.1131 15.6715 16.0586 15.6112 16.0208 15.5404C15.9461 15.3977 15.9962 15.2841 16.1322 15.2841H18.9689C19.0484 15.2924 19.1248 15.32 19.1913 15.3647C19.2578 15.4094 19.3124 15.4697 19.3504 15.5404ZM18.1955 13.2975C18.275 13.3059 18.3512 13.3336 18.4175 13.3783C18.4839 13.4229 18.5383 13.4832 18.5763 13.5539C18.6502 13.6966 18.6 13.8102 18.4641 13.8102H15.6248C15.5454 13.8019 15.4692 13.7742 15.4028 13.7295C15.3365 13.6848 15.282 13.6245 15.2441 13.5539C15.1702 13.4112 15.2203 13.2975 15.3563 13.2975H18.1955ZM13.7986 11.4323H16.6353C16.7147 11.4407 16.7909 11.4684 16.8572 11.513C16.9236 11.5577 16.9781 11.618 17.016 11.6887C17.0899 11.8314 17.0398 11.945 16.9038 11.945H14.0645C13.9851 11.9367 13.9089 11.909 13.8426 11.8643C13.7762 11.8196 13.7217 11.7593 13.6838 11.6887C13.6065 11.5485 13.66 11.4323 13.796 11.4323H13.7986Z" fill="#CCCB32"/>
<path fill-rule="evenodd" clip-rule="evenodd" d="M30.6157 35.9055L26.5365 35.9243C26.5365 35.9243 25.334 35.9619 24.0083 33.1422L27.6099 29.7673C27.8737 30.7246 28.2045 31.662 28.5999 32.5723C29.2704 34.1325 30.1491 35.0092 30.7602 35.4671C30.7998 35.4983 30.8288 35.541 30.8434 35.5894C30.8579 35.6377 30.8572 35.6895 30.8414 35.7374C30.8256 35.7854 30.7954 35.8273 30.755 35.8574C30.7146 35.8875 30.666 35.9043 30.6157 35.9055ZM17.7706 14.8891C18.385 15.3394 18.8321 16.0238 19.1966 16.604C19.4252 16.9758 19.626 17.3642 19.7975 17.766L22.6868 14.8037L22.6631 14.7832C22.3988 14.5623 22.066 14.4414 21.7223 14.4414H17.9074C17.8557 14.4421 17.8055 14.4593 17.7641 14.4906C17.7226 14.5218 17.6921 14.5654 17.6769 14.6152C17.6617 14.6649 17.6626 14.7183 17.6794 14.7675C17.6963 14.8167 17.7282 14.8593 17.7706 14.8891ZM24.3924 17.0542C24.2335 16.7179 24.0482 16.3947 23.8384 16.0879L20.3371 19.192C20.615 20.0191 20.909 21.0453 21.209 22.3235C21.7087 24.4536 21.8617 26.059 22.3393 28.0969L26.5076 24.1221C25.9349 20.824 25.2355 18.8443 24.389 17.0542H24.3924Z" fill="#DB0812"/>
<path d="M28.2107 20.8733L34.5121 19.5464L17.4307 38.7308H13.6388L28.8294 22.2139C28.8294 22.2139 27.2997 22.5617 26.319 22.7753L28.2107 20.8733ZM22.5526 9.73672L26.0241 9.62394L7.23283 27.8924L14.0314 26.316C13.8946 26.0417 13.7552 25.7376 13.615 25.4001L12.8816 25.4531L28.2863 10.2989L29.986 12.2803L30.3896 5.27832L22.5526 9.73672Z" fill="#FFDE00"/>
<g opacity="0.7">
<path fill-rule="evenodd" clip-rule="evenodd" d="M7.23283 27.8924L26.0241 9.62394L22.6835 9.69998L30.3913 5.27832L30.3531 5.94136L24.6457 9.06941C24.6287 9.07858 24.6153 9.09328 24.6077 9.1111C24.6002 9.12892 24.5988 9.1488 24.604 9.16748C24.6091 9.18615 24.6204 9.20252 24.636 9.21389C24.6516 9.22526 24.6706 9.23096 24.6899 9.23005L26.8144 9.1446C26.8546 9.14282 26.8943 9.1534 26.9283 9.17494C26.9623 9.19647 26.9889 9.22793 27.0046 9.2651C27.0203 9.30227 27.0243 9.34338 27.0162 9.38292C27.008 9.42247 26.988 9.45856 26.9589 9.48637L8.17614 27.6737L7.23283 27.8924ZM14.3781 38.7308L29.4599 22.1413C29.4989 22.0987 29.5233 22.0448 29.5299 21.9874C29.5364 21.93 29.5247 21.8719 29.4964 21.8216C29.4681 21.7713 29.4246 21.7313 29.3722 21.7073C29.3199 21.6834 29.2613 21.6768 29.205 21.6884L26.9819 22.1054L26.3156 22.7753L28.826 22.2139L13.6388 38.7308H14.3781ZM7.645 7.77325C8.25857 8.22353 8.70558 8.90793 9.07015 9.48894C9.60809 10.3434 10.3245 11.9668 11.0859 15.2076C11.1582 15.5161 11.2236 15.8134 11.2839 16.1031L11.2882 16.0988C11.3923 16.0022 11.4692 15.8796 11.5112 15.7436C11.5531 15.6075 11.5586 15.4627 11.527 15.3238C11.5108 15.2546 11.4955 15.1854 11.4785 15.1145C10.8437 12.4128 10.1477 10.4459 9.41093 9.27191C9.071 8.73277 8.70303 8.17825 8.22798 7.73394H10.4443C10.8295 7.73495 11.2011 7.5911 11.4862 7.33065H7.78097C7.73035 7.33244 7.68154 7.35003 7.64132 7.38098C7.60109 7.41193 7.57144 7.4547 7.5565 7.50335C7.54155 7.55201 7.54204 7.60414 7.5579 7.6525C7.57376 7.70087 7.6042 7.74307 7.645 7.77325ZM16.6183 10.8996C16.96 10.9252 17.286 11.0545 17.5531 11.2704C18.2859 11.893 18.8759 12.6678 19.2825 13.5415C19.3997 13.7893 19.5131 14.0425 19.6224 14.3011C19.4692 14.3056 19.316 14.2918 19.166 14.2601C19.1057 14.1242 19.0454 13.9892 18.9833 13.8551C18.9705 13.8932 18.9537 13.9298 18.9332 13.9644C18.8853 14.0433 18.8176 14.1081 18.7369 14.1524C18.4488 14.067 18.1361 13.9465 17.8157 13.8158H18.4607C18.5967 13.8158 18.6468 13.6996 18.5729 13.5594C18.535 13.4888 18.4805 13.4285 18.4141 13.3838C18.3478 13.3391 18.2716 13.3114 18.1921 13.3031H16.6106L16.4534 13.2339H16.4475C16.4112 13.217 16.3818 13.1882 16.364 13.1523C16.3463 13.1163 16.3413 13.0753 16.35 13.0361C16.3586 12.9969 16.3803 12.9618 16.4115 12.9367C16.4427 12.9116 16.4815 12.898 16.5214 12.8981H18.1955C18.3033 12.8998 18.4094 12.9249 18.5066 12.9716C18.2102 12.5061 17.8526 12.083 17.4434 11.7139C17.4698 11.8482 17.4459 11.9875 17.3763 12.1052C17.3263 12.1854 17.2565 12.2511 17.1737 12.2961C17.0909 12.341 16.9979 12.3635 16.9038 12.3615H16.0421C15.9219 12.362 15.8049 12.323 15.7087 12.2505C15.6126 12.1781 15.5425 12.076 15.5093 11.9599H16.903C17.0389 11.9599 17.0891 11.8437 17.0151 11.7036C16.9772 11.6329 16.9227 11.5727 16.8564 11.528C16.79 11.4833 16.7138 11.4556 16.6344 11.4473H15.4022C15.3766 11.2705 15.3599 11.0926 15.352 10.9141L16.6183 10.8996ZM24.389 17.0515C25.1539 18.6749 25.8032 20.4529 26.3436 23.229H26.2884C26.1794 23.2134 26.078 23.1638 25.9985 23.0872C25.9191 23.0105 25.8656 22.9107 25.8456 22.8018C25.2865 20.1214 24.644 18.5339 24.0245 17.2258C23.9395 17.0404 23.8443 16.8643 23.7483 16.7012L23.3659 17.0429C23.3311 17.0743 23.2873 17.094 23.2408 17.0991C23.1943 17.1042 23.1474 17.0945 23.1067 17.0714C23.066 17.0483 23.0335 17.0129 23.0138 16.9702C22.9942 16.9276 22.9883 16.8798 22.997 16.8336V16.8285L23.8341 16.086C24.0445 16.3935 24.2301 16.7175 24.389 17.0549V17.0515ZM30.2197 34.9944C30.1173 35.09 29.9972 35.1644 29.8662 35.2132C29.1687 34.4956 28.6133 33.6512 28.2294 32.7251C27.9301 32.0336 27.6669 31.3269 27.4408 30.6078C27.5255 30.4759 27.6328 30.3602 27.7577 30.266C27.9947 31.0471 28.2759 31.8139 28.5999 32.5627C29.0903 33.7102 29.6919 34.4852 30.2197 34.9987V34.9944Z" fill="url(#paint5_radial_422_9272)"/>
<path fill-rule="evenodd" clip-rule="evenodd" d="M7.23283 27.8924L26.0241 9.62394L22.6835 9.69998L30.3913 5.27832L30.3531 5.94136L24.6457 9.06941C24.6287 9.07858 24.6153 9.09328 24.6077 9.1111C24.6002 9.12892 24.5988 9.1488 24.604 9.16748C24.6091 9.18615 24.6204 9.20252 24.636 9.21389C24.6516 9.22526 24.6706 9.23096 24.6899 9.23005L26.8144 9.1446C26.8546 9.14282 26.8943 9.1534 26.9283 9.17494C26.9623 9.19647 26.9889 9.22793 27.0046 9.2651C27.0203 9.30227 27.0243 9.34338 27.0162 9.38292C27.008 9.42247 26.988 9.45856 26.9589 9.48637L8.17614 27.6737L7.23283 27.8924ZM14.3781 38.7308L29.4599 22.1413C29.4989 22.0987 29.5233 22.0448 29.5299 21.9874C29.5364 21.93 29.5247 21.8719 29.4964 21.8216C29.4681 21.7713 29.4246 21.7313 29.3722 21.7073C29.3199 21.6834 29.2613 21.6768 29.205 21.6884L26.9819 22.1054L26.3156 22.7753L28.826 22.2139L13.6388 38.7308H14.3781ZM7.645 7.77325C8.25857 8.22353 8.70558 8.90793 9.07015 9.48894C9.60809 10.3434 10.3245 11.9668 11.0859 15.2076C11.1582 15.5161 11.2236 15.8134 11.2839 16.1031L11.2882 16.0988C11.3923 16.0022 11.4692 15.8796 11.5112 15.7436C11.5531 15.6075 11.5586 15.4627 11.527 15.3238C11.5108 15.2546 11.4955 15.1854 11.4785 15.1145C10.8437 12.4128 10.1477 10.4459 9.41093 9.27191C9.071 8.73277 8.70303 8.17825 8.22798 7.73394H10.4443C10.8295 7.73495 11.2011 7.5911 11.4862 7.33065H7.78097C7.73035 7.33244 7.68154 7.35003 7.64132 7.38098C7.60109 7.41193 7.57144 7.4547 7.5565 7.50335C7.54155 7.55201 7.54204 7.60414 7.5579 7.6525C7.57376 7.70087 7.6042 7.74307 7.645 7.77325ZM16.6183 10.8996C16.96 10.9252 17.286 11.0545 17.5531 11.2704C18.2859 11.893 18.8759 12.6678 19.2825 13.5415C19.3997 13.7893 19.5131 14.0425 19.6224 14.3011C19.4692 14.3056 19.316 14.2918 19.166 14.2601C19.1057 14.1242 19.0454 13.9892 18.9833 13.8551C18.9705 13.8932 18.9537 13.9298 18.9332 13.9644C18.8853 14.0433 18.8176 14.1081 18.7369 14.1524C18.4488 14.067 18.1361 13.9465 17.8157 13.8158H18.4607C18.5967 13.8158 18.6468 13.6996 18.5729 13.5594C18.535 13.4888 18.4805 13.4285 18.4141 13.3838C18.3478 13.3391 18.2716 13.3114 18.1921 13.3031H16.6106L16.4534 13.2339H16.4475C16.4112 13.217 16.3818 13.1882 16.364 13.1523C16.3463 13.1163 16.3413 13.0753 16.35 13.0361C16.3586 12.9969 16.3803 12.9618 16.4115 12.9367C16.4427 12.9116 16.4815 12.898 16.5214 12.8981H18.1955C18.3033 12.8998 18.4094 12.9249 18.5066 12.9716C18.2102 12.5061 17.8526 12.083 17.4434 11.7139C17.4698 11.8482 17.4459 11.9875 17.3763 12.1052C17.3263 12.1854 17.2565 12.2511 17.1737 12.2961C17.0909 12.341 16.9979 12.3635 16.9038 12.3615H16.0421C15.9219 12.362 15.8049 12.323 15.7087 12.2505C15.6126 12.1781 15.5425 12.076 15.5093 11.9599H16.903C17.0389 11.9599 17.0891 11.8437 17.0151 11.7036C16.9772 11.6329 16.9227 11.5727 16.8564 11.528C16.79 11.4833 16.7138 11.4556 16.6344 11.4473H15.4022C15.3766 11.2705 15.3599 11.0926 15.352 10.9141L16.6183 10.8996ZM24.389 17.0515C25.1539 18.6749 25.8032 20.4529 26.3436 23.229H26.2884C26.1794 23.2134 26.078 23.1638 25.9985 23.0872C25.9191 23.0105 25.8656 22.9107 25.8456 22.8018C25.2865 20.1214 24.644 18.5339 24.0245 17.2258C23.9395 17.0404 23.8443 16.8643 23.7483 16.7012L23.3659 17.0429C23.3311 17.0743 23.2873 17.094 23.2408 17.0991C23.1943 17.1042 23.1474 17.0945 23.1067 17.0714C23.066 17.0483 23.0335 17.0129 23.0138 16.9702C22.9942 16.9276 22.9883 16.8798 22.997 16.8336V16.8285L23.8341 16.086C24.0445 16.3935 24.2301 16.7175 24.389 17.0549V17.0515ZM30.2197 34.9944C30.1173 35.09 29.9972 35.1644 29.8662 35.2132C29.1687 34.4956 28.6133 33.6512 28.2294 32.7251C27.9301 32.0336 27.6669 31.3269 27.4408 30.6078C27.5255 30.4759 27.6328 30.3602 27.7577 30.266C27.9947 31.0471 28.2759 31.8139 28.5999 32.5627C29.0903 33.7102 29.6919 34.4852 30.2197 34.9987V34.9944Z" fill="url(#paint6_radial_422_9272)"/>
<path fill-rule="evenodd" clip-rule="evenodd" d="M7.23283 27.8924L26.0241 9.62394L22.6835 9.69998L30.3913 5.27832L30.3531 5.94136L24.6457 9.06941C24.6287 9.07858 24.6153 9.09328 24.6077 9.1111C24.6002 9.12892 24.5988 9.1488 24.604 9.16748C24.6091 9.18615 24.6204 9.20252 24.636 9.21389C24.6516 9.22526 24.6706 9.23096 24.6899 9.23005L26.8144 9.1446C26.8546 9.14282 26.8943 9.1534 26.9283 9.17494C26.9623 9.19647 26.9889 9.22793 27.0046 9.2651C27.0203 9.30227 27.0243 9.34338 27.0162 9.38292C27.008 9.42247 26.988 9.45856 26.9589 9.48637L8.17614 27.6737L7.23283 27.8924ZM14.3781 38.7308L29.4599 22.1413C29.4989 22.0987 29.5233 22.0448 29.5299 21.9874C29.5364 21.93 29.5247 21.8719 29.4964 21.8216C29.4681 21.7713 29.4246 21.7313 29.3722 21.7073C29.3199 21.6834 29.2613 21.6768 29.205 21.6884L26.9819 22.1054L26.3156 22.7753L28.826 22.2139L13.6388 38.7308H14.3781ZM7.645 7.77325C8.25857 8.22353 8.70558 8.90793 9.07015 9.48894C9.60809 10.3434 10.3245 11.9668 11.0859 15.2076C11.1582 15.5161 11.2236 15.8134 11.2839 16.1031L11.2882 16.0988C11.3923 16.0022 11.4692 15.8796 11.5112 15.7436C11.5531 15.6075 11.5586 15.4627 11.527 15.3238C11.5108 15.2546 11.4955 15.1854 11.4785 15.1145C10.8437 12.4128 10.1477 10.4459 9.41093 9.27191C9.071 8.73277 8.70303 8.17825 8.22798 7.73394H10.4443C10.8295 7.73495 11.2011 7.5911 11.4862 7.33065H7.78097C7.73035 7.33244 7.68154 7.35003 7.64132 7.38098C7.60109 7.41193 7.57144 7.4547 7.5565 7.50335C7.54155 7.55201 7.54204 7.60414 7.5579 7.6525C7.57376 7.70087 7.6042 7.74307 7.645 7.77325ZM16.6183 10.8996C16.96 10.9252 17.286 11.0545 17.5531 11.2704C18.2859 11.893 18.8759 12.6678 19.2825 13.5415C19.3997 13.7893 19.5131 14.0425 19.6224 14.3011C19.4692 14.3056 19.316 14.2918 19.166 14.2601C19.1057 14.1242 19.0454 13.9892 18.9833 13.8551C18.9705 13.8932 18.9537 13.9298 18.9332 13.9644C18.8853 14.0433 18.8176 14.1081 18.7369 14.1524C18.4488 14.067 18.1361 13.9465 17.8157 13.8158H18.4607C18.5967 13.8158 18.6468 13.6996 18.5729 13.5594C18.535 13.4888 18.4805 13.4285 18.4141 13.3838C18.3478 13.3391 18.2716 13.3114 18.1921 13.3031H16.6106L16.4534 13.2339H16.4475C16.4112 13.217 16.3818 13.1882 16.364 13.1523C16.3463 13.1163 16.3413 13.0753 16.35 13.0361C16.3586 12.9969 16.3803 12.9618 16.4115 12.9367C16.4427 12.9116 16.4815 12.898 16.5214 12.8981H18.1955C18.3033 12.8998 18.4094 12.9249 18.5066 12.9716C18.2102 12.5061 17.8526 12.083 17.4434 11.7139C17.4698 11.8482 17.4459 11.9875 17.3763 12.1052C17.3263 12.1854 17.2565 12.2511 17.1737 12.2961C17.0909 12.341 16.9979 12.3635 16.9038 12.3615H16.0421C15.9219 12.362 15.8049 12.323 15.7087 12.2505C15.6126 12.1781 15.5425 12.076 15.5093 11.9599H16.903C17.0389 11.9599 17.0891 11.8437 17.0151 11.7036C16.9772 11.6329 16.9227 11.5727 16.8564 11.528C16.79 11.4833 16.7138 11.4556 16.6344 11.4473H15.4022C15.3766 11.2705 15.3599 11.0926 15.352 10.9141L16.6183 10.8996ZM24.389 17.0515C25.1539 18.6749 25.8032 20.4529 26.3436 23.229H26.2884C26.1794 23.2134 26.078 23.1638 25.9985 23.0872C25.9191 23.0105 25.8656 22.9107 25.8456 22.8018C25.2865 20.1214 24.644 18.5339 24.0245 17.2258C23.9395 17.0404 23.8443 16.8643 23.7483 16.7012L23.3659 17.0429C23.3311 17.0743 23.2873 17.094 23.2408 17.0991C23.1943 17.1042 23.1474 17.0945 23.1067 17.0714C23.066 17.0483 23.0335 17.0129 23.0138 16.9702C22.9942 16.9276 22.9883 16.8798 22.997 16.8336V16.8285L23.8341 16.086C24.0445 16.3935 24.2301 16.7175 24.389 17.0549V17.0515ZM30.2197 34.9944C30.1173 35.09 29.9972 35.1644 29.8662 35.2132C29.1687 34.4956 28.6133 33.6512 28.2294 32.7251C27.9301 32.0336 27.6669 31.3269 27.4408 30.6078C27.5255 30.4759 27.6328 30.3602 27.7577 30.266C27.9947 31.0471 28.2759 31.8139 28.5999 32.5627C29.0903 33.7102 29.6919 34.4852 30.2197 34.9987V34.9944Z" fill="url(#paint7_radial_422_9272)"/>
<path fill-rule="evenodd" clip-rule="evenodd" d="M7.23283 27.8924L26.0241 9.62394L22.6835 9.69998L30.3913 5.27832L30.3531 5.94136L24.6457 9.06941C24.6287 9.07858 24.6153 9.09328 24.6077 9.1111C24.6002 9.12892 24.5988 9.1488 24.604 9.16748C24.6091 9.18615 24.6204 9.20252 24.636 9.21389C24.6516 9.22526 24.6706 9.23096 24.6899 9.23005L26.8144 9.1446C26.8546 9.14282 26.8943 9.1534 26.9283 9.17494C26.9623 9.19647 26.9889 9.22793 27.0046 9.2651C27.0203 9.30227 27.0243 9.34338 27.0162 9.38292C27.008 9.42247 26.988 9.45856 26.9589 9.48637L8.17614 27.6737L7.23283 27.8924ZM14.3781 38.7308L29.4599 22.1413C29.4989 22.0987 29.5233 22.0448 29.5299 21.9874C29.5364 21.93 29.5247 21.8719 29.4964 21.8216C29.4681 21.7713 29.4246 21.7313 29.3722 21.7073C29.3199 21.6834 29.2613 21.6768 29.205 21.6884L26.9819 22.1054L26.3156 22.7753L28.826 22.2139L13.6388 38.7308H14.3781ZM7.645 7.77325C8.25857 8.22353 8.70558 8.90793 9.07015 9.48894C9.60809 10.3434 10.3245 11.9668 11.0859 15.2076C11.1582 15.5161 11.2236 15.8134 11.2839 16.1031L11.2882 16.0988C11.3923 16.0022 11.4692 15.8796 11.5112 15.7436C11.5531 15.6075 11.5586 15.4627 11.527 15.3238C11.5108 15.2546 11.4955 15.1854 11.4785 15.1145C10.8437 12.4128 10.1477 10.4459 9.41093 9.27191C9.071 8.73277 8.70303 8.17825 8.22798 7.73394H10.4443C10.8295 7.73495 11.2011 7.5911 11.4862 7.33065H7.78097C7.73035 7.33244 7.68154 7.35003 7.64132 7.38098C7.60109 7.41193 7.57144 7.4547 7.5565 7.50335C7.54155 7.55201 7.54204 7.60414 7.5579 7.6525C7.57376 7.70087 7.6042 7.74307 7.645 7.77325ZM16.6183 10.8996C16.96 10.9252 17.286 11.0545 17.5531 11.2704C18.2859 11.893 18.8759 12.6678 19.2825 13.5415C19.3997 13.7893 19.5131 14.0425 19.6224 14.3011C19.4692 14.3056 19.316 14.2918 19.166 14.2601C19.1057 14.1242 19.0454 13.9892 18.9833 13.8551C18.9705 13.8932 18.9537 13.9298 18.9332 13.9644C18.8853 14.0433 18.8176 14.1081 18.7369 14.1524C18.4488 14.067 18.1361 13.9465 17.8157 13.8158H18.4607C18.5967 13.8158 18.6468 13.6996 18.5729 13.5594C18.535 13.4888 18.4805 13.4285 18.4141 13.3838C18.3478 13.3391 18.2716 13.3114 18.1921 13.3031H16.6106L16.4534 13.2339H16.4475C16.4112 13.217 16.3818 13.1882 16.364 13.1523C16.3463 13.1163 16.3413 13.0753 16.35 13.0361C16.3586 12.9969 16.3803 12.9618 16.4115 12.9367C16.4427 12.9116 16.4815 12.898 16.5214 12.8981H18.1955C18.3033 12.8998 18.4094 12.9249 18.5066 12.9716C18.2102 12.5061 17.8526 12.083 17.4434 11.7139C17.4698 11.8482 17.4459 11.9875 17.3763 12.1052C17.3263 12.1854 17.2565 12.2511 17.1737 12.2961C17.0909 12.341 16.9979 12.3635 16.9038 12.3615H16.0421C15.9219 12.362 15.8049 12.323 15.7087 12.2505C15.6126 12.1781 15.5425 12.076 15.5093 11.9599H16.903C17.0389 11.9599 17.0891 11.8437 17.0151 11.7036C16.9772 11.6329 16.9227 11.5727 16.8564 11.528C16.79 11.4833 16.7138 11.4556 16.6344 11.4473H15.4022C15.3766 11.2705 15.3599 11.0926 15.352 10.9141L16.6183 10.8996ZM24.389 17.0515C25.1539 18.6749 25.8032 20.4529 26.3436 23.229H26.2884C26.1794 23.2134 26.078 23.1638 25.9985 23.0872C25.9191 23.0105 25.8656 22.9107 25.8456 22.8018C25.2865 20.1214 24.644 18.5339 24.0245 17.2258C23.9395 17.0404 23.8443 16.8643 23.7483 16.7012L23.3659 17.0429C23.3311 17.0743 23.2873 17.094 23.2408 17.0991C23.1943 17.1042 23.1474 17.0945 23.1067 17.0714C23.066 17.0483 23.0335 17.0129 23.0138 16.9702C22.9942 16.9276 22.9883 16.8798 22.997 16.8336V16.8285L23.8341 16.086C24.0445 16.3935 24.2301 16.7175 24.389 17.0549V17.0515ZM30.2197 34.9944C30.1173 35.09 29.9972 35.1644 29.8662 35.2132C29.1687 34.4956 28.6133 33.6512 28.2294 32.7251C27.9301 32.0336 27.6669 31.3269 27.4408 30.6078C27.5255 30.4759 27.6328 30.3602 27.7577 30.266C27.9947 31.0471 28.2759 31.8139 28.5999 32.5627C29.0903 33.7102 29.6919 34.4852 30.2197 34.9987V34.9944Z" fill="url(#paint8_radial_422_9272)"/>
<path fill-rule="evenodd" clip-rule="evenodd" d="M7.23283 27.8924L26.0241 9.62394L22.6835 9.69998L30.3913 5.27832L30.3531 5.94136L24.6457 9.06941C24.6287 9.07858 24.6153 9.09328 24.6077 9.1111C24.6002 9.12892 24.5988 9.1488 24.604 9.16748C24.6091 9.18615 24.6204 9.20252 24.636 9.21389C24.6516 9.22526 24.6706 9.23096 24.6899 9.23005L26.8144 9.1446C26.8546 9.14282 26.8943 9.1534 26.9283 9.17494C26.9623 9.19647 26.9889 9.22793 27.0046 9.2651C27.0203 9.30227 27.0243 9.34338 27.0162 9.38292C27.008 9.42247 26.988 9.45856 26.9589 9.48637L8.17614 27.6737L7.23283 27.8924ZM14.3781 38.7308L29.4599 22.1413C29.4989 22.0987 29.5233 22.0448 29.5299 21.9874C29.5364 21.93 29.5247 21.8719 29.4964 21.8216C29.4681 21.7713 29.4246 21.7313 29.3722 21.7073C29.3199 21.6834 29.2613 21.6768 29.205 21.6884L26.9819 22.1054L26.3156 22.7753L28.826 22.2139L13.6388 38.7308H14.3781ZM7.645 7.77325C8.25857 8.22353 8.70558 8.90793 9.07015 9.48894C9.60809 10.3434 10.3245 11.9668 11.0859 15.2076C11.1582 15.5161 11.2236 15.8134 11.2839 16.1031L11.2882 16.0988C11.3923 16.0022 11.4692 15.8796 11.5112 15.7436C11.5531 15.6075 11.5586 15.4627 11.527 15.3238C11.5108 15.2546 11.4955 15.1854 11.4785 15.1145C10.8437 12.4128 10.1477 10.4459 9.41093 9.27191C9.071 8.73277 8.70303 8.17825 8.22798 7.73394H10.4443C10.8295 7.73495 11.2011 7.5911 11.4862 7.33065H7.78097C7.73035 7.33244 7.68154 7.35003 7.64132 7.38098C7.60109 7.41193 7.57144 7.4547 7.5565 7.50335C7.54155 7.55201 7.54204 7.60414 7.5579 7.6525C7.57376 7.70087 7.6042 7.74307 7.645 7.77325ZM16.6183 10.8996C16.96 10.9252 17.286 11.0545 17.5531 11.2704C18.2859 11.893 18.8759 12.6678 19.2825 13.5415C19.3997 13.7893 19.5131 14.0425 19.6224 14.3011C19.4692 14.3056 19.316 14.2918 19.166 14.2601C19.1057 14.1242 19.0454 13.9892 18.9833 13.8551C18.9705 13.8932 18.9537 13.9298 18.9332 13.9644C18.8853 14.0433 18.8176 14.1081 18.7369 14.1524C18.4488 14.067 18.1361 13.9465 17.8157 13.8158H18.4607C18.5967 13.8158 18.6468 13.6996 18.5729 13.5594C18.535 13.4888 18.4805 13.4285 18.4141 13.3838C18.3478 13.3391 18.2716 13.3114 18.1921 13.3031H16.6106L16.4534 13.2339H16.4475C16.4112 13.217 16.3818 13.1882 16.364 13.1523C16.3463 13.1163 16.3413 13.0753 16.35 13.0361C16.3586 12.9969 16.3803 12.9618 16.4115 12.9367C16.4427 12.9116 16.4815 12.898 16.5214 12.8981H18.1955C18.3033 12.8998 18.4094 12.9249 18.5066 12.9716C18.2102 12.5061 17.8526 12.083 17.4434 11.7139C17.4698 11.8482 17.4459 11.9875 17.3763 12.1052C17.3263 12.1854 17.2565 12.2511 17.1737 12.2961C17.0909 12.341 16.9979 12.3635 16.9038 12.3615H16.0421C15.9219 12.362 15.8049 12.323 15.7087 12.2505C15.6126 12.1781 15.5425 12.076 15.5093 11.9599H16.903C17.0389 11.9599 17.0891 11.8437 17.0151 11.7036C16.9772 11.6329 16.9227 11.5727 16.8564 11.528C16.79 11.4833 16.7138 11.4556 16.6344 11.4473H15.4022C15.3766 11.2705 15.3599 11.0926 15.352 10.9141L16.6183 10.8996ZM24.389 17.0515C25.1539 18.6749 25.8032 20.4529 26.3436 23.229H26.2884C26.1794 23.2134 26.078 23.1638 25.9985 23.0872C25.9191 23.0105 25.8656 22.9107 25.8456 22.8018C25.2865 20.1214 24.644 18.5339 24.0245 17.2258C23.9395 17.0404 23.8443 16.8643 23.7483 16.7012L23.3659 17.0429C23.3311 17.0743 23.2873 17.094 23.2408 17.0991C23.1943 17.1042 23.1474 17.0945 23.1067 17.0714C23.066 17.0483 23.0335 17.0129 23.0138 16.9702C22.9942 16.9276 22.9883 16.8798 22.997 16.8336V16.8285L23.8341 16.086C24.0445 16.3935 24.2301 16.7175 24.389 17.0549V17.0515ZM30.2197 34.9944C30.1173 35.09 29.9972 35.1644 29.8662 35.2132C29.1687 34.4956 28.6133 33.6512 28.2294 32.7251C27.9301 32.0336 27.6669 31.3269 27.4408 30.6078C27.5255 30.4759 27.6328 30.3602 27.7577 30.266C27.9947 31.0471 28.2759 31.8139 28.5999 32.5627C29.0903 33.7102 29.6919 34.4852 30.2197 34.9987V34.9944Z" fill="url(#paint9_radial_422_9272)"/>
<path fill-rule="evenodd" clip-rule="evenodd" d="M7.23283 27.8924L26.0241 9.62394L22.6835 9.69998L30.3913 5.27832L30.3531 5.94136L24.6457 9.06941C24.6287 9.07858 24.6153 9.09328 24.6077 9.1111C24.6002 9.12892 24.5988 9.1488 24.604 9.16748C24.6091 9.18615 24.6204 9.20252 24.636 9.21389C24.6516 9.22526 24.6706 9.23096 24.6899 9.23005L26.8144 9.1446C26.8546 9.14282 26.8943 9.1534 26.9283 9.17494C26.9623 9.19647 26.9889 9.22793 27.0046 9.2651C27.0203 9.30227 27.0243 9.34338 27.0162 9.38292C27.008 9.42247 26.988 9.45856 26.9589 9.48637L8.17614 27.6737L7.23283 27.8924ZM14.3781 38.7308L29.4599 22.1413C29.4989 22.0987 29.5233 22.0448 29.5299 21.9874C29.5364 21.93 29.5247 21.8719 29.4964 21.8216C29.4681 21.7713 29.4246 21.7313 29.3722 21.7073C29.3199 21.6834 29.2613 21.6768 29.205 21.6884L26.9819 22.1054L26.3156 22.7753L28.826 22.2139L13.6388 38.7308H14.3781ZM7.645 7.77325C8.25857 8.22353 8.70558 8.90793 9.07015 9.48894C9.60809 10.3434 10.3245 11.9668 11.0859 15.2076C11.1582 15.5161 11.2236 15.8134 11.2839 16.1031L11.2882 16.0988C11.3923 16.0022 11.4692 15.8796 11.5112 15.7436C11.5531 15.6075 11.5586 15.4627 11.527 15.3238C11.5108 15.2546 11.4955 15.1854 11.4785 15.1145C10.8437 12.4128 10.1477 10.4459 9.41093 9.27191C9.071 8.73277 8.70303 8.17825 8.22798 7.73394H10.4443C10.8295 7.73495 11.2011 7.5911 11.4862 7.33065H7.78097C7.73035 7.33244 7.68154 7.35003 7.64132 7.38098C7.60109 7.41193 7.57144 7.4547 7.5565 7.50335C7.54155 7.55201 7.54204 7.60414 7.5579 7.6525C7.57376 7.70087 7.6042 7.74307 7.645 7.77325ZM16.6183 10.8996C16.96 10.9252 17.286 11.0545 17.5531 11.2704C18.2859 11.893 18.8759 12.6678 19.2825 13.5415C19.3997 13.7893 19.5131 14.0425 19.6224 14.3011C19.4692 14.3056 19.316 14.2918 19.166 14.2601C19.1057 14.1242 19.0454 13.9892 18.9833 13.8551C18.9705 13.8932 18.9537 13.9298 18.9332 13.9644C18.8853 14.0433 18.8176 14.1081 18.7369 14.1524C18.4488 14.067 18.1361 13.9465 17.8157 13.8158H18.4607C18.5967 13.8158 18.6468 13.6996 18.5729 13.5594C18.535 13.4888 18.4805 13.4285 18.4141 13.3838C18.3478 13.3391 18.2716 13.3114 18.1921 13.3031H16.6106L16.4534 13.2339H16.4475C16.4112 13.217 16.3818 13.1882 16.364 13.1523C16.3463 13.1163 16.3413 13.0753 16.35 13.0361C16.3586 12.9969 16.3803 12.9618 16.4115 12.9367C16.4427 12.9116 16.4815 12.898 16.5214 12.8981H18.1955C18.3033 12.8998 18.4094 12.9249 18.5066 12.9716C18.2102 12.5061 17.8526 12.083 17.4434 11.7139C17.4698 11.8482 17.4459 11.9875 17.3763 12.1052C17.3263 12.1854 17.2565 12.2511 17.1737 12.2961C17.0909 12.341 16.9979 12.3635 16.9038 12.3615H16.0421C15.9219 12.362 15.8049 12.323 15.7087 12.2505C15.6126 12.1781 15.5425 12.076 15.5093 11.9599H16.903C17.0389 11.9599 17.0891 11.8437 17.0151 11.7036C16.9772 11.6329 16.9227 11.5727 16.8564 11.528C16.79 11.4833 16.7138 11.4556 16.6344 11.4473H15.4022C15.3766 11.2705 15.3599 11.0926 15.352 10.9141L16.6183 10.8996ZM24.389 17.0515C25.1539 18.6749 25.8032 20.4529 26.3436 23.229H26.2884C26.1794 23.2134 26.078 23.1638 25.9985 23.0872C25.9191 23.0105 25.8656 22.9107 25.8456 22.8018C25.2865 20.1214 24.644 18.5339 24.0245 17.2258C23.9395 17.0404 23.8443 16.8643 23.7483 16.7012L23.3659 17.0429C23.3311 17.0743 23.2873 17.094 23.2408 17.0991C23.1943 17.1042 23.1474 17.0945 23.1067 17.0714C23.066 17.0483 23.0335 17.0129 23.0138 16.9702C22.9942 16.9276 22.9883 16.8798 22.997 16.8336V16.8285L23.8341 16.086C24.0445 16.3935 24.2301 16.7175 24.389 17.0549V17.0515ZM30.2197 34.9944C30.1173 35.09 29.9972 35.1644 29.8662 35.2132C29.1687 34.4956 28.6133 33.6512 28.2294 32.7251C27.9301 32.0336 27.6669 31.3269 27.4408 30.6078C27.5255 30.4759 27.6328 30.3602 27.7577 30.266C27.9947 31.0471 28.2759 31.8139 28.5999 32.5627C29.0903 33.7102 29.6919 34.4852 30.2197 34.9987V34.9944Z" fill="url(#paint10_radial_422_9272)"/>
<path fill-rule="evenodd" clip-rule="evenodd" d="M7.23283 27.8924L26.0241 9.62394L22.6835 9.69998L30.3913 5.27832L30.3531 5.94136L24.6457 9.06941C24.6287 9.07858 24.6153 9.09328 24.6077 9.1111C24.6002 9.12892 24.5988 9.1488 24.604 9.16748C24.6091 9.18615 24.6204 9.20252 24.636 9.21389C24.6516 9.22526 24.6706 9.23096 24.6899 9.23005L26.8144 9.1446C26.8546 9.14282 26.8943 9.1534 26.9283 9.17494C26.9623 9.19647 26.9889 9.22793 27.0046 9.2651C27.0203 9.30227 27.0243 9.34338 27.0162 9.38292C27.008 9.42247 26.988 9.45856 26.9589 9.48637L8.17614 27.6737L7.23283 27.8924ZM14.3781 38.7308L29.4599 22.1413C29.4989 22.0987 29.5233 22.0448 29.5299 21.9874C29.5364 21.93 29.5247 21.8719 29.4964 21.8216C29.4681 21.7713 29.4246 21.7313 29.3722 21.7073C29.3199 21.6834 29.2613 21.6768 29.205 21.6884L26.9819 22.1054L26.3156 22.7753L28.826 22.2139L13.6388 38.7308H14.3781ZM7.645 7.77325C8.25857 8.22353 8.70558 8.90793 9.07015 9.48894C9.60809 10.3434 10.3245 11.9668 11.0859 15.2076C11.1582 15.5161 11.2236 15.8134 11.2839 16.1031L11.2882 16.0988C11.3923 16.0022 11.4692 15.8796 11.5112 15.7436C11.5531 15.6075 11.5586 15.4627 11.527 15.3238C11.5108 15.2546 11.4955 15.1854 11.4785 15.1145C10.8437 12.4128 10.1477 10.4459 9.41093 9.27191C9.071 8.73277 8.70303 8.17825 8.22798 7.73394H10.4443C10.8295 7.73495 11.2011 7.5911 11.4862 7.33065H7.78097C7.73035 7.33244 7.68154 7.35003 7.64132 7.38098C7.60109 7.41193 7.57144 7.4547 7.5565 7.50335C7.54155 7.55201 7.54204 7.60414 7.5579 7.6525C7.57376 7.70087 7.6042 7.74307 7.645 7.77325ZM16.6183 10.8996C16.96 10.9252 17.286 11.0545 17.5531 11.2704C18.2859 11.893 18.8759 12.6678 19.2825 13.5415C19.3997 13.7893 19.5131 14.0425 19.6224 14.3011C19.4692 14.3056 19.316 14.2918 19.166 14.2601C19.1057 14.1242 19.0454 13.9892 18.9833 13.8551C18.9705 13.8932 18.9537 13.9298 18.9332 13.9644C18.8853 14.0433 18.8176 14.1081 18.7369 14.1524C18.4488 14.067 18.1361 13.9465 17.8157 13.8158H18.4607C18.5967 13.8158 18.6468 13.6996 18.5729 13.5594C18.535 13.4888 18.4805 13.4285 18.4141 13.3838C18.3478 13.3391 18.2716 13.3114 18.1921 13.3031H16.6106L16.4534 13.2339H16.4475C16.4112 13.217 16.3818 13.1882 16.364 13.1523C16.3463 13.1163 16.3413 13.0753 16.35 13.0361C16.3586 12.9969 16.3803 12.9618 16.4115 12.9367C16.4427 12.9116 16.4815 12.898 16.5214 12.8981H18.1955C18.3033 12.8998 18.4094 12.9249 18.5066 12.9716C18.2102 12.5061 17.8526 12.083 17.4434 11.7139C17.4698 11.8482 17.4459 11.9875 17.3763 12.1052C17.3263 12.1854 17.2565 12.2511 17.1737 12.2961C17.0909 12.341 16.9979 12.3635 16.9038 12.3615H16.0421C15.9219 12.362 15.8049 12.323 15.7087 12.2505C15.6126 12.1781 15.5425 12.076 15.5093 11.9599H16.903C17.0389 11.9599 17.0891 11.8437 17.0151 11.7036C16.9772 11.6329 16.9227 11.5727 16.8564 11.528C16.79 11.4833 16.7138 11.4556 16.6344 11.4473H15.4022C15.3766 11.2705 15.3599 11.0926 15.352 10.9141L16.6183 10.8996ZM24.389 17.0515C25.1539 18.6749 25.8032 20.4529 26.3436 23.229H26.2884C26.1794 23.2134 26.078 23.1638 25.9985 23.0872C25.9191 23.0105 25.8656 22.9107 25.8456 22.8018C25.2865 20.1214 24.644 18.5339 24.0245 17.2258C23.9395 17.0404 23.8443 16.8643 23.7483 16.7012L23.3659 17.0429C23.3311 17.0743 23.2873 17.094 23.2408 17.0991C23.1943 17.1042 23.1474 17.0945 23.1067 17.0714C23.066 17.0483 23.0335 17.0129 23.0138 16.9702C22.9942 16.9276 22.9883 16.8798 22.997 16.8336V16.8285L23.8341 16.086C24.0445 16.3935 24.2301 16.7175 24.389 17.0549V17.0515ZM30.2197 34.9944C30.1173 35.09 29.9972 35.1644 29.8662 35.2132C29.1687 34.4956 28.6133 33.6512 28.2294 32.7251C27.9301 32.0336 27.6669 31.3269 27.4408 30.6078C27.5255 30.4759 27.6328 30.3602 27.7577 30.266C27.9947 31.0471 28.2759 31.8139 28.5999 32.5627C29.0903 33.7102 29.6919 34.4852 30.2197 34.9987V34.9944Z" fill="url(#paint11_radial_422_9272)"/>
</g>
<defs>
<radialGradient id="paint0_radial_422_9272" cx="0" cy="0" r="1" gradientUnits="userSpaceOnUse" gradientTransform="translate(20.4484 23.9786) scale(25.906 23.7022)">
<stop offset="0.49" stop-color="#52C2F0"/>
<stop offset="1" stop-color="#0055A2"/>
</radialGradient>
<radialGradient id="paint1_radial_422_9272" cx="0" cy="0" r="1" gradientUnits="userSpaceOnUse" gradientTransform="translate(-1.48719 4.01581) rotate(-6.49131) scale(20.7839 17.8979)">
<stop stop-color="white"/>
<stop offset="1" stop-color="white" stop-opacity="0"/>
</radialGradient>
<radialGradient id="paint2_radial_422_9272" cx="0" cy="0" r="1" gradientUnits="userSpaceOnUse" gradientTransform="translate(5.90627 36.0568) rotate(-59.2594) scale(9.64286 8.23904)">
<stop offset="0.0104167" stop-color="white"/>
<stop offset="1" stop-color="white" stop-opacity="0"/>
</radialGradient>
<radialGradient id="paint3_radial_422_9272" cx="0" cy="0" r="1" gradientUnits="userSpaceOnUse" gradientTransform="translate(34.0354 11.2784) rotate(-42.238) scale(11.249 9.64119)">
<stop stop-color="white"/>
<stop offset="1" stop-color="white" stop-opacity="0"/>
</radialGradient>
<radialGradient id="paint4_radial_422_9272" cx="0" cy="0" r="1" gradientUnits="userSpaceOnUse" gradientTransform="translate(26.132 34.9033) rotate(74.0055) scale(12.7992 10.9139)">
<stop stop-color="white"/>
<stop offset="1" stop-color="white" stop-opacity="0"/>
</radialGradient>
<radialGradient id="paint5_radial_422_9272" cx="0" cy="0" r="1" gradientUnits="userSpaceOnUse" gradientTransform="translate(7.77587 7.64679) rotate(68.8539) scale(9.89404 6.85913)">
<stop stop-color="white"/>
<stop offset="1" stop-color="white" stop-opacity="0"/>
</radialGradient>
<radialGradient id="paint6_radial_422_9272" cx="0" cy="0" r="1" gradientUnits="userSpaceOnUse" gradientTransform="translate(17.5913 10.7655) rotate(106.614) scale(4.90409 3.39802)">
<stop stop-color="white"/>
<stop offset="1" stop-color="white" stop-opacity="0"/>
</radialGradient>
<radialGradient id="paint7_radial_422_9272" cx="0" cy="0" r="1" gradientUnits="userSpaceOnUse" gradientTransform="translate(28.724 5.29712) rotate(129.743) scale(13.8901 9.65856)">
<stop stop-color="white"/>
<stop offset="1" stop-color="white" stop-opacity="0"/>
</radialGradient>
<radialGradient id="paint8_radial_422_9272" cx="0" cy="0" r="1" gradientUnits="userSpaceOnUse" gradientTransform="translate(8.62569 24.18) rotate(43.1795) scale(9.61452 5.3987)">
<stop stop-color="white"/>
<stop offset="1" stop-color="white" stop-opacity="0"/>
</radialGradient>
<radialGradient id="paint9_radial_422_9272" cx="0" cy="0" r="1" gradientUnits="userSpaceOnUse" gradientTransform="translate(26.3445 17.3873) rotate(120.039) scale(10.6102 7.36524)">
<stop stop-color="white"/>
<stop offset="1" stop-color="white" stop-opacity="0"/>
</radialGradient>
<radialGradient id="paint10_radial_422_9272" cx="0" cy="0" r="1" gradientUnits="userSpaceOnUse" gradientTransform="translate(23.965 27.3841) rotate(129.928) scale(19.3314 13.4427)">
<stop stop-color="white"/>
<stop offset="1" stop-color="white" stop-opacity="0"/>
</radialGradient>
<radialGradient id="paint11_radial_422_9272" cx="0" cy="0" r="1" gradientUnits="userSpaceOnUse" gradientTransform="translate(28.724 29.392) rotate(98.9916) scale(5.70938 3.95354)">
<stop stop-color="white"/>
<stop offset="1" stop-color="white" stop-opacity="0"/>
</radialGradient>
</defs>
</svg>
