<svg width="36" height="50" viewBox="0 0 36 50" fill="none" xmlns="http://www.w3.org/2000/svg">
<g clip-path="url(#clip0_422_10632)">
<path d="M17.4939 50.0004C17.4165 49.9336 17.3473 49.8509 17.2593 49.8024C15.5116 48.8408 13.871 47.7197 12.3586 46.4218C11.3142 45.5258 10.2705 44.621 9.30359 43.644C6.93125 41.2457 4.94366 38.553 3.33255 35.5837C1.76813 32.6996 0.766948 29.6298 0.252764 26.3958C0.198982 26.0565 0.171204 25.7132 0.119194 25.3733C0.108556 25.303 0.0405891 25.2415 -0.000782013 25.1759C-0.000782013 16.7858 -0.000782013 8.39519 -0.000782013 0.000976562H35.4011V24.3485C35.3621 24.4141 35.2912 24.4779 35.2876 24.5453C35.1978 26.2953 34.8101 27.9903 34.3432 29.6706C33.4921 32.7327 32.1292 35.5595 30.3757 38.2002C29.3509 39.7433 28.2197 41.2043 26.9679 42.5725C24.8922 44.8414 22.5849 46.8402 20.0229 48.54C19.3509 48.9856 18.6434 49.3775 17.9555 49.7983C17.871 49.8503 17.8048 49.9324 17.7297 50.0004H17.4933H17.4939ZM27.3036 0.656414C26.2208 0.657005 25.1381 0.657596 24.0554 0.658187C23.9472 0.655232 23.8391 0.649322 23.7309 0.649322C16.2333 0.64814 8.73562 0.646958 1.23799 0.646958C1.12038 0.646958 1.00217 0.655232 0.884561 0.659369C0.865648 0.65405 0.846736 0.654641 0.828414 0.661733L0.649336 0.658187C0.63397 0.673553 0.618012 0.68892 0.602646 0.704286C0.599691 0.782892 0.593781 0.861497 0.593781 0.940102C0.604419 5.84436 0.616239 10.7486 0.626878 15.6529C0.631015 17.524 0.626287 19.3952 0.63988 21.2663C0.648745 22.4555 0.652291 23.6464 0.717894 24.8331C0.762811 25.6428 0.869194 26.4549 1.02049 27.2522C1.41116 29.3107 2.02522 31.3018 2.87865 33.2214C3.54768 34.7267 4.33728 36.1617 5.2238 37.5465C7.08314 40.4513 9.33669 43.011 11.9472 45.264C13.4395 46.5518 15.0075 47.7332 16.6913 48.7581C16.9484 48.9147 17.2268 49.0353 17.4951 49.173L17.4927 49.1688C17.511 49.1919 17.5294 49.2149 17.5471 49.2386C17.67 49.1765 17.793 49.115 17.9159 49.053C17.9525 49.0323 17.9886 49.0116 18.0252 48.9909L18.0205 48.9945C18.0926 48.9697 18.1724 48.9572 18.2362 48.9182C18.722 48.6198 19.2132 48.329 19.686 48.0116C21.3379 46.9035 22.8852 45.6647 24.3485 44.3148C25.9886 42.8012 27.5016 41.173 28.7835 39.3491C29.6807 38.0725 30.5193 36.7504 31.313 35.407C32.0902 34.092 32.6931 32.6806 33.1748 31.2327C33.6003 29.9543 33.9703 28.6487 34.2421 27.3296C34.4957 26.1009 34.712 24.8408 34.7291 23.592C34.7959 18.6694 34.7794 13.7463 34.7912 8.82308C34.7971 6.22379 34.7971 3.62391 34.7995 1.02462C34.7995 0.90996 34.7995 0.795303 34.7995 0.666461C34.6824 0.666461 34.6044 0.666461 34.5264 0.666461C34.5022 0.664688 34.4773 0.662324 34.4531 0.660551C33.4502 0.659369 32.4472 0.658187 31.4443 0.657005C31.423 0.657596 31.4017 0.658778 31.3804 0.659369C30.0418 0.658778 28.7025 0.657596 27.3639 0.656414C27.3438 0.656414 27.3237 0.656414 27.303 0.656414H27.3036Z" fill="#4C4123"/>
<path d="M0.885342 0.658896C1.00295 0.654759 1.12116 0.646484 1.23877 0.646484C8.73641 0.646484 16.234 0.647666 23.7317 0.648848C23.8398 0.648848 23.948 0.654759 24.0561 0.657714C22.3339 3.90003 20.6147 7.14353 18.8889 10.3841C15.2435 17.228 11.5952 24.0702 7.94799 30.9136C7.88239 30.8167 7.80792 30.7251 7.75295 30.6228C7.18617 29.5567 6.62293 28.4887 6.05792 27.4219C5.77482 26.887 5.48818 26.3533 5.20567 25.8179C4.75946 24.971 4.3156 24.1228 3.86998 23.2753C3.5656 22.6967 3.25946 22.1187 2.95508 21.5401C2.51832 20.7097 2.08333 19.8788 1.64716 19.049C1.3682 18.5188 1.08806 17.9893 0.77364 17.3941C4.25295 18.3445 7.66489 19.2765 11.1501 20.2292C11.0839 20.0649 11.0538 19.9656 11.0065 19.8758C10.5171 18.9414 10.026 18.0076 9.53369 17.0744C7.27482 12.7913 5.01655 8.5076 2.75532 4.22568C2.13475 3.05015 1.50591 1.87994 0.881205 0.707359C0.88416 0.691402 0.885342 0.674853 0.885342 0.658896Z" fill="#C5261F"/>
<path d="M27.3641 0.656841C28.7027 0.657432 30.042 0.658614 31.3806 0.659205C31.3871 0.682255 31.3936 0.705304 31.4001 0.728945C31.2884 0.934028 31.1732 1.13734 31.0662 1.34478C30.5692 2.30755 30.0816 3.27445 29.5774 4.23367C29.0355 5.26441 28.4758 6.28568 27.9314 7.31582C27.6413 7.86488 27.3771 8.42812 27.0857 8.97658C26.5999 9.89207 26.0946 10.7975 25.6105 11.7136C25.1619 12.5629 24.7346 13.424 24.2902 14.2756C23.737 15.3359 23.1761 16.3921 22.6182 17.45C22.0597 18.5073 21.503 19.5658 20.9415 20.6214C20.6217 21.2224 20.2902 21.817 19.9722 22.4187C19.5579 23.2029 19.1537 23.9919 18.7411 24.7774C18.3546 25.5144 17.9634 26.2484 17.5355 27.0581C21.026 26.1119 24.4421 25.1858 27.8576 24.2597C27.672 24.7508 27.4604 25.1669 27.2405 25.5782C26.5372 26.8956 25.8251 28.2077 25.1277 29.528C24.4764 30.7614 23.8428 32.0044 23.1956 33.2396C22.9102 33.7839 22.6046 34.317 22.3174 34.8602C21.8564 35.7313 21.4054 36.6072 20.9468 37.4789C20.6472 38.0487 20.3369 38.6131 20.0384 39.1834C19.4273 40.3495 18.8221 41.5185 18.2128 42.6852C17.8564 43.3672 17.4988 44.0493 17.1371 44.7284C16.815 45.3324 16.4858 45.9323 16.1596 46.5345C15.4799 45.2372 14.7996 43.9399 14.12 42.6432C14.4415 42.0487 14.7677 41.4571 15.0833 40.8596C16.6797 37.8377 18.273 34.8152 19.867 31.7922C19.9232 31.6852 19.9687 31.5723 20.0473 31.3997C19.5378 31.5398 19.091 31.6645 18.643 31.7863C16.1495 32.4618 13.656 33.1391 11.1608 33.8099C10.6738 33.9405 10.1797 34.044 9.68913 34.1598L9.69149 34.1633C10.1696 33.2626 10.6495 32.3625 11.1253 31.46C12.857 28.1758 14.5892 24.8921 16.3174 21.606C18.0183 18.372 19.7116 15.1332 21.4155 11.9003C22.8304 9.21535 24.2571 6.53627 25.6744 3.85247C26.2252 2.80991 26.7654 1.76204 27.3103 0.716534C27.3286 0.696439 27.3469 0.676345 27.3652 0.65625L27.3641 0.656841Z" fill="#FEFFFF"/>
<path d="M14.12 42.644C14.7996 43.9413 15.4799 45.2386 16.1596 46.5353C16.5691 47.3166 16.9799 48.0967 17.3871 48.8792C17.435 48.9714 17.4604 49.0749 17.4959 49.173C17.2275 49.0359 16.9492 48.9147 16.6921 48.7581C15.0083 47.7333 13.4403 46.5518 11.948 45.264C9.33747 43.011 7.08392 40.4513 5.22459 37.5465C4.33865 36.1617 3.54905 34.7268 2.87943 33.2214C2.026 31.3018 1.41135 29.3107 1.02128 27.2522C0.869976 26.4549 0.763593 25.6428 0.718676 24.8331C0.653073 23.6464 0.648936 22.4555 0.640662 21.2664C0.627068 19.3952 0.631797 17.524 0.627659 15.6529C0.617021 10.7486 0.605201 5.84437 0.594563 0.940118C0.594563 0.861513 0.600473 0.782908 0.603428 0.704302C0.618794 0.688936 0.634752 0.67357 0.650118 0.658203C0.709811 0.659385 0.769503 0.660567 0.829196 0.661749C0.846927 0.677116 0.864066 0.692482 0.881797 0.707848C1.5065 1.87983 2.13534 3.05005 2.75591 4.22499C5.01714 8.5069 7.27541 12.7906 9.53428 17.0737C10.0266 18.0069 10.5177 18.9401 11.0071 19.8751C11.0544 19.9649 11.0845 20.0642 11.1507 20.2285C7.66489 19.2764 4.25295 18.3444 0.774232 17.3934C1.08865 17.9886 1.36879 18.5175 1.64775 19.0483C2.08452 19.8787 2.5195 20.7096 2.95567 21.5394C3.26005 22.118 3.56619 22.696 3.87057 23.2746C4.31619 24.1221 4.76005 24.9703 5.20626 25.8172C5.48877 26.3526 5.77541 26.8863 6.05851 27.4212C6.62352 28.488 7.18676 29.5565 7.75355 30.6221C7.80792 30.725 7.88298 30.8166 7.94858 30.9129C7.96158 30.9596 7.9669 31.0099 7.98877 31.0518C8.51596 32.0571 9.04433 33.0619 9.57565 34.0648C9.59752 34.1062 9.65248 34.1304 9.69208 34.1629L9.68972 34.1594C9.70449 34.2291 9.7039 34.3065 9.73582 34.3668C10.0922 35.0477 10.4533 35.7262 10.8132 36.4047C11.568 37.8396 12.3203 39.2758 13.078 40.709C13.2606 41.0548 13.461 41.3917 13.6531 41.7327L14.1212 42.6434L14.12 42.644Z" fill="#DCC027"/>
<path d="M34.5272 0.666016H34.8002C34.8002 0.794857 34.8002 0.909514 34.8002 1.02417C34.7979 3.62346 34.7979 6.22334 34.792 8.82263C34.7807 13.7458 34.7973 18.6696 34.7299 23.5915C34.7128 24.8404 34.4965 26.1004 34.2429 27.3291C33.971 28.6477 33.6011 29.9532 33.1755 31.2322C32.6939 32.6796 32.091 34.091 31.3138 35.4066C30.5201 36.7499 29.6814 38.072 28.7843 39.3486C27.5024 41.1725 25.9894 42.8008 24.3493 44.3144C22.8859 45.6642 21.3392 46.9036 19.6868 48.0112C19.2134 48.3285 18.7222 48.6193 18.237 48.9178C18.1738 48.9568 18.094 48.9692 18.0213 48.994C18.0715 48.8545 18.1052 48.7062 18.1738 48.5762C23.5845 38.3149 28.9976 28.0555 34.4102 17.7955C34.4675 17.6867 34.5219 17.5762 34.6235 17.3764C31.1188 18.3268 27.7027 19.2529 24.2204 20.1968C24.3079 20.036 24.3505 19.9592 24.3918 19.8817C27.1832 14.591 29.9746 9.30018 32.7642 4.00821C33.3327 2.92961 33.8936 1.84687 34.458 0.766488C34.4805 0.7328 34.5035 0.699704 34.526 0.666016H34.5272Z" fill="#DCC027"/>
<path d="M34.4586 0.767541C33.8942 1.84851 33.3333 2.93066 32.7648 4.00927C29.9752 9.30123 27.1832 14.592 24.3924 19.8828C24.3517 19.9608 24.3085 20.037 24.221 20.1978C27.7033 19.2539 31.1188 18.3272 34.6241 17.3775C34.5225 17.5766 34.4681 17.6872 34.4108 17.7965C28.9982 28.0565 23.5845 38.316 18.1744 48.5772C18.1058 48.7073 18.0721 48.8556 18.0219 48.9951L18.0266 48.9915L17.9173 49.0536C17.7943 49.1156 17.6714 49.1771 17.5485 49.2386C17.5301 49.2155 17.5118 49.1925 17.4935 49.1694L17.4959 49.1736C17.4598 49.0755 17.4344 48.972 17.3871 48.8798C16.9805 48.0973 16.5697 47.3166 16.1596 46.5359C16.4858 45.9342 16.815 45.3337 17.1371 44.7297C17.4994 44.0506 17.8564 43.3686 18.2128 42.6866C18.8221 41.5199 19.4279 40.3509 20.0384 39.1848C20.3375 38.6145 20.6472 38.05 20.9468 37.4803C21.4054 36.6086 21.857 35.7321 22.3174 34.8615C22.6046 34.3184 22.9108 33.7853 23.1956 33.2409C23.8434 32.0057 24.4764 30.7628 25.1277 29.5294C25.8251 28.209 26.5372 26.897 27.2405 25.5796C27.4604 25.1677 27.672 24.7516 27.8576 24.261C24.4421 25.1872 21.026 26.1133 17.5355 27.0595C17.9639 26.2498 18.3546 25.5158 18.7411 24.7788C19.1531 23.9933 19.5579 23.2037 19.9722 22.42C20.2902 21.8184 20.6217 21.2238 20.9415 20.6227C21.503 19.5666 22.0603 18.5087 22.6182 17.4513C23.1767 16.3934 23.737 15.3373 24.2902 14.277C24.7346 13.4253 25.1619 12.5642 25.6105 11.7149C26.0946 10.7983 26.5999 9.89343 27.0857 8.97794C27.3771 8.42948 27.6413 7.86624 27.9314 7.31719C28.4752 6.28764 29.0355 5.26636 29.5774 4.23504C30.0816 3.27641 30.5691 2.30891 31.0662 1.34615C31.1732 1.1387 31.2884 0.93539 31.4001 0.730307C31.4149 0.706075 31.4297 0.682435 31.445 0.658203C32.448 0.659385 33.4509 0.660567 34.4539 0.661749C34.4557 0.69721 34.4574 0.732671 34.4586 0.768723V0.767541Z" fill="#4385B2"/>
<path d="M9.69089 34.1639C9.6513 34.1314 9.59633 34.1072 9.57446 34.0658C9.04314 33.0629 8.51477 32.0581 7.98758 31.0528C7.96572 31.0109 7.9604 30.9606 7.9474 30.9139C11.5946 24.0711 15.2435 17.2284 18.8883 10.3844C20.6141 7.14384 22.3333 3.90034 24.0555 0.658023C25.1383 0.658023 26.221 0.656841 27.3038 0.65625C27.3056 0.676345 27.3073 0.696439 27.3091 0.717125C26.7642 1.76263 26.224 2.8111 25.6732 3.85306C24.2553 6.53686 22.8286 9.21535 21.4143 11.9009C19.711 15.1338 18.0177 18.3726 16.3162 21.6066C14.5881 24.8927 12.8558 28.1763 11.1241 31.4606C10.6483 32.3625 10.1684 33.2626 9.6903 34.1639H9.69089Z" fill="#4385B2"/>
<path d="M34.4586 0.76713C34.4569 0.731669 34.4551 0.696208 34.4539 0.660156C34.4781 0.661929 34.503 0.664293 34.5272 0.666066C34.5041 0.699754 34.4817 0.733442 34.4592 0.766539L34.4586 0.76713Z" fill="#447D9E"/>
<path d="M17.9167 49.0533L18.026 48.9912C17.9894 49.0119 17.9533 49.0326 17.9167 49.0533Z" fill="#DCC027"/>
<path d="M0.649531 0.658203C0.634164 0.67357 0.618207 0.688936 0.60284 0.704302C0.618207 0.688936 0.634164 0.67357 0.649531 0.658203Z" fill="#CAB127"/>
<path d="M0.881202 0.707521C0.863472 0.692155 0.846332 0.676788 0.828602 0.661422C0.846923 0.654329 0.865836 0.653147 0.884748 0.659058C0.884748 0.675606 0.883566 0.691564 0.880611 0.707521H0.881202Z" fill="#CAB127"/>
<path d="M27.3091 0.717125C27.3073 0.69703 27.3056 0.676936 27.3038 0.65625C27.3239 0.65625 27.344 0.65625 27.3647 0.65625C27.3463 0.676345 27.328 0.696439 27.3097 0.716534L27.3091 0.717125Z" fill="#447C9F"/>
<path d="M31.445 0.65625C31.4303 0.680482 31.4155 0.704122 31.4001 0.728354C31.3936 0.705304 31.3871 0.682255 31.3806 0.658614C31.4019 0.658023 31.4232 0.656841 31.4444 0.65625H31.445Z" fill="#E6E5E2"/>
<path d="M17.4935 49.1689C17.5118 49.192 17.5301 49.215 17.5485 49.2381C17.5301 49.215 17.5118 49.192 17.4935 49.1689Z" fill="#DCC027"/>
<path d="M10.8115 36.4057C10.4515 35.7266 10.0904 35.0487 9.73404 34.3679C9.70213 34.307 9.70272 34.2302 9.68794 34.1604C10.1785 34.0446 10.6732 33.9418 11.1596 33.8106C13.6548 33.1403 16.1478 32.4624 18.6418 31.7869C19.0898 31.6658 19.5366 31.5411 20.0461 31.4004C19.9675 31.5724 19.9226 31.6859 19.8658 31.7928C18.2725 34.8159 16.6785 37.8389 15.0822 40.8602C14.7665 41.4577 14.4403 42.0493 14.1188 42.6439C13.9628 42.3401 13.8067 42.0369 13.6507 41.7331C13.7317 41.6279 13.8304 41.5322 13.8918 41.4163C14.4444 40.3708 14.9864 39.32 15.539 38.2745C16.1395 37.138 16.7476 36.0056 17.3517 34.8714C17.3989 34.7828 17.4409 34.6918 17.5053 34.56C17.3818 34.5842 17.3156 34.5925 17.2518 34.6102C15.8517 35.002 14.4521 35.3968 13.0514 35.7875C12.3056 35.9961 11.5579 36.1989 10.8109 36.4045L10.8115 36.4057Z" fill="#4385B2"/>
<path d="M10.8115 36.4051C11.5585 36.1994 12.3061 35.9967 13.052 35.7881C14.4527 35.3968 15.8522 35.0026 17.2524 34.6108C17.3162 34.5931 17.383 34.5848 17.5059 34.5605C17.4409 34.6923 17.3989 34.7834 17.3522 34.872C16.7482 36.0062 16.1401 37.1386 15.5396 38.2751C14.987 39.3206 14.445 40.3714 13.8924 41.4169C13.8316 41.5328 13.7329 41.6285 13.6513 41.7337C13.4592 41.3927 13.2589 41.0558 13.0762 40.7101C12.3186 39.2769 11.5656 37.8407 10.8115 36.4057V36.4051Z" fill="#C42720"/>
</g>
<defs>
<clipPath id="clip0_422_10632">
<rect width="35.4019" height="50" fill="white"/>
</clipPath>
</defs>
</svg>
